<?xml version="1.0" standalone="no"?>
<!DOCTYPE svg PUBLIC "-//W3C//DTD SVG 1.1//EN" "http://www.w3.org/Graphics/SVG/1.1/DTD/svg11.dtd" >
<svg>
<metadata>
Created by FontForge 20090622 at Sun Feb  9 13:57:03 2020
 By deploy user
Copyright &#194;&#169; 2016 by Red Hat, Inc. All rights reserved.
</metadata>
<defs>
<font id="Overpass-ExtraBold" horiz-adv-x="591" >
  <font-face 
    font-family="Overpass ExtraBold"
    font-weight="800"
    font-stretch="normal"
    units-per-em="1000"
    panose-1="0 0 9 0 0 0 0 0 0 0"
    ascent="750"
    descent="-250"
    x-height="511"
    cap-height="700"
    bbox="-315 -378 1195 1062"
    underline-thickness="100"
    underline-position="-77"
    unicode-range="U+0020-U+1F427"
  />
<missing-glyph horiz-adv-x="250" 
 />
    <glyph glyph-name="fi" unicode="fi" horiz-adv-x="643" 
d="M502 571q-32 0 -54 22.5t-22 53.5t22 53t54 22t54 -21.5t22 -53.5t-22 -54t-54 -22zM236 397v-397h-130v397h-71v114h71v78q0 123 126 123q65 0 114 -25v-106q-43 17 -73 17q-37 0 -37 -35v-52h110v-114h-110zM437 0v511h130v-511h-130z" />
    <glyph glyph-name="fl" unicode="fl" horiz-adv-x="651" 
d="M441 0v661l130 61v-722h-130zM236 397v-397h-130v397h-71v114h71v78q0 123 126 123q65 0 114 -25v-106q-43 17 -73 17q-37 0 -37 -35v-52h110v-114h-110z" />
    <glyph glyph-name=".notdef" horiz-adv-x="250" 
 />
    <glyph glyph-name=".null" horiz-adv-x="0" 
 />
    <glyph glyph-name="nonmarkingreturn" horiz-adv-x="333" 
 />
    <glyph glyph-name="space" unicode=" " horiz-adv-x="250" 
 />
    <glyph glyph-name="exclam" unicode="!" horiz-adv-x="300" 
d="M112 193l-28 293v226h130v-226l-28 -293h-74zM149 -12q-37 0 -61.5 24.5t-24.5 60.5t24.5 61t61.5 25t62.5 -25t25.5 -61q0 -35 -25.5 -60t-62.5 -25z" />
    <glyph glyph-name="quotedbl" unicode="&#x22;" horiz-adv-x="448" 
d="M45 700h156l-24 -291h-108zM247 700h156l-24 -291h-108z" />
    <glyph glyph-name="numbersign" unicode="#" horiz-adv-x="700" 
d="M121 0l27 176h-106l16 112h107l21 141h-106l16 112h108l23 159h114l-24 -159h121l25 159h113l-24 -159h106l-16 -112h-107l-21 -141h106l-17 -112h-106l-27 -176h-114l27 176h-121l-27 -176h-114zM279 288h121l21 141h-121z" />
    <glyph glyph-name="dollar" unicode="$" horiz-adv-x="601" 
d="M234 -92v89q-135 34 -184 181l123 45q21 -48 56.5 -77.5t78.5 -29.5q44 0 69.5 22t25.5 63q0 22 -9 38.5t-31.5 30.5t-38.5 21t-51 21q-37 14 -56 22.5t-50.5 27.5t-47 38.5t-28.5 51.5t-13 71q0 66 41 116.5t115 65.5v80h131v-81q115 -30 150 -153l-121 -40
q-29 73 -103 73q-35 0 -55 -16t-20 -45q0 -22 18 -39.5t38 -26.5t61 -24q38 -14 58 -23t53.5 -29.5t51 -42t31.5 -57t14 -79.5q0 -84 -49 -138.5t-127 -69.5v-86h-131z" />
    <glyph glyph-name="percent" unicode="%" horiz-adv-x="844" 
d="M215 346q-86 0 -128 55t-42 128q0 32 9.5 62.5t28.5 58.5t53 45t79 17q86 0 128 -55t42 -128q0 -32 -9 -62.5t-28 -58.5t-53.5 -45t-79.5 -17zM248 -12h-129l477 724h129zM215 454q28 0 43 21.5t15 53.5q0 34 -15 54.5t-43 20.5t-43 -21.5t-15 -53.5q0 -34 15 -54.5
t43 -20.5zM629 -12q-86 0 -128 54.5t-42 128.5q0 32 9.5 62.5t28.5 58.5t53 45t79 17q86 0 128 -54.5t42 -128.5q0 -45 -15 -84t-55 -69t-100 -30zM629 96q28 0 43 21.5t15 53.5q0 34 -15 54.5t-43 20.5t-43 -21.5t-15 -53.5q0 -75 58 -75z" />
    <glyph glyph-name="ampersand" unicode="&#x26;" horiz-adv-x="719" 
d="M273 -12q-97 0 -155 55t-58 147q0 126 149 204q-66 77 -66 154q0 78 50 121t128 43q77 0 125.5 -44.5t48.5 -117.5q0 -103 -111 -176l77 -92q8 34 8 68h128q0 -105 -45 -177l144 -173h-169l-54 67q-79 -79 -200 -79zM318 612q-24 0 -38.5 -15t-14.5 -41q0 -43 50 -99
q58 35 58 91q0 31 -16 47.5t-39 16.5zM287 113q61 0 112 45l-120 148q-84 -46 -84 -112q0 -37 24.5 -59t67.5 -22z" />
    <glyph glyph-name="quotesingle" unicode="'" horiz-adv-x="246" 
d="M45 700h156l-24 -291h-108z" />
    <glyph glyph-name="parenleft" unicode="(" horiz-adv-x="372" 
d="M192 -130q-52 69 -87 174t-35 239q0 135 38.5 248t94.5 181h129q-45 -55 -88 -172t-43 -257q0 -137 39 -246.5t81 -166.5h-129z" />
    <glyph glyph-name="parenright" unicode=")" horiz-adv-x="372" 
d="M51 -130q17 25 34.5 59t38.5 86.5t34 123t13 144.5q0 140 -43 257t-88 172h129q56 -68 94.5 -181t38.5 -248q0 -134 -35 -239t-87 -174h-129z" />
    <glyph glyph-name="asterisk" unicode="*" horiz-adv-x="550" 
d="M287 379l-12 47l-12 -47l-74 -99l-97 70l74 100l39 19l-47 1l-108 36l37 116l110 -36l33 -25l-16 40v119h122v-119l-16 -40l33 25l110 36l37 -116l-108 -36l-47 -1l39 -19l74 -100l-97 -70z" />
    <glyph glyph-name="plus" unicode="+" horiz-adv-x="630" 
d="M380 280v-172h-130v172h-170v126h170v172h130v-172h170v-126h-170z" />
    <glyph glyph-name="comma" unicode="," horiz-adv-x="247" 
d="M35 -100q16 14 36.5 42t28.5 50q-57 20 -57 78q0 36 25 59.5t59 23.5q37 0 61 -25.5t24 -70.5q0 -56 -36 -111t-86 -87z" />
    <glyph glyph-name="hyphen" unicode="-" horiz-adv-x="412" 
d="M75 233v125h262v-125h-262z" />
    <glyph glyph-name="period" unicode="." horiz-adv-x="241" 
d="M120 -12q-36 0 -60 23.5t-24 58.5t24 59t60 24t60.5 -24t24.5 -59t-24.5 -58.5t-60.5 -23.5z" />
    <glyph glyph-name="slash" unicode="/" horiz-adv-x="522" 
d="M-15 -130l393 842h134l-393 -842h-134z" />
    <glyph glyph-name="zero" unicode="0" horiz-adv-x="660" 
d="M330 -12q-72 0 -124.5 31.5t-80.5 86t-40.5 115t-12.5 129.5q0 70 12.5 130.5t40.5 114.5t80.5 85.5t124.5 31.5q58 0 103.5 -21t74 -55.5t47 -82.5t26 -97.5t7.5 -105.5q0 -69 -12.5 -129.5t-40.5 -115t-80.5 -86t-124.5 -31.5zM330 116q34 0 59 19.5t38.5 54t19.5 74
t6 86.5t-6 86.5t-19.5 74t-38.5 54t-59 19.5t-59 -19.5t-38.5 -54t-19.5 -74t-6 -86.5t6 -86.5t19.5 -74t38.5 -54t59 -19.5z" />
    <glyph glyph-name="one" unicode="1" horiz-adv-x="411" 
d="M139 0v518h-107v107q109 0 134 75h108v-700h-135z" />
    <glyph glyph-name="two" unicode="2" horiz-adv-x="612" 
d="M62 0q0 144 65 235.5t179 152.5q47 25 73.5 51t26.5 63q0 39 -24.5 60.5t-66.5 21.5q-84 0 -121 -79l-121 55q30 70 94.5 111t144.5 41q105 0 167 -58.5t62 -148.5q0 -82 -39 -130t-121 -94q-73 -42 -109 -75t-50 -76h325v-130h-485z" />
    <glyph glyph-name="three" unicode="3" horiz-adv-x="600" 
d="M293 -12q-88 0 -152 44t-95 120l122 49q44 -85 129 -85q47 0 76.5 24t29.5 66q0 41 -27 67t-81 26h-68v129h68q38 0 61 21t23 57q0 34 -22.5 56t-63.5 22q-66 0 -102 -64l-122 47q31 67 89 106t137 39q96 0 157.5 -55.5t61.5 -138.5q0 -99 -85 -150q48 -19 78.5 -62
t30.5 -100q0 -103 -67 -160.5t-178 -57.5z" />
    <glyph glyph-name="four" unicode="4" horiz-adv-x="652" 
d="M378 0v140h-366v86l358 474h140v-435h85v-125h-85v-140h-132zM378 265v257l-190 -257h190z" />
    <glyph glyph-name="five" unicode="5" horiz-adv-x="604" 
d="M274 -12q-133 0 -217 67l73 106q70 -45 144 -45q61 0 97.5 31.5t36.5 87.5q0 48 -26 75.5t-73 27.5q-63 0 -107 -49l-125 59l18 352h404v-130h-279l-8 -127q51 23 103 23q109 0 168.5 -66t59.5 -165q0 -113 -75.5 -180t-193.5 -67z" />
    <glyph glyph-name="six" unicode="6" horiz-adv-x="614" 
d="M317 -12q-122 0 -188.5 75.5t-66.5 194.5q0 179 101 300t309 154v-128q-86 -13 -153.5 -56t-95.5 -119q46 35 115 35q100 0 164.5 -64t64.5 -165t-69.5 -164t-180.5 -63zM317 116q51 0 83 26.5t32 72.5t-32 73.5t-83 27.5t-83.5 -27.5t-32.5 -73.5t32.5 -72.5t83.5 -26.5
z" />
    <glyph glyph-name="seven" unicode="7" horiz-adv-x="541" 
d="M167 0q1 171 45 306.5t136 263.5h-326v130h482v-119q-100 -113 -151 -281t-51 -300h-135z" />
    <glyph glyph-name="eight" unicode="8" horiz-adv-x="629" 
d="M314 -12q-115 0 -183.5 61t-68.5 162q0 118 116 172q-88 47 -88 144q0 83 60 134t164 51t164.5 -51t60.5 -134q0 -49 -25.5 -86t-63.5 -57q54 -25 85.5 -70t31.5 -103q0 -101 -68.5 -162t-184.5 -61zM314 441q40 0 65.5 22t25.5 55q0 32 -25.5 53t-65.5 21
q-41 0 -65.5 -20.5t-24.5 -53.5q0 -34 24.5 -55.5t65.5 -21.5zM314 110q51 0 84.5 29t33.5 74q0 46 -33.5 75t-84.5 29q-52 0 -84.5 -29t-32.5 -75q0 -45 32.5 -74t84.5 -29z" />
    <glyph glyph-name="nine" unicode="9" horiz-adv-x="614" 
d="M161 -12v128q195 6 241 182q-45 -38 -119 -38q-105 0 -170.5 61t-65.5 166q0 102 70 163.5t183 61.5q126 0 189 -74t63 -197q0 -209 -97.5 -328t-293.5 -125zM299 388q55 0 86.5 26t31.5 74q0 44 -32 71t-85 27q-54 0 -86 -26.5t-32 -71.5q0 -48 31 -74t86 -26z" />
    <glyph glyph-name="colon" unicode=":" horiz-adv-x="241" 
d="M120 321q-36 0 -60 23.5t-24 58.5t24 59t60 24t60.5 -24t24.5 -59t-24.5 -58.5t-60.5 -23.5zM120 -12q-36 0 -60 23.5t-24 58.5t24 59t60 24t60.5 -24t24.5 -59t-24.5 -58.5t-60.5 -23.5z" />
    <glyph glyph-name="semicolon" unicode=";" horiz-adv-x="241" 
d="M124 321q-36 0 -60 23.5t-24 58.5t24 59t60 24t60.5 -24t24.5 -59t-24.5 -58.5t-60.5 -23.5zM32 -100q51 43 65 92q-57 20 -57 78q0 36 25 59.5t59 23.5q37 0 61 -25.5t24 -70.5q0 -60 -35 -113t-87 -85z" />
    <glyph glyph-name="less" unicode="&#x3c;" horiz-adv-x="630" 
d="M550 98l-470 192v106l470 192v-136l-276 -109l276 -110v-135z" />
    <glyph glyph-name="equal" unicode="=" horiz-adv-x="630" 
d="M80 391v126h470v-126h-470zM80 169v126h470v-126h-470z" />
    <glyph glyph-name="greater" unicode="&#x3e;" horiz-adv-x="630" 
d="M550 290l-470 -192v136l276 109l-276 110v135l470 -192v-106z" />
    <glyph glyph-name="question" unicode="?" horiz-adv-x="505" 
d="M179 189v36q0 51 16.5 90t40.5 61t47.5 41t40 41.5t16.5 50.5q0 35 -23 56.5t-64 21.5q-50 0 -76.5 -30.5t-26.5 -87.5h-130q0 115 64 179t169 64q103 0 160 -57t57 -146q0 -39 -12 -69.5t-30 -49.5t-38.5 -38l-38.5 -34.5t-30 -39.5t-12 -54v-35h-130zM245 -12
q-36 0 -60 23.5t-24 58.5t24 59t60 24t60.5 -24t24.5 -59t-24.5 -58.5t-60.5 -23.5z" />
    <glyph glyph-name="at" unicode="@" horiz-adv-x="837" 
d="M426 -12q-166 0 -266 92.5t-100 257.5q0 162 108 268t267 106q153 0 247.5 -86.5t94.5 -213.5q0 -110 -61 -182t-152 -72q-25 0 -49 13t-32 39q-31 -52 -99 -52q-64 0 -104 47t-40 124q0 80 52.5 143.5t133.5 63.5q59 0 82 -41l5 28h99l-33 -178q-13 -65 -13 -80
q0 -17 17 -17q38 0 67 44.5t29 117.5q0 89 -61 146.5t-178 57.5q-122 0 -199 -78t-77 -199q0 -120 71.5 -185.5t194.5 -65.5q59 0 137 19l-29 -109q-62 -8 -112 -8zM396 256q38 0 62 35t24 77q0 33 -14 51.5t-40 18.5q-38 0 -62 -32.5t-24 -78.5q0 -32 14.5 -51.5
t39.5 -19.5z" />
    <glyph glyph-name="A" unicode="A" horiz-adv-x="732" 
d="M555 0l-54 145h-270l-54 -145h-145l268 700h132l268 -700h-145zM457 268l-69 182q-16 40 -22 63q-6 -23 -22 -63l-69 -182h182z" />
    <glyph glyph-name="B" unicode="B" horiz-adv-x="693" 
d="M80 700h307q119 0 173 -53.5t54 -134.5q0 -103 -85 -143q55 -20 82 -65t27 -96q0 -85 -58 -146.5t-179 -61.5h-321v700zM371 425q53 0 79.5 20t26.5 55q0 74 -88 74h-174v-149h156zM408 126q49 0 71 24.5t22 57.5q0 91 -121 91h-165v-173h193z" />
    <glyph glyph-name="C" unicode="C" horiz-adv-x="640" 
d="M349 -11q-79 0 -138 31.5t-92 85t-48.5 114.5t-15.5 130q0 64 16 124.5t49 115t92 88t137 33.5q94 0 158.5 -46t91.5 -112l-121 -55q-28 43 -57 63t-72 20q-55 0 -91.5 -37.5t-49.5 -87t-13 -106.5q0 -91 39.5 -161t114.5 -70q73 0 127 90l124 -47q-78 -173 -251 -173z
" />
    <glyph glyph-name="D" unicode="D" horiz-adv-x="710" 
d="M80 700h236q88 0 155.5 -29.5t106.5 -80.5t58 -111.5t19 -128.5q0 -50 -10.5 -98t-36.5 -94.5t-64 -81t-98 -55.5t-134 -21h-232v700zM328 128q95 0 141 66.5t46 155.5q0 91 -45 156.5t-131 65.5h-124v-444h113z" />
    <glyph glyph-name="E" unicode="E" horiz-adv-x="624" 
d="M80 0v700h478v-128h-343v-147h202v-128h-202v-169h364v-128h-499z" />
    <glyph glyph-name="F" unicode="F" horiz-adv-x="574" 
d="M80 0v700h469v-128h-334v-147h212v-128h-212v-297h-135z" />
    <glyph glyph-name="G" unicode="G" horiz-adv-x="673" 
d="M363 -12q-78 0 -138.5 30.5t-97 82.5t-54.5 115t-18 134q0 66 19 128.5t55.5 115.5t97 85.5t136.5 32.5q93 0 150.5 -40.5t100.5 -109.5l-119 -68q-58 88 -132 88q-46 0 -80.5 -21.5t-52.5 -57t-26.5 -74t-8.5 -79.5q0 -98 42 -165t126 -67q51 0 86.5 33t35.5 80v8h-119
v128h257v-103q0 -130 -73 -203t-187 -73z" />
    <glyph glyph-name="H" unicode="H" horiz-adv-x="723" 
d="M508 0v296h-293v-296h-135v700h135v-276h293v276h135v-700h-135z" />
    <glyph glyph-name="I" unicode="I" horiz-adv-x="305" 
d="M85 0v700h135v-700h-135z" />
    <glyph glyph-name="J" unicode="J" horiz-adv-x="565" 
d="M250 -12q-76 0 -139 40.5t-96 113.5l118 55q42 -79 117 -79q105 0 105 137v445h135v-457q0 -71 -21.5 -123.5t-58.5 -79.5t-76.5 -39.5t-83.5 -12.5z" />
    <glyph glyph-name="K" unicode="K" horiz-adv-x="713" 
d="M525 0l-180 335l-130 -160v-175h-135v700h135v-334l265 334h160l-204 -251l247 -449h-158z" />
    <glyph glyph-name="L" unicode="L" horiz-adv-x="568" 
d="M80 0v700h135v-570h338v-130h-473z" />
    <glyph glyph-name="M" unicode="M" horiz-adv-x="809" 
d="M729 0h-135v360q0 23 2 55q-12 -35 -21 -55l-170 -372l-171 372q-9 20 -21 55q2 -32 2 -55v-360h-135v700h137l172 -386q8 -19 18 -48q10 29 18 48l175 386h129v-700z" />
    <glyph glyph-name="N" unicode="N" horiz-adv-x="718" 
d="M638 0h-120l-278 408q-14 21 -29 53q3 -25 3 -53v-408h-134v700h127l271 -403q17 -28 29 -53q-3 24 -3 53v403h134v-700z" />
    <glyph glyph-name="O" unicode="O" horiz-adv-x="727" 
d="M364 -12q-65 0 -118.5 21t-88 56.5t-58.5 82.5t-34 97.5t-10 104.5t10 104.5t34 97.5t58.5 82.5t88 56.5t118.5 21t118.5 -21t88 -56.5t58 -82.5t33.5 -97.5t10 -104.5t-10 -104.5t-33.5 -97.5t-58 -82.5t-88 -56.5t-118.5 -21zM364 118q44 0 78 21.5t53 57t28 74.5t9 79
q0 43 -9 82t-27.5 73.5t-52.5 55.5t-79 21t-79.5 -21.5t-53 -57t-27.5 -74t-9 -79.5q0 -58 15 -108t55 -87t99 -37z" />
    <glyph glyph-name="P" unicode="P" horiz-adv-x="639" 
d="M80 0v700h300q64 0 111.5 -19t74.5 -51t40 -70t13 -81q0 -87 -60.5 -154t-178.5 -67h-165v-258h-135zM386 386q47 0 70 27.5t23 65.5q0 37 -22 65t-71 28h-171v-186h171z" />
    <glyph glyph-name="Q" unicode="Q" horiz-adv-x="727" 
d="M364 -12q-65 0 -118.5 21t-88 56.5t-58.5 82.5t-34 97.5t-10 104.5t10 104.5t34 97.5t58.5 82.5t88 56.5t118.5 21t118.5 -21t88 -56.5t58 -82.5t33.5 -97.5t10 -104.5q0 -183 -102 -285l46 -68l-100 -66l-49 72q-52 -15 -103 -15zM364 118q12 0 24 3l-51 76l102 66
l50 -76q43 61 43 163q0 43 -9 82t-27.5 73.5t-52.5 55.5t-79 21t-79.5 -21.5t-53 -57t-27.5 -74t-9 -79.5q0 -58 15 -108t55 -87t99 -37z" />
    <glyph glyph-name="R" unicode="R" horiz-adv-x="694" 
d="M80 0v700h325q123 0 178.5 -61.5t55.5 -157.5q0 -64 -35.5 -121.5t-100.5 -80.5l136 -279h-152l-131 261h-141v-261h-135zM215 389h192q48 0 70 26t22 66q0 39 -21.5 65t-70.5 26h-192v-183z" />
    <glyph glyph-name="S" unicode="S" horiz-adv-x="615" 
d="M312 -12q-98 0 -170 51t-102 141l123 46q23 -50 63 -80t90 -30q52 0 82.5 22t30.5 63q0 21 -10 37t-34 29t-42.5 20.5t-55.5 19.5q-42 14 -63.5 22t-56.5 27t-53 38.5t-32.5 52t-14.5 72.5q0 82 64 137.5t173 55.5q90 0 151.5 -45t81.5 -117l-121 -40q-33 74 -120 74
q-44 0 -68.5 -17.5t-24.5 -49.5q0 -21 20 -37.5t41 -25t66 -23.5l54 -19t52 -22t51.5 -31t39 -38.5t29.5 -53t9 -66.5q0 -99 -71.5 -156t-181.5 -57z" />
    <glyph glyph-name="T" unicode="T" horiz-adv-x="605" 
d="M370 570v-570h-135v570h-200v130h535v-130h-200z" />
    <glyph glyph-name="U" unicode="U" horiz-adv-x="714" 
d="M357 -12q-56 0 -104.5 14.5t-89.5 46t-64.5 87.5t-23.5 132v432h135v-432q0 -83 37 -116.5t110 -33.5q72 0 109.5 33.5t37.5 116.5v432h135v-432q0 -145 -80 -212.5t-202 -67.5z" />
    <glyph glyph-name="V" unicode="V" horiz-adv-x="685" 
d="M278 0l-248 700h146l154 -458q6 -18 14 -48q4 18 13 48l154 458h144l-247 -700h-130z" />
    <glyph glyph-name="W" unicode="W" horiz-adv-x="852" 
d="M185 0l-150 700h139l78 -394q5 -21 9 -52q4 30 10 53l96 393h117l98 -393q6 -23 10 -53q4 31 9 52l78 394h138l-151 -700h-126l-106 412q-7 26 -10 53q-3 -28 -10 -52l-103 -413h-126z" />
    <glyph glyph-name="X" unicode="X" horiz-adv-x="692" 
d="M494 0l-148 235l-148 -235h-158l227 361l-213 339h158l134 -214l134 214h158l-213 -339l227 -361h-158z" />
    <glyph glyph-name="Y" unicode="Y" horiz-adv-x="692" 
d="M279 0v273l-259 427h153l173 -286l173 286h153l-259 -427v-273h-134z" />
    <glyph glyph-name="Z" unicode="Z" horiz-adv-x="645" 
d="M45 0v103l366 469h-344v128h523v-103l-369 -469h369v-128h-545z" />
    <glyph glyph-name="bracketleft" unicode="[" horiz-adv-x="390" 
d="M100 -130v842h250v-125h-120v-592h120v-125h-250z" />
    <glyph glyph-name="backslash" unicode="\" horiz-adv-x="522" 
d="M378 -130l-393 842h134l393 -842h-134z" />
    <glyph glyph-name="bracketright" unicode="]" horiz-adv-x="390" 
d="M290 -130h-250v125h119v592h-119v125h250v-842z" />
    <glyph glyph-name="asciicircum" unicode="^" horiz-adv-x="630" 
d="M437 340l-122 203l-122 -203h-135l208 372h98l208 -372h-135z" />
    <glyph glyph-name="underscore" unicode="_" horiz-adv-x="500" 
d="M-5 -177v100h510v-100h-510z" />
    <glyph glyph-name="grave" unicode="`" horiz-adv-x="475" 
d="M247 576l-178 156h162l142 -156h-126z" />
    <glyph glyph-name="a" unicode="a" horiz-adv-x="558" 
d="M365 0v37q-49 -49 -132 -49t-135.5 44t-52.5 125q0 83 59.5 126t143.5 43q67 0 117 -24v26q0 81 -92 81q-84 0 -158 -51l-40 105q89 60 209 60q41 0 72.5 -7t65.5 -26t52.5 -60.5t18.5 -103.5v-326h-128zM258 102q61 0 107 42v55q-42 17 -95 17q-44 0 -71 -14.5
t-27 -44.5q0 -25 22.5 -40t63.5 -15z" />
    <glyph glyph-name="b" unicode="b" horiz-adv-x="576" 
d="M309 -12q-69 0 -104 49v-37h-130v663l130 59v-248q39 49 109 49q93 0 152.5 -72.5t59.5 -194.5q0 -128 -58 -198t-159 -70zM294 113q49 0 75.5 38t26.5 105q0 69 -26.5 105.5t-75.5 36.5q-60 0 -89 -42v-202q29 -41 89 -41z" />
    <glyph glyph-name="c" unicode="c" horiz-adv-x="547" 
d="M283 -12q-107 0 -170 71t-63 196q0 124 63.5 196t169.5 72q165 0 213 -150l-124 -41q-25 66 -86 66q-47 0 -75.5 -39t-28.5 -104t28 -103.5t73 -38.5q67 0 90 74l124 -37q-47 -162 -214 -162z" />
    <glyph glyph-name="d" unicode="d" horiz-adv-x="576" 
d="M261 -12q-98 0 -154.5 70t-56.5 198q0 122 59.5 194.5t152.5 72.5q70 0 109 -49v189l130 59v-722h-130v37q-33 -49 -110 -49zM282 113q60 0 89 41v202q-31 42 -89 42q-49 0 -75.5 -36.5t-26.5 -105.5q0 -67 26.5 -105t75.5 -38z" />
    <glyph glyph-name="e" unicode="e" horiz-adv-x="560" 
d="M289 -12q-111 0 -175 71t-64 197q0 123 64.5 195t174.5 72q100 0 163 -61.5t63 -179.5q0 -49 -4 -77h-333q4 -48 35.5 -75.5t75.5 -27.5q68 0 110 53l80 -81q-71 -86 -190 -86zM179 315h209q-6 44 -32.5 69t-66.5 25q-98 0 -110 -94z" />
    <glyph glyph-name="f" unicode="f" horiz-adv-x="361" 
d="M236 397v-397h-130v397h-71v114h71v78q0 123 126 123q65 0 114 -25v-106q-43 17 -73 17q-37 0 -37 -35v-52h110v-114h-110z" />
    <glyph glyph-name="g" unicode="g" horiz-adv-x="576" 
d="M260 -200l-72 108q106 8 144.5 29.5t38.5 75.5v14q-39 -39 -110 -39q-95 0 -153 69.5t-58 198.5q0 122 58.5 194.5t153.5 72.5q68 0 109 -39v27h130v-442q0 -137 -50.5 -197.5t-190.5 -71.5zM282 113q59 0 89 41v202q-35 42 -89 42q-49 0 -75.5 -36.5t-26.5 -105.5
q0 -65 26 -104t76 -39z" />
    <glyph glyph-name="h" unicode="h" 
d="M75 0v662l130 60v-259q49 60 137 60q76 0 127.5 -47.5t51.5 -153.5v-322h-130v285q0 113 -89 113q-97 0 -97 -111v-287h-130z" />
    <glyph glyph-name="i" unicode="i" horiz-adv-x="282" 
d="M141 571q-31 0 -53.5 22.5t-22.5 53.5t22 53t54 22t54 -21.5t22 -53.5t-22 -54t-54 -22zM76 0v511h130v-511h-130z" />
    <glyph glyph-name="j" unicode="j" horiz-adv-x="282" 
d="M141 571q-31 0 -53.5 22.5t-22.5 53.5t22 53t54 22t54 -21.5t22 -53.5t-22 -54t-54 -22zM-1 -214l-66 103q81 18 112 41t31 66v515h130v-483q0 -110 -50 -162q-53 -57 -157 -80z" />
    <glyph glyph-name="k" unicode="k" horiz-adv-x="566" 
d="M536 0h-142l-141 270l-48 -46v-224h-130v661l130 61v-350l137 139h156l-150 -148z" />
    <glyph glyph-name="l" unicode="l" horiz-adv-x="290" 
d="M80 0v661l130 61v-722h-130z" />
    <glyph glyph-name="m" unicode="m" horiz-adv-x="875" 
d="M675 0v279q0 63 -19 91t-62 28q-46 0 -67.5 -28t-21.5 -90v-280h-130v279q0 63 -19 91t-62 28q-46 0 -67.5 -28t-21.5 -90v-280h-130v511h130v-47q46 59 121 59q94 0 131 -72q51 72 157 72q191 0 191 -202v-321h-130z" />
    <glyph glyph-name="n" unicode="n" 
d="M391 0v280q0 62 -21.5 90t-67.5 28q-97 0 -97 -116v-282h-130v511h130v-48q49 60 137 60q76 0 127.5 -47.5t51.5 -153.5v-322h-130z" />
    <glyph glyph-name="o" unicode="o" horiz-adv-x="570" 
d="M285 -12q-109 0 -172 71t-63 196q0 124 63.5 196t171.5 72t171.5 -72t63.5 -196q0 -125 -63 -196t-172 -71zM285 113q49 0 77 37.5t28 104.5t-28 105t-77 38q-48 0 -76.5 -38.5t-28.5 -104.5t28.5 -104t76.5 -38z" />
    <glyph glyph-name="p" unicode="p" horiz-adv-x="576" 
d="M314 -12q-70 0 -109 49v-178l-130 -59v711h130v-37q39 49 110 49q96 0 153.5 -70.5t57.5 -197.5q0 -123 -59 -195t-153 -72zM294 113q49 0 75.5 37t26.5 105q0 66 -26.5 104.5t-75.5 38.5q-58 0 -89 -41v-202q26 -42 89 -42z" />
    <glyph glyph-name="q" unicode="q" horiz-adv-x="576" 
d="M262 -12q-94 0 -153 72t-59 195q0 127 59.5 197.5t157.5 70.5q69 0 104 -49v37h130v-652l-130 -59v237q-39 -49 -109 -49zM282 113q63 0 89 42v202q-31 41 -89 41q-49 0 -75.5 -38.5t-26.5 -104.5q0 -68 26.5 -105t75.5 -37z" />
    <glyph glyph-name="r" unicode="r" horiz-adv-x="419" 
d="M75 0v511h130v-45q27 57 95 57q57 0 104 -39l-18 -119q-42 30 -93 30q-88 0 -88 -110v-285h-130z" />
    <glyph glyph-name="s" unicode="s" horiz-adv-x="494" 
d="M244 -12q-62 0 -118 25t-86 67l86 73q55 -55 120 -55q77 0 77 45q0 21 -20.5 34.5t-72.5 33.5q-91 30 -133 67.5t-42 100.5q0 67 53 105.5t133 38.5q116 0 187 -82l-87 -71q-46 43 -100 43q-65 0 -65 -38q0 -32 100 -62q80 -26 124 -63.5t44 -106.5q0 -74 -54 -114.5
t-146 -40.5z" />
    <glyph glyph-name="t" unicode="t" horiz-adv-x="393" 
d="M227 -12q-124 0 -124 135v274h-73v114h73v149l130 62v-211h114v-114h-114v-255q0 -40 36 -40q41 0 84 22l-15 -113q-48 -23 -111 -23z" />
    <glyph glyph-name="u" unicode="u" 
d="M386 0v48q-48 -60 -137 -60q-75 0 -127 48t-52 153v322h130v-280q0 -61 21.5 -89.5t67.5 -28.5q97 0 97 116v282h130v-511h-130z" />
    <glyph glyph-name="v" unicode="v" horiz-adv-x="559" 
d="M212 0l-187 511h134l107 -303q9 -27 14 -47q5 20 14 47l106 303h134l-187 -511h-135z" />
    <glyph glyph-name="w" unicode="w" horiz-adv-x="751" 
d="M178 0l-143 511h128l60 -249q3 -11 7.5 -36t5.5 -31l15 67l65 249h118l64 -249l15 -67q1 6 5.5 31t7.5 36l62 249h128l-144 -511h-115l-65 255q-16 67 -17 76q-1 -9 -17 -76l-65 -255h-115z" />
    <glyph glyph-name="x" unicode="x" horiz-adv-x="581" 
d="M30 0l185 265l-172 246h151l67 -97q25 -36 29 -47q15 28 29 47l68 97h151l-172 -246l185 -265h-151l-81 115q-14 19 -29 47q-4 -11 -29 -47l-80 -115h-151z" />
    <glyph glyph-name="y" unicode="y" horiz-adv-x="570" 
d="M139 -194l78 201l-192 504h133l112 -295q9 -22 15 -47q2 8 15 47l112 295h133l-271 -705h-135z" />
    <glyph glyph-name="z" unicode="z" horiz-adv-x="544" 
d="M55 0v102l264 293h-245v116h410v-99l-263 -296h262v-116h-428z" />
    <glyph glyph-name="braceleft" unicode="{" horiz-adv-x="380" 
d="M340 -130q-107 2 -168.5 62t-61.5 172v66q0 62 -40 62h-30v118h30q40 0 40 62v65q0 112 61 171.5t169 63.5v-119q-100 -6 -100 -99v-72q0 -105 -69 -131q69 -26 69 -132v-72q0 -95 100 -99v-118z" />
    <glyph glyph-name="bar" unicode="|" horiz-adv-x="300" 
d="M85 -378v1440h130v-1440h-130z" />
    <glyph glyph-name="braceright" unicode="}" horiz-adv-x="380" 
d="M40 -130v118q100 4 100 99v72q0 106 69 132q-69 26 -69 131v72q0 93 -100 99v119q108 -4 169 -63.5t61 -171.5v-65q0 -28 11 -45t29 -17h30v-118h-30q-19 0 -29.5 -17t-10.5 -45v-66q0 -112 -61.5 -172t-168.5 -62z" />
    <glyph glyph-name="asciitilde" unicode="~" horiz-adv-x="630" 
d="M409 253q-47 0 -104.5 27t-77.5 27q-39 0 -46 -54h-103q0 78 35.5 129.5t106.5 51.5q47 0 103 -27t79 -27q41 0 46 54h103q0 -79 -34.5 -130t-107.5 -51z" />
    <glyph glyph-name="uni00A0" unicode="&#xa0;" horiz-adv-x="250" 
 />
    <glyph glyph-name="exclamdown" unicode="&#xa1;" horiz-adv-x="300" 
d="M151 352q-37 0 -62.5 25.5t-25.5 60.5t25.5 60t62.5 25t61.5 -24.5t24.5 -60.5t-25 -61t-61 -25zM216 -200h-130v226l28 293h74l28 -293v-226z" />
    <glyph glyph-name="cent" unicode="&#xa2;" horiz-adv-x="547" 
d="M209 -12v106q-76 22 -117.5 88t-41.5 168q0 101 42 168.5t117 89.5v104h125v-98q122 -20 162 -146l-124 -41q-25 66 -86 66q-47 0 -75.5 -38.5t-28.5 -104.5q0 -65 28 -103.5t73 -38.5q67 0 90 74l124 -37q-36 -133 -163 -157v-100h-125z" />
    <glyph glyph-name="sterling" unicode="&#xa3;" horiz-adv-x="600" 
d="M79 0v124q62 28 78 122q2 16 2 23h-84v120h54q-26 58 -26 115q0 86 61 147t177 61q122 0 225 -74l-51 -124q-26 21 -43.5 32.5t-54 25t-76.5 13.5q-52 0 -78 -23.5t-26 -56.5q0 -29 37 -116h170v-120h-151q0 -7 -2 -23q-10 -68 -47 -119h326v-127h-491z" />
    <glyph glyph-name="currency" unicode="&#xa4;" horiz-adv-x="650" 
d="M325 85q-68 0 -123 29l-69 -70l-97 97l73 73q-24 52 -24 119q0 62 26 119l-75 75l94 94l70 -70q57 30 125 30t122 -30l69 70l98 -97l-74 -73q25 -55 25 -118q0 -68 -26 -122l75 -73l-95 -94l-71 71q-55 -30 -123 -30zM325 212q48 0 77.5 34t29.5 87t-29.5 87t-77.5 34
t-77.5 -34t-29.5 -87t29.5 -87t77.5 -34z" />
    <glyph glyph-name="yen" unicode="&#xa5;" horiz-adv-x="608" 
d="M386 344h118v-98h-135v-65h135v-98h-135v-83h-130v83h-135v98h135v65h-135v98h117l-206 356h150l139 -249l137 249h152z" />
    <glyph glyph-name="brokenbar" unicode="&#xa6;" horiz-adv-x="300" 
d="M85 366v459h130v-459h-130zM85 -225v459h130v-459h-130z" />
    <glyph glyph-name="section" unicode="&#xa7;" horiz-adv-x="530" 
d="M268 -120q-143 0 -218 98l94 80q57 -53 125 -53q76 0 76 50q0 22 -27 39.5t-90 45.5l-21 9q-36 16 -55 26t-44 29.5t-36 45.5t-11 61q0 68 61 108q-61 48 -61 122q0 80 56 125.5t145 45.5q127 0 198 -88l-98 -79q-42 42 -100 42q-30 0 -48 -12t-18 -31q0 -20 30.5 -38
t92.5 -42q38 -15 60.5 -26.5t49 -31.5t39 -48.5t12.5 -66.5q0 -69 -54 -110q54 -48 54 -123q0 -84 -56 -131t-156 -47zM326 243q19 8 19 36q0 24 -29 41.5t-86 37.5q-34 -6 -34 -34q0 -11 7 -20.5t29 -20.5t37.5 -17.5t56.5 -22.5z" />
    <glyph glyph-name="dieresis" unicode="&#xa8;" horiz-adv-x="475" 
d="M142 581q-32 0 -52.5 20.5t-20.5 52.5q0 31 21 52t52 21t52 -21t21 -52t-21 -52t-52 -21zM332 581q-32 0 -52.5 20.5t-20.5 52.5q0 31 21 52t52 21t52 -21t21 -52t-21 -52t-52 -21z" />
    <glyph glyph-name="copyright" unicode="&#xa9;" horiz-adv-x="844" 
d="M422 -12q-154 0 -258 104t-104 258t104 258t258 104t258 -104t104 -258t-104 -258t-258 -104zM422 74q117 0 193.5 79t76.5 197t-76.5 197t-193.5 79t-193.5 -79t-76.5 -197t76.5 -197t193.5 -79zM425 132q-49 0 -85.5 18.5t-56.5 51t-29.5 69.5t-9.5 79q0 86 45 152
t136 66q107 0 151 -93l-91 -43q-23 38 -60 38q-39 0 -57.5 -36.5t-18.5 -83.5t20 -83.5t56 -36.5q39 0 60 38l92 -32q-47 -104 -152 -104z" />
    <glyph glyph-name="ordfeminine" unicode="&#xaa;" horiz-adv-x="441" 
d="M281 283v30q-34 -40 -102 -40q-62 0 -103 36.5t-41 102.5q0 68 46 104t110 36q53 0 90 -20v20q0 67 -70 67q-65 0 -119 -42l-33 86q68 49 164 49q25 0 45 -3t43 -13t38.5 -27t26 -47t10.5 -71v-268h-105zM202 367q49 0 79 34v45q-33 14 -70 14q-72 0 -72 -48
q0 -21 16.5 -33t46.5 -12z" />
    <glyph glyph-name="guillemotleft" unicode="&#xab;" horiz-adv-x="562" 
d="M182 0l-152 256l152 255h140l-152 -255l152 -256h-140zM407 0l-152 256l152 255h140l-152 -255l152 -256h-140z" />
    <glyph glyph-name="logicalnot" unicode="&#xac;" horiz-adv-x="630" 
d="M420 161v193h-340v126h470v-319h-130z" />
    <glyph glyph-name="uni00AD" unicode="&#xad;" horiz-adv-x="412" 
d="M75 233v125h262v-125h-262z" />
    <glyph glyph-name="registered" unicode="&#xae;" horiz-adv-x="844" 
d="M422 -12q-154 0 -258 104t-104 258t104 258t258 104t258 -104t104 -258t-104 -258t-258 -104zM422 74q117 0 193.5 79t76.5 197t-76.5 197t-193.5 79t-193.5 -79t-76.5 -197t76.5 -197t193.5 -79zM271 139v422h179q75 0 107 -37.5t32 -94.5q0 -40 -21.5 -72.5
t-65.5 -47.5l97 -170h-108l-87 158h-31v-158h-102zM373 390h71q21 0 31 11.5t10 27.5q0 15 -9.5 27t-31.5 12h-71v-78z" />
    <glyph glyph-name="macron" unicode="&#xaf;" horiz-adv-x="475" 
d="M72 587v106h330v-106h-330z" />
    <glyph glyph-name="degree" unicode="&#xb0;" horiz-adv-x="412" 
d="M206 447q-76 0 -128.5 52t-52.5 128q0 75 52.5 126.5t128.5 51.5t128.5 -51.5t52.5 -126.5q0 -76 -52.5 -128t-128.5 -52zM206 559q27 0 44.5 19.5t17.5 48.5q0 28 -17.5 46.5t-44.5 18.5t-44.5 -18.5t-17.5 -46.5q0 -29 17.5 -48.5t44.5 -19.5z" />
    <glyph glyph-name="plusminus" unicode="&#xb1;" horiz-adv-x="630" 
d="M380 337v-145h-130v145h-170v126h170v145h130v-145h170v-126h-170zM80 0v126h470v-126h-470z" />
    <glyph glyph-name="uni00B2" unicode="&#xb2;" horiz-adv-x="370" 
d="M24 444q0 172 147 247l23.5 13.5t15.5 14t8 20.5q0 15 -10 24.5t-28 9.5q-42 0 -56 -49l-99 24q16 57 58.5 91t101.5 34q66 0 106.5 -36t40.5 -94q0 -26 -6.5 -45.5t-22 -35t-27.5 -24.5t-38 -24q-71 -44 -84 -68h177v-102h-307z" />
    <glyph glyph-name="uni00B3" unicode="&#xb3;" horiz-adv-x="355" 
d="M170 437q-59 0 -99.5 32t-58.5 91l101 26q13 -51 58 -51q20 0 31.5 11t11.5 29q0 40 -54 40h-38v92h37q41 0 41 34q0 15 -9 24.5t-26 9.5q-33 0 -47 -36l-92 34q19 47 58 73.5t90 26.5q61 0 97.5 -35t36.5 -85q0 -29 -15 -53t-38 -37q67 -25 67 -96q0 -58 -40 -94
t-112 -36z" />
    <glyph glyph-name="acute" unicode="&#xb4;" horiz-adv-x="475" 
d="M102 576l142 156h162l-178 -156h-126z" />
    <glyph glyph-name="uni00B5" unicode="&#xb5;" horiz-adv-x="596" 
d="M391 0v47q-32 -59 -107 -59q-49 0 -78 25v-152l-131 -61v711h130v-280q0 -61 21.5 -89.5t67.5 -28.5q97 0 97 116v282h130v-511h-130z" />
    <glyph glyph-name="paragraph" unicode="&#xb6;" horiz-adv-x="647" 
d="M234 -200v474q-105 3 -159.5 66.5t-54.5 144.5q0 90 56.5 152.5t176.5 62.5h314v-749l-130 -59v683h-73v-716z" />
    <glyph glyph-name="periodcentered" unicode="&#xb7;" horiz-adv-x="241" 
d="M120 267q-36 0 -60 24t-24 58t24 58.5t60 24.5t60.5 -24.5t24.5 -58.5t-24.5 -58t-60.5 -24z" />
    <glyph glyph-name="cedilla" unicode="&#xb8;" horiz-adv-x="475" 
d="M224 -244q-75 0 -110 47l56 42q14 -19 41 -19q48 0 48 39t-49 39q-23 0 -43 -14l-27 33l72 87h70l-35 -56q56 0 84.5 -25t28.5 -65q0 -48 -36 -78t-100 -30z" />
    <glyph glyph-name="uni00B9" unicode="&#xb9;" horiz-adv-x="224" 
d="M61 444v310h-51v83q58 0 74 29h87v-422h-110z" />
    <glyph glyph-name="ordmasculine" unicode="&#xba;" horiz-adv-x="465" 
d="M233 273q-88 0 -140.5 58.5t-52.5 160.5t52.5 161t140.5 59t140 -59t52 -161t-52 -160.5t-140 -58.5zM233 376q40 0 63 31t23 85q0 55 -23 86.5t-63 31.5q-41 0 -63.5 -31.5t-22.5 -86.5t22.5 -85.5t63.5 -30.5z" />
    <glyph glyph-name="guillemotright" unicode="&#xbb;" horiz-adv-x="562" 
d="M15 0l152 256l-152 255h140l152 -255l-152 -256h-140zM240 0l152 256l-152 255h140l152 -255l-152 -256h-140z" />
    <glyph glyph-name="onequarter" unicode="&#xbc;" horiz-adv-x="719" 
d="M14 -12l478 724h125l-478 -724h-125zM61 283v310h-51v83q57 0 74 29h87v-422h-110zM538 0v80h-205v72l207 270h100v-250h56v-92h-56v-80h-102zM538 172v116l-88 -116h88z" />
    <glyph glyph-name="onehalf" unicode="&#xbd;" horiz-adv-x="759" 
d="M14 -12l478 724h125l-478 -724h-125zM61 283v310h-51v83q57 0 74 29h87v-422h-110zM413 0q0 172 147 247q47 25 47 48q0 15 -10 24.5t-28 9.5q-42 0 -56 -49l-99 24q16 57 58 91t102 34q66 0 106.5 -36.5t40.5 -93.5q0 -28 -8 -49.5t-25.5 -38t-33 -26t-43.5 -24.5
q-55 -32 -68 -59h177v-102h-307z" />
    <glyph glyph-name="threequarters" unicode="&#xbe;" horiz-adv-x="836" 
d="M170 276q-59 0 -99.5 32t-58.5 91l101 26q13 -51 58 -51q20 0 31.5 11t11.5 29q0 40 -54 40h-38v92h37q41 0 41 34q0 15 -9 24.5t-26 9.5q-33 0 -47 -36l-92 34q19 47 58 73.5t90 26.5q61 0 97.5 -35.5t36.5 -84.5q0 -30 -15 -54t-38 -36q67 -25 67 -96q0 -58 -40 -94
t-112 -36zM131 -12l478 724h125l-478 -724h-125zM655 0v80h-205v72l207 270h100v-250h56v-92h-56v-80h-102zM655 172v116l-88 -116h88z" />
    <glyph glyph-name="questiondown" unicode="&#xbf;" horiz-adv-x="505" 
d="M260 358q-36 0 -60.5 24.5t-24.5 58.5t24.5 58t60.5 24t60 -24t24 -58t-24 -58.5t-60 -24.5zM252 -200q-103 0 -160 57t-57 146q0 46 16.5 80t40 55.5t47.5 41t40.5 46.5t16.5 62v35h130v-36q0 -51 -16.5 -90t-40 -61t-47.5 -41t-40.5 -41.5t-16.5 -50.5q0 -34 23 -56
t64 -22q50 0 76.5 30.5t26.5 87.5h130q0 -115 -64 -179t-169 -64z" />
    <glyph glyph-name="Agrave" unicode="&#xc0;" horiz-adv-x="732" 
d="M376 765l-178 156h162l142 -156h-126zM555 0l-54 145h-270l-54 -145h-145l268 700h132l268 -700h-145zM457 268l-69 182q-16 40 -22 63q-6 -23 -22 -63l-69 -182h182z" />
    <glyph glyph-name="Aacute" unicode="&#xc1;" horiz-adv-x="732" 
d="M231 765l142 156h162l-178 -156h-126zM555 0l-54 145h-270l-54 -145h-145l268 700h132l268 -700h-145zM457 268l-69 182q-16 40 -22 63q-6 -23 -22 -63l-69 -182h182z" />
    <glyph glyph-name="Acircumflex" unicode="&#xc2;" horiz-adv-x="732" 
d="M450 765l-84 69l-84 -69h-120l142 156h125l141 -156h-120zM555 0l-54 145h-270l-54 -145h-145l268 700h132l268 -700h-145zM457 268l-69 182q-16 40 -22 63q-6 -23 -22 -63l-69 -182h182z" />
    <glyph glyph-name="Atilde" unicode="&#xc3;" horiz-adv-x="732" 
d="M445 772q-38 0 -90.5 23t-74.5 23q-46 0 -47 -42h-61q0 138 115 138q39 0 90.5 -23t74.5 -23q46 0 47 42h61q0 -138 -115 -138zM555 0l-54 145h-270l-54 -145h-145l268 700h132l268 -700h-145zM457 268l-69 182q-16 40 -22 63q-6 -23 -22 -63l-69 -182h182z" />
    <glyph glyph-name="Adieresis" unicode="&#xc4;" horiz-adv-x="732" 
d="M271 770q-31 0 -52 21t-21 52t21 52t52 21t52 -21t21 -52t-21 -52t-52 -21zM461 770q-31 0 -52 21t-21 52t21 52t52 21t52 -21t21 -52t-21 -52t-52 -21zM555 0l-54 145h-270l-54 -145h-145l268 700h132l268 -700h-145zM457 268l-69 182q-16 40 -22 63q-6 -23 -22 -63
l-69 -182h182z" />
    <glyph glyph-name="Aring" unicode="&#xc5;" horiz-adv-x="732" 
d="M32 0l245 642q-41 38 -41 94q0 53 38.5 90.5t91.5 37.5t91.5 -37.5t38.5 -90.5q0 -58 -42 -94l246 -642h-145l-54 145h-270l-54 -145h-145zM366 696q16 0 27.5 11.5t11.5 28.5t-11.5 28.5t-27.5 11.5q-17 0 -28 -11.5t-11 -28.5t11 -28.5t28 -11.5zM275 268h182l-69 182
q-17 46 -22 63q-5 -17 -22 -63z" />
    <glyph glyph-name="AE" unicode="&#xc6;" horiz-adv-x="884" 
d="M-25 0l406 700h437v-128h-300v-147h159v-128h-159v-169h321v-128h-456v145h-181l-82 -145h-145zM274 268h109v200q-8 -21 -24 -50z" />
    <glyph glyph-name="Ccedilla" unicode="&#xc7;" horiz-adv-x="640" 
d="M341 -244q-75 0 -110 47l56 42q14 -19 41 -19q48 0 48 39t-49 39q-23 0 -43 -14l-27 33l56 68q-91 9 -151 66t-83.5 131t-23.5 162q0 64 16 124.5t49 115t92 88t137 33.5q94 0 158.5 -46t91.5 -112l-121 -55q-28 43 -57 63t-72 20q-55 0 -91.5 -37.5t-49.5 -87
t-13 -106.5q0 -91 39.5 -161t114.5 -70q73 0 127 90l124 -47q-65 -153 -213 -171l-23 -37q56 0 84.5 -25t28.5 -65q0 -48 -36 -78t-100 -30z" />
    <glyph glyph-name="Egrave" unicode="&#xc8;" horiz-adv-x="624" 
d="M317 765l-178 156h162l142 -156h-126zM80 0v700h478v-128h-343v-147h202v-128h-202v-169h364v-128h-499z" />
    <glyph glyph-name="Eacute" unicode="&#xc9;" horiz-adv-x="624" 
d="M208 765l142 156h162l-178 -156h-126zM80 0v700h478v-128h-343v-147h202v-128h-202v-169h364v-128h-499z" />
    <glyph glyph-name="Ecircumflex" unicode="&#xca;" horiz-adv-x="624" 
d="M411 765l-84 69l-84 -69h-120l142 156h125l141 -156h-120zM80 0v700h478v-128h-343v-147h202v-128h-202v-169h364v-128h-499z" />
    <glyph glyph-name="Edieresis" unicode="&#xcb;" horiz-adv-x="624" 
d="M232 770q-32 0 -52.5 21t-20.5 52t21 52t52 21t52 -21t21 -52t-21 -52t-52 -21zM422 770q-32 0 -52.5 21t-20.5 52t21 52t52 21t52 -21t21 -52t-21 -52t-52 -21zM80 0v700h478v-128h-343v-147h202v-128h-202v-169h364v-128h-499z" />
    <glyph glyph-name="Igrave" unicode="&#xcc;" horiz-adv-x="305" 
d="M163 765l-178 156h162l142 -156h-126zM85 0v700h135v-700h-135z" />
    <glyph glyph-name="Iacute" unicode="&#xcd;" horiz-adv-x="305" 
d="M28 765l142 156h162l-178 -156h-126zM85 0v700h135v-700h-135z" />
    <glyph glyph-name="Icircumflex" unicode="&#xce;" horiz-adv-x="305" 
d="M237 765l-84 69l-84 -69h-120l142 156h125l141 -156h-120zM85 0v700h135v-700h-135z" />
    <glyph glyph-name="Idieresis" unicode="&#xcf;" horiz-adv-x="305" 
d="M58 770q-32 0 -52.5 21t-20.5 52t21 52t52 21t52 -21t21 -52t-21 -52t-52 -21zM248 770q-32 0 -52.5 21t-20.5 52t21 52t52 21t52 -21t21 -52t-21 -52t-52 -21zM85 0v700h135v-700h-135z" />
    <glyph glyph-name="Eth" unicode="&#xd0;" horiz-adv-x="710" 
d="M80 287h-62v126h62v287h236q88 0 155.5 -29.5t106.5 -80.5t58 -111.5t19 -128.5q0 -50 -10.5 -98t-36.5 -94.5t-64 -81t-98 -55.5t-134 -21h-232v287zM328 128q95 0 141 66.5t46 155.5q0 91 -45 156.5t-131 65.5h-124v-159h143v-126h-143v-159h113z" />
    <glyph glyph-name="Ntilde" unicode="&#xd1;" horiz-adv-x="718" 
d="M448 772q-38 0 -90.5 23t-74.5 23q-46 0 -47 -42h-61q0 138 115 138q39 0 90.5 -23t74.5 -23q46 0 47 42h61q0 -138 -115 -138zM638 0h-120l-278 408q-14 21 -29 53q3 -25 3 -53v-408h-134v700h127l271 -403q17 -28 29 -53q-3 24 -3 53v403h134v-700z" />
    <glyph glyph-name="Ograve" unicode="&#xd2;" horiz-adv-x="727" 
d="M352 766l-178 156h162l142 -156h-126zM364 -12q-65 0 -118.5 21t-88 56.5t-58.5 82.5t-34 97.5t-10 104.5t10 104.5t34 97.5t58.5 82.5t88 56.5t118.5 21t118.5 -21t88 -56.5t58 -82.5t33.5 -97.5t10 -104.5t-10 -104.5t-33.5 -97.5t-58 -82.5t-88 -56.5t-118.5 -21z
M364 118q44 0 78 21.5t53 57t28 74.5t9 79q0 43 -9 82t-27.5 73.5t-52.5 55.5t-79 21t-79.5 -21.5t-53 -57t-27.5 -74t-9 -79.5q0 -58 15 -108t55 -87t99 -37z" />
    <glyph glyph-name="Oacute" unicode="&#xd3;" horiz-adv-x="727" 
d="M229 765l142 156h162l-178 -156h-126zM364 -12q-65 0 -118.5 21t-88 56.5t-58.5 82.5t-34 97.5t-10 104.5t10 104.5t34 97.5t58.5 82.5t88 56.5t118.5 21t118.5 -21t88 -56.5t58 -82.5t33.5 -97.5t10 -104.5t-10 -104.5t-33.5 -97.5t-58 -82.5t-88 -56.5t-118.5 -21z
M364 118q44 0 78 21.5t53 57t28 74.5t9 79q0 43 -9 82t-27.5 73.5t-52.5 55.5t-79 21t-79.5 -21.5t-53 -57t-27.5 -74t-9 -79.5q0 -58 15 -108t55 -87t99 -37z" />
    <glyph glyph-name="Ocircumflex" unicode="&#xd4;" horiz-adv-x="727" 
d="M448 765l-84 69l-84 -69h-120l142 156h125l141 -156h-120zM364 -12q-65 0 -118.5 21t-88 56.5t-58.5 82.5t-34 97.5t-10 104.5t10 104.5t34 97.5t58.5 82.5t88 56.5t118.5 21t118.5 -21t88 -56.5t58 -82.5t33.5 -97.5t10 -104.5t-10 -104.5t-33.5 -97.5t-58 -82.5
t-88 -56.5t-118.5 -21zM364 118q44 0 78 21.5t53 57t28 74.5t9 79q0 43 -9 82t-27.5 73.5t-52.5 55.5t-79 21t-79.5 -21.5t-53 -57t-27.5 -74t-9 -79.5q0 -58 15 -108t55 -87t99 -37z" />
    <glyph glyph-name="Otilde" unicode="&#xd5;" horiz-adv-x="727" 
d="M443 772q-38 0 -90.5 23t-74.5 23q-46 0 -47 -42h-61q0 138 115 138q39 0 90.5 -23t74.5 -23q46 0 47 42h61q0 -138 -115 -138zM364 -12q-65 0 -118.5 21t-88 56.5t-58.5 82.5t-34 97.5t-10 104.5t10 104.5t34 97.5t58.5 82.5t88 56.5t118.5 21t118.5 -21t88 -56.5
t58 -82.5t33.5 -97.5t10 -104.5t-10 -104.5t-33.5 -97.5t-58 -82.5t-88 -56.5t-118.5 -21zM364 118q44 0 78 21.5t53 57t28 74.5t9 79q0 43 -9 82t-27.5 73.5t-52.5 55.5t-79 21t-79.5 -21.5t-53 -57t-27.5 -74t-9 -79.5q0 -58 15 -108t55 -87t99 -37z" />
    <glyph glyph-name="Odieresis" unicode="&#xd6;" horiz-adv-x="727" 
d="M269 770q-31 0 -52 21t-21 52t21 52t52 21t52 -21t21 -52t-21 -52t-52 -21zM459 770q-31 0 -52 21t-21 52t21 52t52 21t52 -21t21 -52t-21 -52t-52 -21zM364 -12q-65 0 -118.5 21t-88 56.5t-58.5 82.5t-34 97.5t-10 104.5t10 104.5t34 97.5t58.5 82.5t88 56.5t118.5 21
t118.5 -21t88 -56.5t58 -82.5t33.5 -97.5t10 -104.5t-10 -104.5t-33.5 -97.5t-58 -82.5t-88 -56.5t-118.5 -21zM364 118q44 0 78 21.5t53 57t28 74.5t9 79q0 43 -9 82t-27.5 73.5t-52.5 55.5t-79 21t-79.5 -21.5t-53 -57t-27.5 -74t-9 -79.5q0 -58 15 -108t55 -87t99 -37z
" />
    <glyph glyph-name="multiply" unicode="&#xd7;" horiz-adv-x="630" 
d="M316 251l-148 -149l-94 95l148 147l-147 148l91 91l148 -147l147 148l95 -94l-149 -148l148 -147l-92 -92z" />
    <glyph glyph-name="Oslash" unicode="&#xd8;" horiz-adv-x="727" 
d="M55 -12l74 110q-74 101 -74 252q0 54 10 104.5t34 97.5t58.5 82.5t88 56.5t118.5 21q86 0 154 -38l26 38h128l-74 -110q74 -101 74 -252q0 -54 -10 -104.5t-33.5 -97.5t-58 -82.5t-88 -56.5t-118.5 -21q-90 0 -155 38l-26 -38h-128zM216 227l226 334q-34 21 -78 21
q-45 0 -79.5 -21.5t-53 -57t-27.5 -74t-9 -79.5q0 -68 21 -123zM364 118q44 0 78 21.5t53 57t28 74.5t9 79q0 68 -21 123l-226 -334q34 -21 79 -21z" />
    <glyph glyph-name="Ugrave" unicode="&#xd9;" horiz-adv-x="714" 
d="M367 765l-178 156h162l142 -156h-126zM357 -12q-56 0 -104.5 14.5t-89.5 46t-64.5 87.5t-23.5 132v432h135v-432q0 -83 37 -116.5t110 -33.5q72 0 109.5 33.5t37.5 116.5v432h135v-432q0 -145 -80 -212.5t-202 -67.5z" />
    <glyph glyph-name="Uacute" unicode="&#xda;" horiz-adv-x="714" 
d="M239 765l142 156h162l-178 -156h-126zM357 -12q-56 0 -104.5 14.5t-89.5 46t-64.5 87.5t-23.5 132v432h135v-432q0 -83 37 -116.5t110 -33.5q72 0 109.5 33.5t37.5 116.5v432h135v-432q0 -145 -80 -212.5t-202 -67.5z" />
    <glyph glyph-name="Ucircumflex" unicode="&#xdb;" horiz-adv-x="714" 
d="M441 765l-84 69l-84 -69h-120l142 156h125l141 -156h-120zM357 -12q-56 0 -104.5 14.5t-89.5 46t-64.5 87.5t-23.5 132v432h135v-432q0 -83 37 -116.5t110 -33.5q72 0 109.5 33.5t37.5 116.5v432h135v-432q0 -145 -80 -212.5t-202 -67.5z" />
    <glyph glyph-name="Udieresis" unicode="&#xdc;" horiz-adv-x="714" 
d="M262 770q-32 0 -52.5 21t-20.5 52t21 52t52 21t52 -21t21 -52t-21 -52t-52 -21zM452 770q-32 0 -52.5 21t-20.5 52t21 52t52 21t52 -21t21 -52t-21 -52t-52 -21zM357 -12q-56 0 -104.5 14.5t-89.5 46t-64.5 87.5t-23.5 132v432h135v-432q0 -83 37 -116.5t110 -33.5
q72 0 109.5 33.5t37.5 116.5v432h135v-432q0 -145 -80 -212.5t-202 -67.5z" />
    <glyph glyph-name="Yacute" unicode="&#xdd;" horiz-adv-x="692" 
d="M230 765l142 156h162l-178 -156h-126zM279 0v273l-259 427h153l173 -286l173 286h153l-259 -427v-273h-134z" />
    <glyph glyph-name="Thorn" unicode="&#xde;" horiz-adv-x="649" 
d="M80 0v700h135v-123h166q64 0 111.5 -19t74.5 -51t39.5 -70t12.5 -81q0 -88 -60 -154.5t-178 -66.5h-166v-135h-135zM386 263q47 0 70 27.5t23 65.5q0 37 -22 65t-71 28h-171v-186h171z" />
    <glyph glyph-name="germandbls" unicode="&#xdf;" horiz-adv-x="575" 
d="M65 -200v669q0 123 64 183t159 60t153 -50.5t58 -133.5q0 -104 -93 -143q61 -18 95 -63t34 -110q0 -106 -59 -165t-150 -59q-69 0 -107 23l58 95q19 -6 41 -6q35 0 61 30t26 80q0 47 -29.5 80.5t-86.5 33.5h-37v112h37q34 0 57 24t23 60q0 34 -21.5 57t-58.5 23
q-94 0 -94 -129v-610z" />
    <glyph glyph-name="agrave" unicode="&#xe0;" horiz-adv-x="558" 
d="M270 576l-178 156h162l142 -156h-126zM365 0v37q-49 -49 -132 -49t-135.5 44t-52.5 125q0 83 59.5 126t143.5 43q67 0 117 -24v26q0 81 -92 81q-84 0 -158 -51l-40 105q89 60 209 60q41 0 72.5 -7t65.5 -26t52.5 -60.5t18.5 -103.5v-326h-128zM258 102q61 0 107 42v55
q-42 17 -95 17q-44 0 -71 -14.5t-27 -44.5q0 -25 22.5 -40t63.5 -15z" />
    <glyph glyph-name="aacute" unicode="&#xe1;" horiz-adv-x="558" 
d="M172 576l142 156h162l-178 -156h-126zM365 0v37q-49 -49 -132 -49t-135.5 44t-52.5 125q0 83 59.5 126t143.5 43q67 0 117 -24v26q0 81 -92 81q-84 0 -158 -51l-40 105q89 60 209 60q41 0 72.5 -7t65.5 -26t52.5 -60.5t18.5 -103.5v-326h-128zM258 102q61 0 107 42v55
q-42 17 -95 17q-44 0 -71 -14.5t-27 -44.5q0 -25 22.5 -40t63.5 -15z" />
    <glyph glyph-name="acircumflex" unicode="&#xe2;" horiz-adv-x="558" 
d="M369 576l-84 69l-84 -69h-120l142 156h125l141 -156h-120zM365 0v37q-49 -49 -132 -49t-135.5 44t-52.5 125q0 83 59.5 126t143.5 43q67 0 117 -24v26q0 81 -92 81q-84 0 -158 -51l-40 105q89 60 209 60q41 0 72.5 -7t65.5 -26t52.5 -60.5t18.5 -103.5v-326h-128z
M258 102q61 0 107 42v55q-42 17 -95 17q-44 0 -71 -14.5t-27 -44.5q0 -25 22.5 -40t63.5 -15z" />
    <glyph glyph-name="atilde" unicode="&#xe3;" horiz-adv-x="558" 
d="M364 583q-38 0 -90.5 23t-74.5 23q-46 0 -47 -42h-61q0 138 115 138q39 0 90.5 -23t74.5 -23q46 0 47 42h61q0 -138 -115 -138zM365 0v37q-49 -49 -132 -49t-135.5 44t-52.5 125q0 83 59.5 126t143.5 43q67 0 117 -24v26q0 81 -92 81q-84 0 -158 -51l-40 105
q89 60 209 60q41 0 72.5 -7t65.5 -26t52.5 -60.5t18.5 -103.5v-326h-128zM258 102q61 0 107 42v55q-42 17 -95 17q-44 0 -71 -14.5t-27 -44.5q0 -25 22.5 -40t63.5 -15z" />
    <glyph glyph-name="adieresis" unicode="&#xe4;" horiz-adv-x="558" 
d="M190 581q-32 0 -52.5 20.5t-20.5 52.5q0 31 21 52t52 21t52 -21t21 -52t-21 -52t-52 -21zM380 581q-32 0 -52.5 20.5t-20.5 52.5q0 31 21 52t52 21t52 -21t21 -52t-21 -52t-52 -21zM365 0v37q-49 -49 -132 -49t-135.5 44t-52.5 125q0 83 59.5 126t143.5 43q67 0 117 -24
v26q0 81 -92 81q-84 0 -158 -51l-40 105q89 60 209 60q41 0 72.5 -7t65.5 -26t52.5 -60.5t18.5 -103.5v-326h-128zM258 102q61 0 107 42v55q-42 17 -95 17q-44 0 -71 -14.5t-27 -44.5q0 -25 22.5 -40t63.5 -15z" />
    <glyph glyph-name="aring" unicode="&#xe5;" horiz-adv-x="558" 
d="M285 560q-54 0 -92 38t-38 91q0 54 38 91t92 37t92 -37t38 -91q0 -53 -38 -91t-92 -38zM285 649q15 0 27 11.5t12 28.5t-12 28.5t-27 11.5q-17 0 -28 -11.5t-11 -28.5t11 -28.5t28 -11.5zM365 0v37q-49 -49 -132 -49t-135.5 44t-52.5 125q0 83 59.5 126t143.5 43
q67 0 117 -24v26q0 81 -92 81q-84 0 -158 -51l-40 105q89 60 209 60q41 0 72.5 -7t65.5 -26t52.5 -60.5t18.5 -103.5v-326h-128zM258 102q61 0 107 42v55q-42 17 -95 17q-44 0 -71 -14.5t-27 -44.5q0 -25 22.5 -40t63.5 -15z" />
    <glyph glyph-name="ae" unicode="&#xe6;" horiz-adv-x="856" 
d="M221 -12q-77 0 -126.5 44t-49.5 125q0 85 56 128t134 43q64 0 110 -24v24q0 81 -85 81q-77 0 -145 -51l-40 105q90 60 199 60q108 0 154 -56q56 56 156 56t163.5 -61.5t63.5 -179.5q0 -36 -7 -77h-331q4 -48 35.5 -75.5t75.5 -27.5q68 0 110 53l80 -81q-71 -86 -190 -86
t-181 82q-75 -82 -182 -82zM474 315h209q-6 45 -32.5 69.5t-66.5 24.5q-98 0 -110 -94zM249 102q58 0 96 42v55q-36 17 -85 17q-39 0 -63.5 -14.5t-24.5 -44.5q0 -25 20 -40t57 -15z" />
    <glyph glyph-name="ccedilla" unicode="&#xe7;" horiz-adv-x="547" 
d="M265 -244q-75 0 -110 47l56 42q14 -19 41 -19q48 0 48 39t-49 39q-23 0 -43 -14l-27 33l57 69q-88 14 -138 83t-50 180q0 124 63.5 196t169.5 72q165 0 213 -150l-124 -41q-25 66 -86 66q-47 0 -75.5 -39t-28.5 -104t28 -103.5t73 -38.5q67 0 90 74l124 -37
q-42 -147 -187 -161l-22 -35q56 0 84.5 -25t28.5 -65q0 -48 -36 -78t-100 -30z" />
    <glyph glyph-name="egrave" unicode="&#xe8;" horiz-adv-x="560" 
d="M299 576l-178 156h162l142 -156h-126zM289 -12q-111 0 -175 71t-64 197q0 123 64.5 195t174.5 72q100 0 163 -61.5t63 -179.5q0 -49 -4 -77h-333q4 -48 35.5 -75.5t75.5 -27.5q68 0 110 53l80 -81q-71 -86 -190 -86zM179 315h209q-6 44 -32.5 69t-66.5 25q-98 0 -110 -94
z" />
    <glyph glyph-name="eacute" unicode="&#xe9;" horiz-adv-x="560" 
d="M154 576l142 156h162l-178 -156h-126zM289 -12q-111 0 -175 71t-64 197q0 123 64.5 195t174.5 72q100 0 163 -61.5t63 -179.5q0 -49 -4 -77h-333q4 -48 35.5 -75.5t75.5 -27.5q68 0 110 53l80 -81q-71 -86 -190 -86zM179 315h209q-6 44 -32.5 69t-66.5 25q-98 0 -110 -94
z" />
    <glyph glyph-name="ecircumflex" unicode="&#xea;" horiz-adv-x="560" 
d="M373 576l-84 69l-84 -69h-120l142 156h125l141 -156h-120zM289 -12q-111 0 -175 71t-64 197q0 123 64.5 195t174.5 72q100 0 163 -61.5t63 -179.5q0 -49 -4 -77h-333q4 -48 35.5 -75.5t75.5 -27.5q68 0 110 53l80 -81q-71 -86 -190 -86zM179 315h209q-6 44 -32.5 69
t-66.5 25q-98 0 -110 -94z" />
    <glyph glyph-name="edieresis" unicode="&#xeb;" horiz-adv-x="560" 
d="M194 581q-32 0 -52.5 20.5t-20.5 52.5q0 31 21 52t52 21t52 -21t21 -52t-21 -52t-52 -21zM384 581q-32 0 -52.5 20.5t-20.5 52.5q0 31 21 52t52 21t52 -21t21 -52t-21 -52t-52 -21zM289 -12q-111 0 -175 71t-64 197q0 123 64.5 195t174.5 72q100 0 163 -61.5t63 -179.5
q0 -49 -4 -77h-333q4 -48 35.5 -75.5t75.5 -27.5q68 0 110 53l80 -81q-71 -86 -190 -86zM179 315h209q-6 44 -32.5 69t-66.5 25q-98 0 -110 -94z" />
    <glyph glyph-name="igrave" unicode="&#xec;" horiz-adv-x="282" 
d="M128 576l-178 156h162l142 -156h-126zM76 0v511h130v-511h-130z" />
    <glyph glyph-name="iacute" unicode="&#xed;" horiz-adv-x="282" 
d="M28 576l142 156h162l-178 -156h-126zM76 0v511h130v-511h-130z" />
    <glyph glyph-name="icircumflex" unicode="&#xee;" horiz-adv-x="282" 
d="M225 576l-84 69l-84 -69h-120l142 156h125l141 -156h-120zM76 0v511h130v-511h-130z" />
    <glyph glyph-name="idieresis" unicode="&#xef;" horiz-adv-x="282" 
d="M46 581q-32 0 -52.5 20.5t-20.5 52.5q0 31 21 52t52 21t52 -21t21 -52t-21 -52t-52 -21zM236 581q-32 0 -52.5 20.5t-20.5 52.5q0 31 21 52t52 21t52 -21t21 -52t-21 -52t-52 -21zM76 0v511h130v-511h-130z" />
    <glyph glyph-name="eth" unicode="&#xf0;" horiz-adv-x="570" 
d="M285 -12q-102 0 -168.5 66t-66.5 167q0 97 63.5 166t161.5 69q57 0 95 -30q-13 61 -64 109l-58 -60l-72 67l40 41q-39 11 -87 13v116q104 -3 176 -35l57 59l71 -68l-44 -46q66 -58 98.5 -150.5t32.5 -203.5q0 -123 -60 -201.5t-175 -78.5zM285 113q45 0 75 30.5t30 76.5
q0 50 -30 80.5t-76 30.5q-45 0 -74.5 -30.5t-29.5 -79.5q0 -46 30.5 -77t74.5 -31z" />
    <glyph glyph-name="ntilde" unicode="&#xf1;" 
d="M381 583q-38 0 -90.5 23t-74.5 23q-46 0 -47 -42h-61q0 138 115 138q39 0 90.5 -23t74.5 -23q46 0 47 42h61q0 -138 -115 -138zM391 0v280q0 62 -21.5 90t-67.5 28q-97 0 -97 -116v-282h-130v511h130v-48q49 60 137 60q76 0 127.5 -47.5t51.5 -153.5v-322h-130z" />
    <glyph glyph-name="ograve" unicode="&#xf2;" horiz-adv-x="570" 
d="M292 576l-178 156h162l142 -156h-126zM285 -12q-109 0 -172 71t-63 196q0 124 63.5 196t171.5 72t171.5 -72t63.5 -196q0 -125 -63 -196t-172 -71zM285 113q49 0 77 37.5t28 104.5t-28 105t-77 38q-48 0 -76.5 -38.5t-28.5 -104.5t28.5 -104t76.5 -38z" />
    <glyph glyph-name="oacute" unicode="&#xf3;" horiz-adv-x="570" 
d="M150 576l142 156h162l-178 -156h-126zM285 -12q-109 0 -172 71t-63 196q0 124 63.5 196t171.5 72t171.5 -72t63.5 -196q0 -125 -63 -196t-172 -71zM285 113q49 0 77 37.5t28 104.5t-28 105t-77 38q-48 0 -76.5 -38.5t-28.5 -104.5t28.5 -104t76.5 -38z" />
    <glyph glyph-name="ocircumflex" unicode="&#xf4;" horiz-adv-x="570" 
d="M369 576l-84 69l-84 -69h-120l142 156h125l141 -156h-120zM285 -12q-109 0 -172 71t-63 196q0 124 63.5 196t171.5 72t171.5 -72t63.5 -196q0 -125 -63 -196t-172 -71zM285 113q49 0 77 37.5t28 104.5t-28 105t-77 38q-48 0 -76.5 -38.5t-28.5 -104.5t28.5 -104t76.5 -38
z" />
    <glyph glyph-name="otilde" unicode="&#xf5;" horiz-adv-x="570" 
d="M364 583q-38 0 -90.5 23t-74.5 23q-46 0 -47 -42h-61q0 138 115 138q39 0 90.5 -23t74.5 -23q46 0 47 42h61q0 -138 -115 -138zM285 -12q-109 0 -172 71t-63 196q0 124 63.5 196t171.5 72t171.5 -72t63.5 -196q0 -125 -63 -196t-172 -71zM285 113q49 0 77 37.5t28 104.5
t-28 105t-77 38q-48 0 -76.5 -38.5t-28.5 -104.5t28.5 -104t76.5 -38z" />
    <glyph glyph-name="odieresis" unicode="&#xf6;" horiz-adv-x="570" 
d="M190 581q-32 0 -52.5 20.5t-20.5 52.5q0 31 21 52t52 21t52 -21t21 -52t-21 -52t-52 -21zM380 581q-32 0 -52.5 20.5t-20.5 52.5q0 31 21 52t52 21t52 -21t21 -52t-21 -52t-52 -21zM285 -12q-109 0 -172 71t-63 196q0 124 63.5 196t171.5 72t171.5 -72t63.5 -196
q0 -125 -63 -196t-172 -71zM285 113q49 0 77 37.5t28 104.5t-28 105t-77 38q-48 0 -76.5 -38.5t-28.5 -104.5t28.5 -104t76.5 -38z" />
    <glyph glyph-name="divide" unicode="&#xf7;" horiz-adv-x="630" 
d="M315 446q-33 0 -55.5 22t-22.5 54t22.5 54t55.5 22t55.5 -22t22.5 -54t-22.5 -54t-55.5 -22zM80 280v126h470v-126h-470zM315 88q-33 0 -55.5 22t-22.5 54t22.5 54t55.5 22t55.5 -22t22.5 -54t-22.5 -54t-55.5 -22z" />
    <glyph glyph-name="oslash" unicode="&#xf8;" horiz-adv-x="570" 
d="M521 523l-55 -83q54 -71 54 -185q0 -125 -63 -196t-172 -71q-59 0 -104 21l-14 -21h-117l54 82q-54 69 -54 185q0 124 63.5 196t171.5 72q60 0 105 -22l14 22h117zM180 255q0 -29 7 -59l131 197q-17 5 -33 5q-48 0 -76.5 -38.5t-28.5 -104.5zM390 255q0 35 -7 59
l-130 -196q17 -5 32 -5q49 0 77 37.5t28 104.5z" />
    <glyph glyph-name="ugrave" unicode="&#xf9;" 
d="M299 576l-178 156h162l142 -156h-126zM386 0v48q-48 -60 -137 -60q-75 0 -127 48t-52 153v322h130v-280q0 -61 21.5 -89.5t67.5 -28.5q97 0 97 116v282h130v-511h-130z" />
    <glyph glyph-name="uacute" unicode="&#xfa;" 
d="M154 576l142 156h162l-178 -156h-126zM386 0v48q-48 -60 -137 -60q-75 0 -127 48t-52 153v322h130v-280q0 -61 21.5 -89.5t67.5 -28.5q97 0 97 116v282h130v-511h-130z" />
    <glyph glyph-name="ucircumflex" unicode="&#xfb;" 
d="M373 576l-84 69l-84 -69h-120l142 156h125l141 -156h-120zM386 0v48q-48 -60 -137 -60q-75 0 -127 48t-52 153v322h130v-280q0 -61 21.5 -89.5t67.5 -28.5q97 0 97 116v282h130v-511h-130z" />
    <glyph glyph-name="udieresis" unicode="&#xfc;" 
d="M194 581q-32 0 -52.5 20.5t-20.5 52.5q0 31 21 52t52 21t52 -21t21 -52t-21 -52t-52 -21zM384 581q-32 0 -52.5 20.5t-20.5 52.5q0 31 21 52t52 21t52 -21t21 -52t-21 -52t-52 -21zM386 0v48q-48 -60 -137 -60q-75 0 -127 48t-52 153v322h130v-280q0 -61 21.5 -89.5
t67.5 -28.5q97 0 97 116v282h130v-511h-130z" />
    <glyph glyph-name="yacute" unicode="&#xfd;" horiz-adv-x="570" 
d="M150 576l142 156h162l-178 -156h-126zM139 -194l78 201l-192 504h133l112 -295q9 -22 15 -47q2 8 15 47l112 295h133l-271 -705h-135z" />
    <glyph glyph-name="thorn" unicode="&#xfe;" horiz-adv-x="571" 
d="M309 -12q-70 0 -109 49v-173l-130 -61v847l130 62v-238q39 49 110 49q97 0 154 -70t57 -198q0 -124 -59 -195.5t-153 -71.5zM289 113q49 0 75.5 37t26.5 105q0 66 -26.5 104.5t-75.5 38.5q-58 0 -89 -41v-202q26 -42 89 -42z" />
    <glyph glyph-name="ydieresis" unicode="&#xff;" horiz-adv-x="570" 
d="M190 581q-32 0 -52.5 20.5t-20.5 52.5q0 31 21 52t52 21t52 -21t21 -52t-21 -52t-52 -21zM380 581q-32 0 -52.5 20.5t-20.5 52.5q0 31 21 52t52 21t52 -21t21 -52t-21 -52t-52 -21zM139 -194l78 201l-192 504h133l112 -295q9 -22 15 -47q2 8 15 47l112 295h133l-271 -705
h-135z" />
    <glyph glyph-name="Amacron" unicode="&#x100;" horiz-adv-x="732" 
d="M201 776v106h330v-106h-330zM555 0l-54 145h-270l-54 -145h-145l268 700h132l268 -700h-145zM457 268l-69 182q-16 40 -22 63q-6 -23 -22 -63l-69 -182h182z" />
    <glyph glyph-name="amacron" unicode="&#x101;" horiz-adv-x="558" 
d="M120 587v106h330v-106h-330zM365 0v37q-49 -49 -132 -49t-135.5 44t-52.5 125q0 83 59.5 126t143.5 43q67 0 117 -24v26q0 81 -92 81q-84 0 -158 -51l-40 105q89 60 209 60q41 0 72.5 -7t65.5 -26t52.5 -60.5t18.5 -103.5v-326h-128zM258 102q61 0 107 42v55
q-42 17 -95 17q-44 0 -71 -14.5t-27 -44.5q0 -25 22.5 -40t63.5 -15z" />
    <glyph glyph-name="Abreve" unicode="&#x102;" horiz-adv-x="732" 
d="M366 761q-94 0 -142 48.5t-48 121.5h100q0 -31 22.5 -53.5t67.5 -22.5q44 0 67.5 22.5t23.5 53.5h100q0 -73 -49 -121.5t-142 -48.5zM555 0l-54 145h-270l-54 -145h-145l268 700h132l268 -700h-145zM457 268l-69 182q-16 40 -22 63q-6 -23 -22 -63l-69 -182h182z" />
    <glyph glyph-name="abreve" unicode="&#x103;" horiz-adv-x="558" 
d="M285 572q-94 0 -142 48.5t-48 121.5h100q0 -31 22.5 -53.5t67.5 -22.5q44 0 67.5 22.5t23.5 53.5h100q0 -73 -49 -121.5t-142 -48.5zM365 0v37q-49 -49 -132 -49t-135.5 44t-52.5 125q0 83 59.5 126t143.5 43q67 0 117 -24v26q0 81 -92 81q-84 0 -158 -51l-40 105
q89 60 209 60q41 0 72.5 -7t65.5 -26t52.5 -60.5t18.5 -103.5v-326h-128zM258 102q61 0 107 42v55q-42 17 -95 17q-44 0 -71 -14.5t-27 -44.5q0 -25 22.5 -40t63.5 -15z" />
    <glyph glyph-name="Aogonek" unicode="&#x104;" horiz-adv-x="732" 
d="M569 -244q-56 0 -90 29.5t-34 78.5q0 90 110 136l-54 145h-270l-54 -145h-145l268 700h132l268 -700q-62 0 -105.5 -39t-43.5 -86q0 -22 11 -33t27 -11q25 0 39 19l60 -43q-44 -51 -119 -51zM275 268h182l-69 182q-18 48 -22 63q-4 -15 -22 -63z" />
    <glyph glyph-name="aogonek" unicode="&#x105;" horiz-adv-x="558" 
d="M377 -244q-56 0 -90 29.5t-34 78.5q0 91 112 137v36q-49 -49 -132 -49t-135.5 44t-52.5 125q0 83 59.5 126t143.5 43q67 0 117 -24v26q0 81 -92 81q-84 0 -158 -51l-40 105q89 60 209 60q41 0 72.5 -7t65.5 -26t52.5 -60.5t18.5 -103.5v-326q-54 -16 -94 -49t-40 -76
q0 -44 38 -44q25 0 39 19l60 -43q-46 -51 -119 -51zM258 102q61 0 107 42v55q-42 17 -95 17q-44 0 -71 -14.5t-27 -44.5q0 -25 22.5 -40t63.5 -15z" />
    <glyph glyph-name="Cacute" unicode="&#x106;" horiz-adv-x="640" 
d="M234 765l142 156h162l-178 -156h-126zM349 -11q-79 0 -138 31.5t-92 85t-48.5 114.5t-15.5 130q0 64 16 124.5t49 115t92 88t137 33.5q94 0 158.5 -46t91.5 -112l-121 -55q-28 43 -57 63t-72 20q-55 0 -91.5 -37.5t-49.5 -87t-13 -106.5q0 -91 39.5 -161t114.5 -70
q73 0 127 90l124 -47q-78 -173 -251 -173z" />
    <glyph glyph-name="cacute" unicode="&#x107;" horiz-adv-x="547" 
d="M149 576l142 156h162l-178 -156h-126zM283 -12q-107 0 -170 71t-63 196q0 124 63.5 196t169.5 72q165 0 213 -150l-124 -41q-25 66 -86 66q-47 0 -75.5 -39t-28.5 -104t28 -103.5t73 -38.5q67 0 90 74l124 -37q-47 -162 -214 -162z" />
    <glyph glyph-name="Ccircumflex" unicode="&#x108;" horiz-adv-x="640" 
d="M434 765l-84 69l-84 -69h-120l142 156h125l141 -156h-120zM349 -11q-79 0 -138 31.5t-92 85t-48.5 114.5t-15.5 130q0 64 16 124.5t49 115t92 88t137 33.5q94 0 158.5 -46t91.5 -112l-121 -55q-28 43 -57 63t-72 20q-55 0 -91.5 -37.5t-49.5 -87t-13 -106.5
q0 -91 39.5 -161t114.5 -70q73 0 127 90l124 -47q-78 -173 -251 -173z" />
    <glyph glyph-name="ccircumflex" unicode="&#x109;" horiz-adv-x="547" 
d="M368 576l-84 69l-84 -69h-120l142 156h125l141 -156h-120zM283 -12q-107 0 -170 71t-63 196q0 124 63.5 196t169.5 72q165 0 213 -150l-124 -41q-25 66 -86 66q-47 0 -75.5 -39t-28.5 -104t28 -103.5t73 -38.5q67 0 90 74l124 -37q-47 -162 -214 -162z" />
    <glyph glyph-name="Cdotaccent" unicode="&#x10a;" horiz-adv-x="640" 
d="M350 770q-32 0 -52.5 21t-20.5 52t21 52t52 21t52 -21t21 -52t-21 -52t-52 -21zM349 -11q-79 0 -138 31.5t-92 85t-48.5 114.5t-15.5 130q0 64 16 124.5t49 115t92 88t137 33.5q94 0 158.5 -46t91.5 -112l-121 -55q-28 43 -57 63t-72 20q-55 0 -91.5 -37.5t-49.5 -87
t-13 -106.5q0 -91 39.5 -161t114.5 -70q73 0 127 90l124 -47q-78 -173 -251 -173z" />
    <glyph glyph-name="cdotaccent" unicode="&#x10b;" horiz-adv-x="547" 
d="M284 581q-32 0 -52.5 20.5t-20.5 52.5q0 31 21 52t52 21t52 -21t21 -52t-21 -52t-52 -21zM283 -12q-107 0 -170 71t-63 196q0 124 63.5 196t169.5 72q165 0 213 -150l-124 -41q-25 66 -86 66q-47 0 -75.5 -39t-28.5 -104t28 -103.5t73 -38.5q67 0 90 74l124 -37
q-47 -162 -214 -162z" />
    <glyph glyph-name="Ccaron" unicode="&#x10c;" horiz-adv-x="640" 
d="M412 765h-125l-141 156h120l84 -69l84 69h120zM349 -11q-79 0 -138 31.5t-92 85t-48.5 114.5t-15.5 130q0 64 16 124.5t49 115t92 88t137 33.5q94 0 158.5 -46t91.5 -112l-121 -55q-28 43 -57 63t-72 20q-55 0 -91.5 -37.5t-49.5 -87t-13 -106.5q0 -91 39.5 -161
t114.5 -70q73 0 127 90l124 -47q-78 -173 -251 -173z" />
    <glyph glyph-name="ccaron" unicode="&#x10d;" horiz-adv-x="547" 
d="M346 576h-125l-141 156h120l84 -69l84 69h120zM283 -12q-107 0 -170 71t-63 196q0 124 63.5 196t169.5 72q165 0 213 -150l-124 -41q-25 66 -86 66q-47 0 -75.5 -39t-28.5 -104t28 -103.5t73 -38.5q67 0 90 74l124 -37q-47 -162 -214 -162z" />
    <glyph glyph-name="Dcaron" unicode="&#x10e;" horiz-adv-x="710" 
d="M383 765h-125l-141 156h120l84 -69l84 69h120zM80 700h236q88 0 155.5 -29.5t106.5 -80.5t58 -111.5t19 -128.5q0 -50 -10.5 -98t-36.5 -94.5t-64 -81t-98 -55.5t-134 -21h-232v700zM328 128q95 0 141 66.5t46 155.5q0 91 -45 156.5t-131 65.5h-124v-444h113z" />
    <glyph glyph-name="dcaron" unicode="&#x10f;" horiz-adv-x="753" 
d="M261 -12q-98 0 -154.5 70t-56.5 198q0 122 59.5 194.5t152.5 72.5q70 0 109 -49v189l130 59v-722h-130v37q-33 -49 -110 -49zM728 712v-8q0 -146 -110 -251l-42 32q13 27 22 91.5t9 135.5h121zM282 113q60 0 89 41v202q-31 42 -89 42q-49 0 -75.5 -36.5t-26.5 -105.5
q0 -67 26.5 -105t75.5 -38z" />
    <glyph glyph-name="Dcroat" unicode="&#x110;" horiz-adv-x="710" 
d="M80 287h-62v126h62v287h236q88 0 155.5 -29.5t106.5 -80.5t58 -111.5t19 -128.5q0 -50 -10.5 -98t-36.5 -94.5t-64 -81t-98 -55.5t-134 -21h-232v287zM328 128q95 0 141 66.5t46 155.5q0 91 -45 156.5t-131 65.5h-124v-159h143v-126h-143v-159h113z" />
    <glyph glyph-name="dcroat" unicode="&#x111;" horiz-adv-x="576" 
d="M501 537v-537h-130v37q-33 -49 -110 -49q-97 0 -154 67t-57 185q0 112 60 181.5t152 69.5q70 0 109 -49v95h-116v100h116v26l130 59v-85h65v-100h-65zM282 113q60 0 89 41v170q-26 42 -89 42q-47 0 -74.5 -34.5t-27.5 -91.5q0 -56 26.5 -91.5t75.5 -35.5z" />
    <glyph glyph-name="Emacron" unicode="&#x112;" horiz-adv-x="624" 
d="M162 776v106h330v-106h-330zM80 0v700h478v-128h-343v-147h202v-128h-202v-169h364v-128h-499z" />
    <glyph glyph-name="emacron" unicode="&#x113;" horiz-adv-x="560" 
d="M124 587v106h330v-106h-330zM289 -12q-111 0 -175 71t-64 197q0 123 64.5 195t174.5 72q100 0 163 -61.5t63 -179.5q0 -49 -4 -77h-333q4 -48 35.5 -75.5t75.5 -27.5q68 0 110 53l80 -81q-71 -86 -190 -86zM179 315h209q-6 44 -32.5 69t-66.5 25q-98 0 -110 -94z" />
    <glyph glyph-name="Ebreve" unicode="&#x114;" horiz-adv-x="624" 
d="M327 761q-94 0 -142 48.5t-48 121.5h100q0 -31 22.5 -53.5t67.5 -22.5q44 0 67.5 22.5t23.5 53.5h100q0 -73 -49 -121.5t-142 -48.5zM80 0v700h478v-128h-343v-147h202v-128h-202v-169h364v-128h-499z" />
    <glyph glyph-name="ebreve" unicode="&#x115;" horiz-adv-x="560" 
d="M289 572q-94 0 -142 48.5t-48 121.5h100q0 -31 22.5 -53.5t67.5 -22.5q44 0 67.5 22.5t23.5 53.5h100q0 -73 -49 -121.5t-142 -48.5zM289 -12q-111 0 -175 71t-64 197q0 123 64.5 195t174.5 72q100 0 163 -61.5t63 -179.5q0 -49 -4 -77h-333q4 -48 35.5 -75.5t75.5 -27.5
q68 0 110 53l80 -81q-71 -86 -190 -86zM179 315h209q-6 44 -32.5 69t-66.5 25q-98 0 -110 -94z" />
    <glyph glyph-name="Edotaccent" unicode="&#x116;" horiz-adv-x="624" 
d="M327 770q-31 0 -52 21t-21 52t21 52t52 21t52 -21t21 -52t-21 -52t-52 -21zM80 0v700h478v-128h-343v-147h202v-128h-202v-169h364v-128h-499z" />
    <glyph glyph-name="edotaccent" unicode="&#x117;" horiz-adv-x="560" 
d="M289 581q-31 0 -52 20.5t-21 52.5q0 31 21 52t52 21t52 -21t21 -52t-21 -52t-52 -21zM289 -12q-111 0 -175 71t-64 197q0 123 64.5 195t174.5 72q100 0 163 -61.5t63 -179.5q0 -49 -4 -77h-333q4 -48 35.5 -75.5t75.5 -27.5q68 0 110 53l80 -81q-71 -86 -190 -86z
M179 315h209q-6 44 -32.5 69t-66.5 25q-98 0 -110 -94z" />
    <glyph glyph-name="Eogonek" unicode="&#x118;" horiz-adv-x="624" 
d="M431 -244q-57 0 -90.5 29.5t-33.5 78.5q0 90 110 136h-337v700h478v-128h-343v-147h202v-128h-202v-169h364v-128h-23q-61 0 -102 -40.5t-41 -84.5t38 -44q25 0 39 19l60 -43q-46 -51 -119 -51z" />
    <glyph glyph-name="eogonek" unicode="&#x119;" horiz-adv-x="560" 
d="M296 -244q-57 0 -90.5 29.5t-33.5 78.5q0 78 92 125q-101 8 -157.5 79t-56.5 188q0 123 64.5 195t174.5 72q100 0 163 -61.5t63 -179.5q0 -49 -4 -77h-333q4 -48 35.5 -75.5t75.5 -27.5q68 0 110 53l80 -81q-27 -33 -99 -76q-35 -21 -52 -33t-33.5 -36.5t-16.5 -53.5
q0 -44 38 -44q25 0 39 19l60 -43q-46 -51 -119 -51zM289 409q-98 0 -110 -94h209q-6 44 -32.5 69t-66.5 25z" />
    <glyph glyph-name="Ecaron" unicode="&#x11a;" horiz-adv-x="624" 
d="M389 765h-125l-141 156h120l84 -69l84 69h120zM80 0v700h478v-128h-343v-147h202v-128h-202v-169h364v-128h-499z" />
    <glyph glyph-name="ecaron" unicode="&#x11b;" horiz-adv-x="560" 
d="M351 576h-125l-141 156h120l84 -69l84 69h120zM289 -12q-111 0 -175 71t-64 197q0 123 64.5 195t174.5 72q100 0 163 -61.5t63 -179.5q0 -49 -4 -77h-333q4 -48 35.5 -75.5t75.5 -27.5q68 0 110 53l80 -81q-71 -86 -190 -86zM179 315h209q-6 44 -32.5 69t-66.5 25
q-98 0 -110 -94z" />
    <glyph glyph-name="Gcircumflex" unicode="&#x11c;" horiz-adv-x="673" 
d="M447 765l-84 69l-84 -69h-120l142 156h125l141 -156h-120zM363 -12q-78 0 -138.5 30.5t-97 82.5t-54.5 115t-18 134q0 66 19 128.5t55.5 115.5t97 85.5t136.5 32.5q93 0 150.5 -40.5t100.5 -109.5l-119 -68q-58 88 -132 88q-46 0 -80.5 -21.5t-52.5 -57t-26.5 -74
t-8.5 -79.5q0 -98 42 -165t126 -67q51 0 86.5 33t35.5 80v8h-119v128h257v-103q0 -130 -73 -203t-187 -73z" />
    <glyph glyph-name="gcircumflex" unicode="&#x11d;" horiz-adv-x="576" 
d="M381 576l-84 69l-84 -69h-120l142 156h125l141 -156h-120zM260 -200l-72 108q106 8 144.5 29.5t38.5 75.5v14q-39 -39 -110 -39q-95 0 -153 69.5t-58 198.5q0 122 58.5 194.5t153.5 72.5q68 0 109 -39v27h130v-442q0 -137 -50.5 -197.5t-190.5 -71.5zM282 113q59 0 89 41
v202q-35 42 -89 42q-49 0 -75.5 -36.5t-26.5 -105.5q0 -65 26 -104t76 -39z" />
    <glyph glyph-name="Gbreve" unicode="&#x11e;" horiz-adv-x="673" 
d="M363 761q-94 0 -142 48.5t-48 121.5h100q0 -31 22.5 -53.5t67.5 -22.5q44 0 67.5 22.5t23.5 53.5h100q0 -73 -49 -121.5t-142 -48.5zM363 -12q-78 0 -138.5 30.5t-97 82.5t-54.5 115t-18 134q0 66 19 128.5t55.5 115.5t97 85.5t136.5 32.5q93 0 150.5 -40.5t100.5 -109.5
l-119 -68q-58 88 -132 88q-46 0 -80.5 -21.5t-52.5 -57t-26.5 -74t-8.5 -79.5q0 -98 42 -165t126 -67q51 0 86.5 33t35.5 80v8h-119v128h257v-103q0 -130 -73 -203t-187 -73z" />
    <glyph glyph-name="gbreve" unicode="&#x11f;" horiz-adv-x="576" 
d="M297 572q-94 0 -142 48.5t-48 121.5h100q0 -31 22.5 -53.5t67.5 -22.5q44 0 67.5 22.5t23.5 53.5h100q0 -73 -49 -121.5t-142 -48.5zM260 -200l-72 108q106 8 144.5 29.5t38.5 75.5v14q-39 -39 -110 -39q-95 0 -153 69.5t-58 198.5q0 122 58.5 194.5t153.5 72.5
q68 0 109 -39v27h130v-442q0 -137 -50.5 -197.5t-190.5 -71.5zM282 113q59 0 89 41v202q-35 42 -89 42q-49 0 -75.5 -36.5t-26.5 -105.5q0 -65 26 -104t76 -39z" />
    <glyph glyph-name="Gdotaccent" unicode="&#x120;" horiz-adv-x="673" 
d="M365 770q-31 0 -52 21t-21 52t21 52t52 21t52 -21t21 -52t-21 -52t-52 -21zM363 -12q-78 0 -138.5 30.5t-97 82.5t-54.5 115t-18 134q0 66 19 128.5t55.5 115.5t97 85.5t136.5 32.5q93 0 150.5 -40.5t100.5 -109.5l-119 -68q-58 88 -132 88q-46 0 -80.5 -21.5t-52.5 -57
t-26.5 -74t-8.5 -79.5q0 -98 42 -165t126 -67q51 0 86.5 33t35.5 80v8h-119v128h257v-103q0 -130 -73 -203t-187 -73z" />
    <glyph glyph-name="gdotaccent" unicode="&#x121;" horiz-adv-x="576" 
d="M297 581q-31 0 -52 20.5t-21 52.5q0 31 21 52t52 21t52 -21t21 -52t-21 -52t-52 -21zM260 -200l-72 108q106 8 144.5 29.5t38.5 75.5v14q-39 -39 -110 -39q-95 0 -153 69.5t-58 198.5q0 122 58.5 194.5t153.5 72.5q68 0 109 -39v27h130v-442q0 -137 -50.5 -197.5
t-190.5 -71.5zM282 113q59 0 89 41v202q-35 42 -89 42q-49 0 -75.5 -36.5t-26.5 -105.5q0 -65 26 -104t76 -39z" />
    <glyph glyph-name="Gcommaaccent" unicode="&#x122;" horiz-adv-x="673" 
d="M363 -12q-78 0 -138.5 30.5t-97 82.5t-54.5 115t-18 134q0 66 19 128.5t55.5 115.5t97 85.5t136.5 32.5q93 0 150.5 -40.5t100.5 -109.5l-119 -68q-58 88 -132 88q-46 0 -80.5 -21.5t-52.5 -57t-26.5 -74t-8.5 -79.5q0 -98 42 -165t126 -67q51 0 86.5 33t35.5 80v8h-119
v128h257v-103q0 -130 -73 -203t-187 -73zM304 -252q39 39 50 74q-27 0 -46 18.5t-19 48.5q0 33 21 54.5t53 21.5q35 0 56 -21.5t21 -60.5q0 -48 -21.5 -86.5t-69.5 -77.5z" />
    <glyph glyph-name="gcommaaccent" unicode="&#x123;" horiz-adv-x="576" 
d="M298 581q-35 0 -56 21.5t-21 60.5q0 89 91 164l45 -29q-39 -39 -50 -74q27 0 46 -18.5t19 -48.5q0 -33 -21.5 -54.5t-52.5 -21.5zM260 -200l-72 108q106 8 144.5 29.5t38.5 75.5v14q-39 -39 -110 -39q-95 0 -153 69.5t-58 198.5q0 122 58.5 194.5t153.5 72.5
q68 0 109 -39v27h130v-442q0 -137 -50.5 -197.5t-190.5 -71.5zM282 113q59 0 89 41v202q-35 42 -89 42q-49 0 -75.5 -36.5t-26.5 -105.5q0 -65 26 -104t76 -39z" />
    <glyph glyph-name="Hcircumflex" unicode="&#x124;" horiz-adv-x="723" 
d="M446 765l-84 69l-84 -69h-120l142 156h125l141 -156h-120zM508 0v296h-293v-296h-135v700h135v-276h293v276h135v-700h-135z" />
    <glyph glyph-name="hcircumflex" unicode="&#x125;" 
d="M386 765l-84 69l-84 -69h-120l142 156h125l141 -156h-120zM75 0v662l130 60v-259q49 60 137 60q76 0 127.5 -47.5t51.5 -153.5v-322h-130v285q0 113 -89 113q-97 0 -97 -111v-287h-130z" />
    <glyph glyph-name="Hbar" unicode="&#x126;" horiz-adv-x="723" 
d="M508 0v296h-293v-296h-135v497h-80v128h80v75h135v-75h293v75h135v-75h80v-128h-80v-497h-135zM508 424v73h-293v-73h293z" />
    <glyph glyph-name="hbar" unicode="&#x127;" 
d="M75 0v537h-57v100h57v25l130 60v-85h132v-100h-132v-104q49 60 137 60q76 0 127.5 -48t51.5 -153v-292h-130v270q0 49 -24.5 73.5t-64.5 24.5q-43 0 -70 -23.5t-27 -72.5v-272h-130z" />
    <glyph glyph-name="Itilde" unicode="&#x128;" horiz-adv-x="305" 
d="M232 772q-38 0 -90.5 23t-74.5 23q-46 0 -47 -42h-61q0 138 115 138q39 0 90.5 -23t74.5 -23q46 0 47 42h61q0 -138 -115 -138zM85 0v700h135v-700h-135z" />
    <glyph glyph-name="itilde" unicode="&#x129;" horiz-adv-x="282" 
d="M220 583q-38 0 -90.5 23t-74.5 23q-46 0 -47 -42h-61q0 138 115 138q39 0 90.5 -23t74.5 -23q46 0 47 42h61q0 -138 -115 -138zM76 0v511h130v-511h-130z" />
    <glyph glyph-name="Imacron" unicode="&#x12a;" horiz-adv-x="305" 
d="M-12 776v106h330v-106h-330zM85 0v700h135v-700h-135z" />
    <glyph glyph-name="imacron" unicode="&#x12b;" horiz-adv-x="282" 
d="M-24 587v106h330v-106h-330zM76 0v511h130v-511h-130z" />
    <glyph glyph-name="Ibreve" unicode="&#x12c;" horiz-adv-x="305" 
d="M153 761q-94 0 -142 48.5t-48 121.5h100q0 -31 22.5 -53.5t67.5 -22.5q44 0 67.5 22.5t23.5 53.5h100q0 -73 -49 -121.5t-142 -48.5zM85 0v700h135v-700h-135z" />
    <glyph glyph-name="ibreve" unicode="&#x12d;" horiz-adv-x="282" 
d="M141 572q-94 0 -142 48.5t-48 121.5h100q0 -31 22.5 -53.5t67.5 -22.5q44 0 67.5 22.5t23.5 53.5h100q0 -73 -49 -121.5t-142 -48.5zM76 0v511h130v-511h-130z" />
    <glyph glyph-name="Iogonek" unicode="&#x12e;" horiz-adv-x="305" 
d="M99 -244q-57 0 -90.5 29.5t-33.5 78.5q0 90 110 136v700h135v-700q-60 -11 -99.5 -45t-39.5 -80q0 -44 38 -44q25 0 39 19l60 -43q-46 -51 -119 -51z" />
    <glyph glyph-name="iogonek" unicode="&#x12f;" horiz-adv-x="276" 
d="M138 571q-31 0 -53.5 22.5t-22.5 53.5t22.5 53t53.5 22q32 0 54 -21.5t22 -53.5t-22 -54t-54 -22zM86 -244q-57 0 -90.5 29.5t-33.5 78.5q0 91 111 136v511h130v-511q-69 -17 -102 -52t-33 -73q0 -44 38 -44q25 0 39 19l60 -43q-46 -51 -119 -51z" />
    <glyph glyph-name="Idotaccent" unicode="&#x130;" horiz-adv-x="305" 
d="M153 770q-31 0 -52 21t-21 52t21 52t52 21t52 -21t21 -52t-21 -52t-52 -21zM85 0v700h135v-700h-135z" />
    <glyph glyph-name="dotlessi" unicode="&#x131;" horiz-adv-x="282" 
d="M76 0v511h130v-511h-130z" />
    <glyph glyph-name="IJ" unicode="&#x132;" horiz-adv-x="890" 
d="M85 0v700h135v-700h-135zM575 -12q-76 0 -139 40.5t-96 113.5l118 55q42 -79 117 -79q105 0 105 137v445h135v-457q0 -71 -21.5 -123.5t-58.5 -79.5t-76.5 -39.5t-83.5 -12.5z" />
    <glyph glyph-name="ij" unicode="&#x133;" horiz-adv-x="564" 
d="M141 571q-31 0 -53.5 22.5t-22.5 53.5t22 53t54 22t54 -21.5t22 -53.5t-22 -54t-54 -22zM423 571q-31 0 -53.5 22.5t-22.5 53.5t22 53t54 22t54 -21.5t22 -53.5t-22 -54t-54 -22zM76 0v511h130v-511h-130zM281 -214l-66 103q81 18 112 41t31 66v515h130v-483
q0 -110 -50 -162q-53 -57 -157 -80z" />
    <glyph glyph-name="Jcircumflex" unicode="&#x134;" horiz-adv-x="565" 
d="M507 765l-84 69l-84 -69h-120l142 156h125l141 -156h-120zM250 -12q-76 0 -139 40.5t-96 113.5l118 55q42 -79 117 -79q105 0 105 137v445h135v-457q0 -71 -21.5 -123.5t-58.5 -79.5t-76.5 -39.5t-83.5 -12.5z" />
    <glyph glyph-name="jcircumflex" unicode="&#x135;" horiz-adv-x="282" 
d="M225 576l-84 69l-84 -69h-120l142 156h125l141 -156h-120zM-1 -214l-66 103q81 18 112 41t31 66v515h130v-483q0 -110 -50 -162q-53 -57 -157 -80z" />
    <glyph glyph-name="Kcommaaccent" unicode="&#x136;" horiz-adv-x="713" 
d="M525 0l-180 335l-130 -160v-175h-135v700h135v-334l265 334h160l-204 -251l247 -449h-158zM296 -252q39 39 50 74q-27 0 -46 18.5t-19 48.5q0 33 21 54.5t53 21.5q35 0 56 -21.5t21 -60.5q0 -48 -21.5 -86.5t-69.5 -77.5z" />
    <glyph glyph-name="kcommaaccent" unicode="&#x137;" horiz-adv-x="566" 
d="M536 0h-142l-141 270l-48 -46v-224h-130v661l130 61v-350l137 139h156l-150 -148zM222 -252q39 39 50 74q-27 0 -46 18.5t-19 48.5q0 33 21 54.5t53 21.5q35 0 56 -21.5t21 -60.5q0 -48 -21.5 -86.5t-69.5 -77.5z" />
    <glyph glyph-name="kgreenlandic" unicode="&#x138;" horiz-adv-x="548" 
d="M375 0l-116 216l-54 -65v-151h-130v511h130v-190l152 190h142l-155 -191l174 -320h-143z" />
    <glyph glyph-name="Lacute" unicode="&#x139;" horiz-adv-x="568" 
d="M34 765l142 156h162l-178 -156h-126zM80 0v700h135v-570h338v-130h-473z" />
    <glyph glyph-name="lacute" unicode="&#x13a;" horiz-adv-x="290" 
d="M10 756l142 156h162l-178 -156h-126zM80 0v661l130 61v-722h-130z" />
    <glyph glyph-name="Lcommaaccent" unicode="&#x13b;" horiz-adv-x="568" 
d="M80 0v700h135v-570h338v-130h-473zM254 -252q39 39 50 74q-27 0 -46 18.5t-19 48.5q0 33 21 54.5t53 21.5q35 0 56 -21.5t21 -60.5q0 -48 -21.5 -86.5t-69.5 -77.5z" />
    <glyph glyph-name="lcommaaccent" unicode="&#x13c;" horiz-adv-x="290" 
d="M80 0v661l130 61v-722h-130zM84 -252q39 39 50 74q-27 0 -46 18.5t-19 48.5q0 33 21 54.5t53 21.5q35 0 56 -21.5t21 -60.5q0 -48 -21.5 -86.5t-69.5 -77.5z" />
    <glyph glyph-name="Lcaron" unicode="&#x13d;" horiz-adv-x="568" 
d="M209 765h-125l-141 156h120l84 -69l84 69h120zM80 0v700h135v-570h338v-130h-473z" />
    <glyph glyph-name="lcaron" unicode="&#x13e;" horiz-adv-x="446" 
d="M80 0v661l130 61v-722h-130zM421 712v-8q0 -146 -110 -251l-42 32q13 27 22 91.5t9 135.5h121z" />
    <glyph glyph-name="Ldot" unicode="&#x13f;" horiz-adv-x="568" 
d="M80 0v700h135v-570h338v-130h-473zM431 267q-36 0 -60 24t-24 58t24 58.5t60 24.5t60.5 -24.5t24.5 -58.5t-24.5 -58t-60.5 -24z" />
    <glyph glyph-name="ldot" unicode="&#x140;" horiz-adv-x="417" 
d="M80 0v661l130 61v-722h-130zM353 234q-36 0 -60 24t-24 58t24 58.5t60 24.5t60.5 -24.5t24.5 -58.5t-24.5 -58t-60.5 -24z" />
    <glyph glyph-name="Lslash" unicode="&#x141;" horiz-adv-x="568" 
d="M80 0v209l-66 -51v148l66 50v344h135v-243l145 110v-147l-145 -109v-181h338v-130h-473z" />
    <glyph glyph-name="lslash" unicode="&#x142;" horiz-adv-x="290" 
d="M79 0v209l-55 -42v129l55 42v323l130 61v-285l57 43v-129l-57 -43v-308h-130z" />
    <glyph glyph-name="Nacute" unicode="&#x143;" horiz-adv-x="718" 
d="M270 766l142 156h162l-178 -156h-126zM638 0h-120l-278 408q-14 21 -29 53q3 -25 3 -53v-408h-134v700h127l271 -403q17 -28 29 -53q-3 24 -3 53v403h134v-700z" />
    <glyph glyph-name="nacute" unicode="&#x144;" 
d="M167 576l142 156h162l-178 -156h-126zM391 0v280q0 62 -21.5 90t-67.5 28q-97 0 -97 -116v-282h-130v511h130v-48q49 60 137 60q76 0 127.5 -47.5t51.5 -153.5v-322h-130z" />
    <glyph glyph-name="Ncommaaccent" unicode="&#x145;" horiz-adv-x="718" 
d="M638 0h-120l-278 408q-14 21 -29 53q3 -25 3 -53v-408h-134v700h127l271 -403q17 -28 29 -53q-3 24 -3 53v403h134v-700zM298 -252q39 39 50 74q-27 0 -46 18.5t-19 48.5q0 33 21 54.5t53 21.5q35 0 56 -21.5t21 -60.5q0 -48 -21.5 -86.5t-69.5 -77.5z" />
    <glyph glyph-name="ncommaaccent" unicode="&#x146;" 
d="M391 0v280q0 62 -21.5 90t-67.5 28q-97 0 -97 -116v-282h-130v511h130v-48q49 60 137 60q76 0 127.5 -47.5t51.5 -153.5v-322h-130zM235 -252q39 39 50 74q-27 0 -46 18.5t-19 48.5q0 33 21 54.5t53 21.5q35 0 56 -21.5t21 -60.5q0 -48 -21.5 -86.5t-69.5 -77.5z" />
    <glyph glyph-name="Ncaron" unicode="&#x147;" horiz-adv-x="718" 
d="M431 765h-125l-141 156h120l84 -69l84 69h120zM638 0h-120l-278 408q-14 21 -29 53q3 -25 3 -53v-408h-134v700h127l271 -403q17 -28 29 -53q-3 24 -3 53v403h134v-700z" />
    <glyph glyph-name="ncaron" unicode="&#x148;" 
d="M364 576h-125l-141 156h120l84 -69l84 69h120zM391 0v280q0 62 -21.5 90t-67.5 28q-97 0 -97 -116v-282h-130v511h130v-48q49 60 137 60q76 0 127.5 -47.5t51.5 -153.5v-322h-130z" />
    <glyph glyph-name="napostrophe" unicode="&#x149;" horiz-adv-x="792" 
d="M35 459q16 14 36.5 42t28.5 50q-57 20 -57 78q0 36 25 59.5t59 23.5q37 0 61 -25.5t24 -70.5q0 -56 -36 -111t-86 -87zM592 0v280q0 62 -21.5 90t-67.5 28q-97 0 -97 -116v-282h-130v511h130v-48q49 60 137 60q76 0 127.5 -47.5t51.5 -153.5v-322h-130z" />
    <glyph glyph-name="Eng" unicode="&#x14a;" horiz-adv-x="718" 
d="M424 -244l-67 105q84 18 115.5 42t31.5 69v49l-264 387q-16 24 -29 53q3 -20 3 -53v-408h-134v700h127l271 -403q17 -28 29 -53q-3 39 -3 53v403h134v-698q0 -110 -51 -165q-55 -59 -163 -81z" />
    <glyph glyph-name="eng" unicode="&#x14b;" 
d="M314 -244l-66 103q81 18 112 41t31 66v314q0 62 -21.5 90t-67.5 28q-97 0 -97 -116v-282h-130v511h130v-48q49 60 137 60q76 0 127.5 -47.5t51.5 -153.5v-324q0 -110 -50 -162q-53 -57 -157 -80z" />
    <glyph glyph-name="Omacron" unicode="&#x14c;" horiz-adv-x="727" 
d="M199 776v106h330v-106h-330zM364 -12q-65 0 -118.5 21t-88 56.5t-58.5 82.5t-34 97.5t-10 104.5t10 104.5t34 97.5t58.5 82.5t88 56.5t118.5 21t118.5 -21t88 -56.5t58 -82.5t33.5 -97.5t10 -104.5t-10 -104.5t-33.5 -97.5t-58 -82.5t-88 -56.5t-118.5 -21zM364 118
q44 0 78 21.5t53 57t28 74.5t9 79q0 43 -9 82t-27.5 73.5t-52.5 55.5t-79 21t-79.5 -21.5t-53 -57t-27.5 -74t-9 -79.5q0 -58 15 -108t55 -87t99 -37z" />
    <glyph glyph-name="omacron" unicode="&#x14d;" horiz-adv-x="570" 
d="M120 587v106h330v-106h-330zM285 -12q-109 0 -172 71t-63 196q0 124 63.5 196t171.5 72t171.5 -72t63.5 -196q0 -125 -63 -196t-172 -71zM285 113q49 0 77 37.5t28 104.5t-28 105t-77 38q-48 0 -76.5 -38.5t-28.5 -104.5t28.5 -104t76.5 -38z" />
    <glyph glyph-name="Obreve" unicode="&#x14e;" horiz-adv-x="727" 
d="M364 761q-94 0 -142 48.5t-48 121.5h100q0 -31 22.5 -53.5t67.5 -22.5q44 0 67.5 22.5t23.5 53.5h100q0 -73 -49 -121.5t-142 -48.5zM364 -12q-65 0 -118.5 21t-88 56.5t-58.5 82.5t-34 97.5t-10 104.5t10 104.5t34 97.5t58.5 82.5t88 56.5t118.5 21t118.5 -21t88 -56.5
t58 -82.5t33.5 -97.5t10 -104.5t-10 -104.5t-33.5 -97.5t-58 -82.5t-88 -56.5t-118.5 -21zM364 118q44 0 78 21.5t53 57t28 74.5t9 79q0 43 -9 82t-27.5 73.5t-52.5 55.5t-79 21t-79.5 -21.5t-53 -57t-27.5 -74t-9 -79.5q0 -58 15 -108t55 -87t99 -37z" />
    <glyph glyph-name="obreve" unicode="&#x14f;" horiz-adv-x="570" 
d="M285 572q-94 0 -142 48.5t-48 121.5h100q0 -31 22.5 -53.5t67.5 -22.5q44 0 67.5 22.5t23.5 53.5h100q0 -73 -49 -121.5t-142 -48.5zM285 -12q-109 0 -172 71t-63 196q0 124 63.5 196t171.5 72t171.5 -72t63.5 -196q0 -125 -63 -196t-172 -71zM285 113q49 0 77 37.5
t28 104.5t-28 105t-77 38q-48 0 -76.5 -38.5t-28.5 -104.5t28.5 -104t76.5 -38z" />
    <glyph glyph-name="Ohungarumlaut" unicode="&#x150;" horiz-adv-x="727" 
d="M335 765h-126l142 156h162zM555 765h-126l142 156h162zM364 -12q-65 0 -118.5 21t-88 56.5t-58.5 82.5t-34 97.5t-10 104.5t10 104.5t34 97.5t58.5 82.5t88 56.5t118.5 21t118.5 -21t88 -56.5t58 -82.5t33.5 -97.5t10 -104.5t-10 -104.5t-33.5 -97.5t-58 -82.5t-88 -56.5
t-118.5 -21zM364 118q44 0 78 21.5t53 57t28 74.5t9 79q0 43 -9 82t-27.5 73.5t-52.5 55.5t-79 21t-79.5 -21.5t-53 -57t-27.5 -74t-9 -79.5q0 -58 15 -108t55 -87t99 -37z" />
    <glyph glyph-name="ohungarumlaut" unicode="&#x151;" horiz-adv-x="570" 
d="M257 576h-126l142 156h162zM477 576h-126l142 156h162zM285 -12q-109 0 -172 71t-63 196q0 124 63.5 196t171.5 72t171.5 -72t63.5 -196q0 -125 -63 -196t-172 -71zM285 113q49 0 77 37.5t28 104.5t-28 105t-77 38q-48 0 -76.5 -38.5t-28.5 -104.5t28.5 -104t76.5 -38z
" />
    <glyph glyph-name="OE" unicode="&#x152;" horiz-adv-x="977" 
d="M470 0v5q-54 -17 -106 -17q-65 0 -118.5 21t-88 56.5t-58.5 82.5t-34 97.5t-10 104.5t10 104.5t34 97.5t58.5 82.5t88 56.5t118.5 21q55 0 106 -17v5h441v-128h-306v-147h165v-128h-165v-169h327v-128h-462zM364 118q64 0 106 44v378q-42 42 -106 42q-45 0 -79.5 -21.5
t-53 -57t-27.5 -74t-9 -79.5q0 -59 15 -109t55 -86.5t99 -36.5z" />
    <glyph glyph-name="oe" unicode="&#x153;" horiz-adv-x="902" 
d="M285 -12q-108 0 -171.5 71t-63.5 196q0 124 63.5 196t171.5 72q107 0 168 -70q29 33 77 51.5t100 18.5q100 0 163.5 -61.5t63.5 -179.5q0 -36 -7 -77h-331q4 -48 35.5 -75.5t75.5 -27.5q68 0 110 53l80 -81q-71 -86 -190 -86q-117 0 -177 69q-63 -69 -168 -69zM520 315
h209q-6 44 -32.5 69t-66.5 25q-98 0 -110 -94zM285 113q49 0 77 37.5t28 104.5t-28 105t-77 38q-48 0 -76.5 -38.5t-28.5 -104.5t28.5 -104t76.5 -38z" />
    <glyph glyph-name="Racute" unicode="&#x154;" horiz-adv-x="694" 
d="M204 765l142 156h162l-178 -156h-126zM80 0v700h325q123 0 178.5 -61.5t55.5 -157.5q0 -64 -35.5 -121.5t-100.5 -80.5l136 -279h-152l-131 261h-141v-261h-135zM215 389h192q48 0 70 26t22 66q0 39 -21.5 65t-70.5 26h-192v-183z" />
    <glyph glyph-name="racute" unicode="&#x155;" horiz-adv-x="419" 
d="M118 576l142 156h162l-178 -156h-126zM75 0v511h130v-45q27 57 95 57q57 0 104 -39l-18 -119q-42 30 -93 30q-88 0 -88 -110v-285h-130z" />
    <glyph glyph-name="Rcommaaccent" unicode="&#x156;" horiz-adv-x="694" 
d="M80 0v700h325q123 0 178.5 -61.5t55.5 -157.5q0 -64 -35.5 -121.5t-100.5 -80.5l136 -279h-152l-131 261h-141v-261h-135zM215 389h192q48 0 70 26t22 66q0 39 -21.5 65t-70.5 26h-192v-183zM286 -252q39 39 50 74q-27 0 -46 18.5t-19 48.5q0 33 21 54.5t53 21.5
q35 0 56 -21.5t21 -60.5q0 -48 -21.5 -86.5t-69.5 -77.5z" />
    <glyph glyph-name="rcommaaccent" unicode="&#x157;" horiz-adv-x="419" 
d="M75 0v511h130v-45q27 57 95 57q57 0 104 -39l-18 -119q-42 30 -93 30q-88 0 -88 -110v-285h-130zM78 -272q39 39 50 74q-27 0 -46 18.5t-19 48.5q0 33 21 54.5t53 21.5q35 0 56 -21.5t21 -60.5q0 -48 -21.5 -86.5t-69.5 -77.5z" />
    <glyph glyph-name="Rcaron" unicode="&#x158;" horiz-adv-x="694" 
d="M401 765h-125l-141 156h120l84 -69l84 69h120zM80 0v700h325q123 0 178.5 -61.5t55.5 -157.5q0 -64 -35.5 -121.5t-100.5 -80.5l136 -279h-152l-131 261h-141v-261h-135zM215 389h192q48 0 70 26t22 66q0 39 -21.5 65t-70.5 26h-192v-183z" />
    <glyph glyph-name="rcaron" unicode="&#x159;" horiz-adv-x="419" 
d="M315 576h-125l-141 156h120l84 -69l84 69h120zM75 0v511h130v-45q27 57 95 57q57 0 104 -39l-18 -119q-42 30 -93 30q-88 0 -88 -110v-285h-130z" />
    <glyph glyph-name="Sacute" unicode="&#x15a;" horiz-adv-x="615" 
d="M198 765l142 156h162l-178 -156h-126zM312 -12q-98 0 -170 51t-102 141l123 46q23 -50 63 -80t90 -30q52 0 82.5 22t30.5 63q0 21 -10 37t-34 29t-42.5 20.5t-55.5 19.5q-42 14 -63.5 22t-56.5 27t-53 38.5t-32.5 52t-14.5 72.5q0 82 64 137.5t173 55.5q90 0 151.5 -45
t81.5 -117l-121 -40q-33 74 -120 74q-44 0 -68.5 -17.5t-24.5 -49.5q0 -21 20 -37.5t41 -25t66 -23.5l54 -19t52 -22t51.5 -31t39 -38.5t29.5 -53t9 -66.5q0 -99 -71.5 -156t-181.5 -57z" />
    <glyph glyph-name="sacute" unicode="&#x15b;" horiz-adv-x="494" 
d="M117 576l142 156h162l-178 -156h-126zM244 -12q-62 0 -118 25t-86 67l86 73q55 -55 120 -55q77 0 77 45q0 21 -20.5 34.5t-72.5 33.5q-91 30 -133 67.5t-42 100.5q0 67 53 105.5t133 38.5q116 0 187 -82l-87 -71q-46 43 -100 43q-65 0 -65 -38q0 -32 100 -62
q80 -26 124 -63.5t44 -106.5q0 -74 -54 -114.5t-146 -40.5z" />
    <glyph glyph-name="Scircumflex" unicode="&#x15c;" horiz-adv-x="615" 
d="M389 765l-84 69l-84 -69h-120l142 156h125l141 -156h-120zM312 -12q-98 0 -170 51t-102 141l123 46q23 -50 63 -80t90 -30q52 0 82.5 22t30.5 63q0 21 -10 37t-34 29t-42.5 20.5t-55.5 19.5q-42 14 -63.5 22t-56.5 27t-53 38.5t-32.5 52t-14.5 72.5q0 82 64 137.5
t173 55.5q90 0 151.5 -45t81.5 -117l-121 -40q-33 74 -120 74q-44 0 -68.5 -17.5t-24.5 -49.5q0 -21 20 -37.5t41 -25t66 -23.5l54 -19t52 -22t51.5 -31t39 -38.5t29.5 -53t9 -66.5q0 -99 -71.5 -156t-181.5 -57z" />
    <glyph glyph-name="scircumflex" unicode="&#x15d;" horiz-adv-x="494" 
d="M326 576l-84 69l-84 -69h-120l142 156h125l141 -156h-120zM244 -12q-62 0 -118 25t-86 67l86 73q55 -55 120 -55q77 0 77 45q0 21 -20.5 34.5t-72.5 33.5q-91 30 -133 67.5t-42 100.5q0 67 53 105.5t133 38.5q116 0 187 -82l-87 -71q-46 43 -100 43q-65 0 -65 -38
q0 -32 100 -62q80 -26 124 -63.5t44 -106.5q0 -74 -54 -114.5t-146 -40.5z" />
    <glyph glyph-name="Scedilla" unicode="&#x15e;" horiz-adv-x="615" 
d="M307 -244q-75 0 -110 47l56 42q14 -19 41 -19q48 0 48 39t-49 39q-23 0 -43 -14l-27 33l55 67q-86 8 -149 58.5t-89 131.5l123 46q23 -50 63 -80t90 -30q52 0 82.5 22t30.5 63q0 21 -10 37t-34 29t-42.5 20.5t-55.5 19.5q-42 14 -63.5 22t-56.5 27t-53 38.5t-32.5 52
t-14.5 72.5q0 82 64 137.5t173 55.5q90 0 151.5 -45t81.5 -117l-121 -40q-33 74 -120 74q-44 0 -68.5 -17.5t-24.5 -49.5q0 -21 20 -37.5t41 -25t66 -23.5l54 -19t52 -22t51.5 -31t39 -38.5t29.5 -53t9 -66.5q0 -90 -59 -145t-154 -65l-22 -37q56 0 84.5 -25t28.5 -65
q0 -48 -36 -78t-100 -30z" />
    <glyph glyph-name="scedilla" unicode="&#x15f;" horiz-adv-x="494" 
d="M232 -244q-75 0 -110 47l56 42q14 -19 41 -19q48 0 48 39t-49 39q-23 0 -43 -14l-27 33l56 68q-118 19 -164 89l86 73q55 -55 120 -55q77 0 77 45q0 21 -20.5 34.5t-72.5 33.5q-91 30 -133 67.5t-42 100.5q0 67 53 105.5t133 38.5q116 0 187 -82l-87 -71q-46 43 -100 43
q-65 0 -65 -38q0 -32 100 -62q80 -26 124 -63.5t44 -106.5q0 -67 -44.5 -105.5t-122.5 -47.5l-22 -36q56 0 84.5 -25t28.5 -65q0 -48 -36 -78t-100 -30z" />
    <glyph glyph-name="Scaron" unicode="&#x160;" horiz-adv-x="615" 
d="M367 765h-125l-141 156h120l84 -69l84 69h120zM312 -12q-98 0 -170 51t-102 141l123 46q23 -50 63 -80t90 -30q52 0 82.5 22t30.5 63q0 21 -10 37t-34 29t-42.5 20.5t-55.5 19.5q-42 14 -63.5 22t-56.5 27t-53 38.5t-32.5 52t-14.5 72.5q0 82 64 137.5t173 55.5
q90 0 151.5 -45t81.5 -117l-121 -40q-33 74 -120 74q-44 0 -68.5 -17.5t-24.5 -49.5q0 -21 20 -37.5t41 -25t66 -23.5l54 -19t52 -22t51.5 -31t39 -38.5t29.5 -53t9 -66.5q0 -99 -71.5 -156t-181.5 -57z" />
    <glyph glyph-name="scaron" unicode="&#x161;" horiz-adv-x="494" 
d="M304 576h-125l-141 156h120l84 -69l84 69h120zM244 -12q-62 0 -118 25t-86 67l86 73q55 -55 120 -55q77 0 77 45q0 21 -20.5 34.5t-72.5 33.5q-91 30 -133 67.5t-42 100.5q0 67 53 105.5t133 38.5q116 0 187 -82l-87 -71q-46 43 -100 43q-65 0 -65 -38q0 -32 100 -62
q80 -26 124 -63.5t44 -106.5q0 -74 -54 -114.5t-146 -40.5z" />
    <glyph glyph-name="uni0162" unicode="&#x162;" horiz-adv-x="605" 
d="M289 -244q-75 0 -110 47l56 42q14 -19 41 -19q48 0 48 39t-49 39q-23 0 -43 -14l-27 33l63 77h-33v570h-200v130h535v-130h-200v-570h-30l-28 -46q56 0 84.5 -25t28.5 -65q0 -48 -36 -78t-100 -30z" />
    <glyph glyph-name="uni0163" unicode="&#x163;" horiz-adv-x="393" 
d="M212 -244q-75 0 -110 47l56 42q14 -19 41 -19q48 0 48 39t-49 39q-23 0 -43 -14l-27 33l57 70q-82 18 -82 130v274h-73v114h73v149l130 62v-211h114v-114h-114v-255q0 -40 36 -40q41 0 84 22l-15 -113q-27 -13 -65 -20l-16 -2l-22 -35q56 0 84.5 -25t28.5 -65
q0 -48 -36 -78t-100 -30z" />
    <glyph glyph-name="Tcaron" unicode="&#x164;" horiz-adv-x="605" 
d="M365 765h-125l-141 156h120l84 -69l84 69h120zM370 570v-570h-135v570h-200v130h535v-130h-200z" />
    <glyph glyph-name="tcaron" unicode="&#x165;" horiz-adv-x="476" 
d="M451 840v-8q0 -146 -110 -251l-42 32q13 27 22 91.5t9 135.5h121zM227 -12q-124 0 -124 135v274h-73v114h73v149l130 62v-211h114v-114h-114v-255q0 -40 36 -40q41 0 84 22l-15 -113q-48 -23 -111 -23z" />
    <glyph glyph-name="Tbar" unicode="&#x166;" horiz-adv-x="605" 
d="M570 570h-200v-188h114v-125h-114v-257h-135v257h-114v125h114v188h-200v130h535v-130z" />
    <glyph glyph-name="tbar" unicode="&#x167;" horiz-adv-x="403" 
d="M232 -12q-124 0 -124 135v72h-73v114h73v88h-73v114h73v149l130 62v-211h114v-114h-114v-88h114v-114h-114v-53q0 -40 36 -40q39 0 84 22l-15 -113q-48 -23 -111 -23z" />
    <glyph glyph-name="Utilde" unicode="&#x168;" horiz-adv-x="714" 
d="M436 772q-38 0 -90.5 23t-74.5 23q-46 0 -47 -42h-61q0 138 115 138q39 0 90.5 -23t74.5 -23q46 0 47 42h61q0 -138 -115 -138zM357 -12q-56 0 -104.5 14.5t-89.5 46t-64.5 87.5t-23.5 132v432h135v-432q0 -83 37 -116.5t110 -33.5q72 0 109.5 33.5t37.5 116.5v432h135
v-432q0 -145 -80 -212.5t-202 -67.5z" />
    <glyph glyph-name="utilde" unicode="&#x169;" 
d="M368 583q-38 0 -90.5 23t-74.5 23q-46 0 -47 -42h-61q0 138 115 138q39 0 90.5 -23t74.5 -23q46 0 47 42h61q0 -138 -115 -138zM386 0v48q-48 -60 -137 -60q-75 0 -127 48t-52 153v322h130v-280q0 -61 21.5 -89.5t67.5 -28.5q97 0 97 116v282h130v-511h-130z" />
    <glyph glyph-name="Umacron" unicode="&#x16a;" horiz-adv-x="714" 
d="M192 776v106h330v-106h-330zM357 -12q-56 0 -104.5 14.5t-89.5 46t-64.5 87.5t-23.5 132v432h135v-432q0 -83 37 -116.5t110 -33.5q72 0 109.5 33.5t37.5 116.5v432h135v-432q0 -145 -80 -212.5t-202 -67.5z" />
    <glyph glyph-name="umacron" unicode="&#x16b;" 
d="M124 587v106h330v-106h-330zM386 0v48q-48 -60 -137 -60q-75 0 -127 48t-52 153v322h130v-280q0 -61 21.5 -89.5t67.5 -28.5q97 0 97 116v282h130v-511h-130z" />
    <glyph glyph-name="Ubreve" unicode="&#x16c;" horiz-adv-x="714" 
d="M357 761q-94 0 -142 48.5t-48 121.5h100q0 -31 22.5 -53.5t67.5 -22.5q44 0 67.5 22.5t23.5 53.5h100q0 -73 -49 -121.5t-142 -48.5zM357 -12q-56 0 -104.5 14.5t-89.5 46t-64.5 87.5t-23.5 132v432h135v-432q0 -83 37 -116.5t110 -33.5q72 0 109.5 33.5t37.5 116.5v432
h135v-432q0 -145 -80 -212.5t-202 -67.5z" />
    <glyph glyph-name="ubreve" unicode="&#x16d;" 
d="M289 572q-94 0 -142 48.5t-48 121.5h100q0 -31 22.5 -53.5t67.5 -22.5q44 0 67.5 22.5t23.5 53.5h100q0 -73 -49 -121.5t-142 -48.5zM386 0v48q-48 -60 -137 -60q-75 0 -127 48t-52 153v322h130v-280q0 -61 21.5 -89.5t67.5 -28.5q97 0 97 116v282h130v-511h-130z" />
    <glyph glyph-name="Uring" unicode="&#x16e;" horiz-adv-x="714" 
d="M357 714q-54 0 -92 38t-38 91q0 54 38 91t92 37t92 -37t38 -91q0 -53 -38 -91t-92 -38zM357 803q15 0 27 11.5t12 28.5t-12 28.5t-27 11.5q-17 0 -28 -11.5t-11 -28.5t11 -28.5t28 -11.5zM357 -12q-56 0 -104.5 14.5t-89.5 46t-64.5 87.5t-23.5 132v432h135v-432
q0 -83 37 -116.5t110 -33.5q72 0 109.5 33.5t37.5 116.5v432h135v-432q0 -145 -80 -212.5t-202 -67.5z" />
    <glyph glyph-name="uring" unicode="&#x16f;" 
d="M289 525q-54 0 -92 38t-38 91q0 54 38 91t92 37t92 -37t38 -91q0 -53 -38 -91t-92 -38zM289 614q15 0 27 11.5t12 28.5t-12 28.5t-27 11.5q-17 0 -28 -11.5t-11 -28.5t11 -28.5t28 -11.5zM386 0v48q-48 -60 -137 -60q-75 0 -127 48t-52 153v322h130v-280
q0 -61 21.5 -89.5t67.5 -28.5q97 0 97 116v282h130v-511h-130z" />
    <glyph glyph-name="Uhungarumlaut" unicode="&#x170;" horiz-adv-x="714" 
d="M275 765h-126l142 156h162zM495 765h-126l142 156h162zM357 -12q-56 0 -104.5 14.5t-89.5 46t-64.5 87.5t-23.5 132v432h135v-432q0 -83 37 -116.5t110 -33.5q72 0 109.5 33.5t37.5 116.5v432h135v-432q0 -145 -80 -212.5t-202 -67.5z" />
    <glyph glyph-name="uhungarumlaut" unicode="&#x171;" 
d="M207 576h-126l142 156h162zM427 576h-126l142 156h162zM386 0v48q-48 -60 -137 -60q-75 0 -127 48t-52 153v322h130v-280q0 -61 21.5 -89.5t67.5 -28.5q97 0 97 116v282h130v-511h-130z" />
    <glyph glyph-name="Uogonek" unicode="&#x172;" horiz-adv-x="714" 
d="M377 -244q-56 0 -90 29.5t-34 78.5q0 76 86 124h-6q-53 3 -97.5 19.5t-81.5 48.5t-58 86t-21 126v432h135v-432q0 -83 37 -116.5t110 -33.5q72 0 109.5 33.5t37.5 116.5v432h135v-432q0 -201 -171 -266q-54 -20 -81.5 -56.5t-27.5 -70.5q0 -22 11 -33t27 -11q25 0 39 19
l60 -43q-44 -51 -119 -51z" />
    <glyph glyph-name="uogonek" unicode="&#x173;" 
d="M402 -244q-57 0 -90.5 29.5t-33.5 78.5q0 87 108 136v48q-48 -60 -137 -60q-75 0 -127 48t-52 153v322h130v-280q0 -61 21.5 -89.5t67.5 -28.5q97 0 97 116v282h130v-511q-67 -19 -99.5 -54t-32.5 -71q0 -44 38 -44q25 0 39 19l60 -43q-46 -51 -119 -51z" />
    <glyph glyph-name="Wcircumflex" unicode="&#x174;" horiz-adv-x="852" 
d="M510 765l-84 69l-84 -69h-120l142 156h125l141 -156h-120zM185 0l-150 700h139l78 -394q5 -21 9 -52q4 30 10 53l96 393h117l98 -393q6 -23 10 -53q4 31 9 52l78 394h138l-151 -700h-126l-106 412q-7 26 -10 53q-3 -28 -10 -52l-103 -413h-126z" />
    <glyph glyph-name="wcircumflex" unicode="&#x175;" horiz-adv-x="751" 
d="M460 576l-84 69l-84 -69h-120l142 156h125l141 -156h-120zM178 0l-143 511h128l60 -249q3 -11 7.5 -36t5.5 -31l15 67l65 249h118l64 -249l15 -67q1 6 5.5 31t7.5 36l62 249h128l-144 -511h-115l-65 255q-16 67 -17 76q-1 -9 -17 -76l-65 -255h-115z" />
    <glyph glyph-name="Ycircumflex" unicode="&#x176;" horiz-adv-x="692" 
d="M430 765l-84 69l-84 -69h-120l142 156h125l141 -156h-120zM279 0v273l-259 427h153l173 -286l173 286h153l-259 -427v-273h-134z" />
    <glyph glyph-name="ycircumflex" unicode="&#x177;" horiz-adv-x="570" 
d="M369 576l-84 69l-84 -69h-120l142 156h125l141 -156h-120zM139 -194l78 201l-192 504h133l112 -295q9 -22 15 -47q2 8 15 47l112 295h133l-271 -705h-135z" />
    <glyph glyph-name="Ydieresis" unicode="&#x178;" horiz-adv-x="692" 
d="M251 770q-31 0 -52 21t-21 52t21 52t52 21t52 -21t21 -52t-21 -52t-52 -21zM441 770q-31 0 -52 21t-21 52t21 52t52 21t52 -21t21 -52t-21 -52t-52 -21zM279 0v273l-259 427h153l173 -286l173 286h153l-259 -427v-273h-134z" />
    <glyph glyph-name="Zacute" unicode="&#x179;" horiz-adv-x="645" 
d="M207 765l142 156h162l-178 -156h-126zM45 0v103l366 469h-344v128h523v-103l-369 -469h369v-128h-545z" />
    <glyph glyph-name="zacute" unicode="&#x17a;" horiz-adv-x="544" 
d="M145 576l142 156h162l-178 -156h-126zM55 0v102l264 293h-245v116h410v-99l-263 -296h262v-116h-428z" />
    <glyph glyph-name="Zdotaccent" unicode="&#x17b;" horiz-adv-x="645" 
d="M326 770q-32 0 -52.5 21t-20.5 52t21 52t52 21t52 -21t21 -52t-21 -52t-52 -21zM45 0v103l366 469h-344v128h523v-103l-369 -469h369v-128h-545z" />
    <glyph glyph-name="zdotaccent" unicode="&#x17c;" horiz-adv-x="544" 
d="M280 581q-32 0 -52.5 20.5t-20.5 52.5q0 31 21 52t52 21t52 -21t21 -52t-21 -52t-52 -21zM55 0v102l264 293h-245v116h410v-99l-263 -296h262v-116h-428z" />
    <glyph glyph-name="Zcaron" unicode="&#x17d;" horiz-adv-x="645" 
d="M404 765h-125l-141 156h120l84 -69l84 69h120zM45 0v103l366 469h-344v128h523v-103l-369 -469h369v-128h-545z" />
    <glyph glyph-name="zcaron" unicode="&#x17e;" horiz-adv-x="544" 
d="M342 576h-125l-141 156h120l84 -69l84 69h120zM55 0v102l264 293h-245v116h410v-99l-263 -296h262v-116h-428z" />
    <glyph glyph-name="longs" unicode="&#x17f;" horiz-adv-x="325" 
d="M80 0v589q0 123 126 123q65 0 114 -25v-106q-42 17 -73 17q-37 0 -37 -35v-563h-130z" />
    <glyph glyph-name="florin" unicode="&#x192;" horiz-adv-x="386" 
d="M49 -244l-66 103q81 18 112 41t31 66v429h-71v116h71v78q0 123 126 123q65 0 114 -25v-106q-43 17 -73 17q-37 0 -37 -35v-52h110v-116h-110v-404q0 -101 -51 -156t-156 -79z" />
    <glyph glyph-name="uni01CD" unicode="&#x1cd;" horiz-adv-x="732" 
d="M428 765h-125l-141 156h120l84 -69l84 69h120zM555 0l-54 145h-270l-54 -145h-145l268 700h132l268 -700h-145zM457 268l-69 182q-16 40 -22 63q-6 -23 -22 -63l-69 -182h182z" />
    <glyph glyph-name="uni01CE" unicode="&#x1ce;" horiz-adv-x="558" 
d="M347 576h-125l-141 156h120l84 -69l84 69h120zM365 0v37q-49 -49 -132 -49t-135.5 44t-52.5 125q0 83 59.5 126t143.5 43q67 0 117 -24v26q0 81 -92 81q-84 0 -158 -51l-40 105q89 60 209 60q41 0 72.5 -7t65.5 -26t52.5 -60.5t18.5 -103.5v-326h-128zM258 102
q61 0 107 42v55q-42 17 -95 17q-44 0 -71 -14.5t-27 -44.5q0 -25 22.5 -40t63.5 -15z" />
    <glyph glyph-name="uni01CF" unicode="&#x1cf;" horiz-adv-x="305" 
d="M215 765h-125l-141 156h120l84 -69l84 69h120zM85 0v700h135v-700h-135z" />
    <glyph glyph-name="uni01D0" unicode="&#x1d0;" horiz-adv-x="282" 
d="M203 576h-125l-141 156h120l84 -69l84 69h120zM76 0v511h130v-511h-130z" />
    <glyph glyph-name="uni01D1" unicode="&#x1d1;" horiz-adv-x="727" 
d="M426 765h-125l-141 156h120l84 -69l84 69h120zM364 -12q-65 0 -118.5 21t-88 56.5t-58.5 82.5t-34 97.5t-10 104.5t10 104.5t34 97.5t58.5 82.5t88 56.5t118.5 21t118.5 -21t88 -56.5t58 -82.5t33.5 -97.5t10 -104.5t-10 -104.5t-33.5 -97.5t-58 -82.5t-88 -56.5
t-118.5 -21zM364 118q44 0 78 21.5t53 57t28 74.5t9 79q0 43 -9 82t-27.5 73.5t-52.5 55.5t-79 21t-79.5 -21.5t-53 -57t-27.5 -74t-9 -79.5q0 -58 15 -108t55 -87t99 -37z" />
    <glyph glyph-name="uni01D2" unicode="&#x1d2;" horiz-adv-x="570" 
d="M347 576h-125l-141 156h120l84 -69l84 69h120zM285 -12q-109 0 -172 71t-63 196q0 124 63.5 196t171.5 72t171.5 -72t63.5 -196q0 -125 -63 -196t-172 -71zM285 113q49 0 77 37.5t28 104.5t-28 105t-77 38q-48 0 -76.5 -38.5t-28.5 -104.5t28.5 -104t76.5 -38z" />
    <glyph glyph-name="uni01D3" unicode="&#x1d3;" horiz-adv-x="714" 
d="M419 765h-125l-141 156h120l84 -69l84 69h120zM357 -12q-56 0 -104.5 14.5t-89.5 46t-64.5 87.5t-23.5 132v432h135v-432q0 -83 37 -116.5t110 -33.5q72 0 109.5 33.5t37.5 116.5v432h135v-432q0 -145 -80 -212.5t-202 -67.5z" />
    <glyph glyph-name="uni01D4" unicode="&#x1d4;" 
d="M351 576h-125l-141 156h120l84 -69l84 69h120zM386 0v48q-48 -60 -137 -60q-75 0 -127 48t-52 153v322h130v-280q0 -61 21.5 -89.5t67.5 -28.5q97 0 97 116v282h130v-511h-130z" />
    <glyph glyph-name="AEacute" unicode="&#x1fc;" horiz-adv-x="884" 
d="M375 765l142 156h162l-178 -156h-126zM-25 0l406 700h437v-128h-300v-147h159v-128h-159v-169h321v-128h-456v145h-181l-82 -145h-145zM274 268h109v200q-8 -21 -24 -50z" />
    <glyph glyph-name="aeacute" unicode="&#x1fd;" horiz-adv-x="856" 
d="M319 576l142 156h162l-178 -156h-126zM221 -12q-77 0 -126.5 44t-49.5 125q0 85 56 128t134 43q64 0 110 -24v24q0 81 -85 81q-77 0 -145 -51l-40 105q90 60 199 60q108 0 154 -56q56 56 156 56t163.5 -61.5t63.5 -179.5q0 -36 -7 -77h-331q4 -48 35.5 -75.5t75.5 -27.5
q68 0 110 53l80 -81q-71 -86 -190 -86t-181 82q-75 -82 -182 -82zM474 315h209q-6 45 -32.5 69.5t-66.5 24.5q-98 0 -110 -94zM249 102q58 0 96 42v55q-36 17 -85 17q-39 0 -63.5 -14.5t-24.5 -44.5q0 -25 20 -40t57 -15z" />
    <glyph glyph-name="Oslashacute" unicode="&#x1fe;" horiz-adv-x="727" 
d="M229 765l142 156h162l-178 -156h-126zM55 -12l74 110q-74 101 -74 252q0 54 10 104.5t34 97.5t58.5 82.5t88 56.5t118.5 21q86 0 154 -38l26 38h128l-74 -110q74 -101 74 -252q0 -54 -10 -104.5t-33.5 -97.5t-58 -82.5t-88 -56.5t-118.5 -21q-90 0 -155 38l-26 -38h-128z
M216 227l226 334q-34 21 -78 21q-45 0 -79.5 -21.5t-53 -57t-27.5 -74t-9 -79.5q0 -68 21 -123zM364 118q44 0 78 21.5t53 57t28 74.5t9 79q0 68 -21 123l-226 -334q34 -21 79 -21z" />
    <glyph glyph-name="oslashacute" unicode="&#x1ff;" horiz-adv-x="570" 
d="M454 732l-178 -156h-126l142 156h162zM521 523l-55 -83q54 -71 54 -185q0 -125 -63 -196t-172 -71q-59 0 -104 21l-14 -21h-117l54 82q-54 69 -54 185q0 124 63.5 196t171.5 72q60 0 105 -22l14 22h117zM180 255q0 -29 7 -59l131 197q-17 5 -33 5q-48 0 -76.5 -38.5
t-28.5 -104.5zM390 255q0 35 -7 59l-130 -196q17 -5 32 -5q49 0 77 37.5t28 104.5z" />
    <glyph glyph-name="Scommaaccent" unicode="&#x218;" horiz-adv-x="615" 
d="M312 -12q-98 0 -170 51t-102 141l123 46q23 -50 63 -80t90 -30q52 0 82.5 22t30.5 63q0 21 -10 37t-34 29t-42.5 20.5t-55.5 19.5q-42 14 -63.5 22t-56.5 27t-53 38.5t-32.5 52t-14.5 72.5q0 82 64 137.5t173 55.5q90 0 151.5 -45t81.5 -117l-121 -40q-33 74 -120 74
q-44 0 -68.5 -17.5t-24.5 -49.5q0 -21 20 -37.5t41 -25t66 -23.5l54 -19t52 -22t51.5 -31t39 -38.5t29.5 -53t9 -66.5q0 -99 -71.5 -156t-181.5 -57zM247 -252q39 39 50 74q-27 0 -46 18.5t-19 48.5q0 33 21 54.5t53 21.5q35 0 56 -21.5t21 -60.5q0 -48 -21.5 -86.5
t-69.5 -77.5z" />
    <glyph glyph-name="scommaaccent" unicode="&#x219;" horiz-adv-x="494" 
d="M244 -12q-62 0 -118 25t-86 67l86 73q55 -55 120 -55q77 0 77 45q0 21 -20.5 34.5t-72.5 33.5q-91 30 -133 67.5t-42 100.5q0 67 53 105.5t133 38.5q116 0 187 -82l-87 -71q-46 43 -100 43q-65 0 -65 -38q0 -32 100 -62q80 -26 124 -63.5t44 -106.5q0 -74 -54 -114.5
t-146 -40.5zM184 -252q39 39 50 74q-27 0 -46 18.5t-19 48.5q0 33 21 54.5t53 21.5q35 0 56 -21.5t21 -60.5q0 -48 -21.5 -86.5t-69.5 -77.5z" />
    <glyph glyph-name="uni021A" unicode="&#x21a;" horiz-adv-x="605" 
d="M370 570v-570h-135v570h-200v130h535v-130h-200zM242 -252q39 39 50 74q-27 0 -46 18.5t-19 48.5q0 33 21 54.5t53 21.5q35 0 56 -21.5t21 -60.5q0 -48 -21.5 -86.5t-69.5 -77.5z" />
    <glyph glyph-name="uni021B" unicode="&#x21b;" horiz-adv-x="393" 
d="M227 -12q-124 0 -124 135v274h-73v114h73v149l130 62v-211h114v-114h-114v-255q0 -40 36 -40q41 0 84 22l-15 -113q-48 -23 -111 -23zM160 -252q39 39 50 74q-27 0 -46 18.5t-19 48.5q0 33 21 54.5t53 21.5q35 0 56 -21.5t21 -60.5q0 -48 -21.5 -86.5t-69.5 -77.5z" />
    <glyph glyph-name="uni0237" unicode="&#x237;" horiz-adv-x="282" 
d="M-1 -214l-66 103q81 18 112 41t31 66v515h130v-483q0 -110 -50 -162q-53 -57 -157 -80z" />
    <glyph glyph-name="circumflex" unicode="&#x2c6;" horiz-adv-x="475" 
d="M321 576l-84 69l-84 -69h-120l142 156h125l141 -156h-120z" />
    <glyph glyph-name="caron" unicode="&#x2c7;" horiz-adv-x="475" 
d="M299 576h-125l-141 156h120l84 -69l84 69h120z" />
    <glyph glyph-name="uni02C9" unicode="&#x2c9;" horiz-adv-x="475" 
d="M72 587v106h330v-106h-330z" />
    <glyph glyph-name="breve" unicode="&#x2d8;" horiz-adv-x="475" 
d="M237 572q-94 0 -142 48.5t-48 121.5h100q0 -31 22.5 -53.5t67.5 -22.5q44 0 67.5 22.5t23.5 53.5h100q0 -73 -49 -121.5t-142 -48.5z" />
    <glyph glyph-name="dotaccent" unicode="&#x2d9;" horiz-adv-x="475" 
d="M237 581q-31 0 -52 20.5t-21 52.5q0 31 21 52t52 21t52 -21t21 -52t-21 -52t-52 -21z" />
    <glyph glyph-name="ring" unicode="&#x2da;" horiz-adv-x="475" 
d="M237 525q-54 0 -92 38t-38 91q0 54 38 91t92 37t92 -37t38 -91q0 -53 -38 -91t-92 -38zM237 614q15 0 27 11.5t12 28.5t-12 28.5t-27 11.5q-17 0 -28 -11.5t-11 -28.5t11 -28.5t28 -11.5z" />
    <glyph glyph-name="ogonek" unicode="&#x2db;" horiz-adv-x="475" 
d="M240 -244q-56 0 -90 29.5t-34 78.5t36 87t101 59h90q-63 -26 -92 -62.5t-29 -72.5q0 -44 38 -44q25 0 39 19l60 -43q-44 -51 -119 -51z" />
    <glyph glyph-name="tilde" unicode="&#x2dc;" horiz-adv-x="475" 
d="M316 583q-38 0 -90.5 23t-74.5 23q-46 0 -47 -42h-61q0 138 115 138q39 0 90.5 -23t74.5 -23q46 0 47 42h61q0 -138 -115 -138z" />
    <glyph glyph-name="hungarumlaut" unicode="&#x2dd;" horiz-adv-x="475" 
d="M155 576h-126l142 156h162zM375 576h-126l142 156h162z" />
    <glyph glyph-name="uni0312" unicode="&#x312;" horiz-adv-x="0" 
d="M-238 581q-35 0 -56 21.5t-21 60.5q0 89 91 164l45 -29q-39 -39 -50 -74q27 0 46 -18.5t19 -48.5q0 -33 -21.5 -54.5t-52.5 -21.5z" />
    <glyph glyph-name="uni0326" unicode="&#x326;" horiz-adv-x="0" 
d="M-298 -252q39 39 50 74q-27 0 -46 18.5t-19 48.5q0 33 21 54.5t53 21.5q35 0 56 -21.5t21 -60.5q0 -48 -21.5 -86.5t-69.5 -77.5z" />
    <glyph glyph-name="uni03A9" unicode="&#x3a9;" horiz-adv-x="748" 
d="M412 0v107q66 69 95 133t29 149q0 37 -8.5 69.5t-26 61.5t-50.5 45.5t-77 16.5q-85 0 -123.5 -56t-38.5 -138q0 -84 29.5 -148t94.5 -133v-107h-266v130h113q-111 106 -111 260q0 60 16 114.5t50 102.5t94.5 76.5t141.5 28.5q65 0 117.5 -19t86 -51t56.5 -74.5
t32.5 -86.5t9.5 -91q0 -152 -112 -260h114v-130h-266z" />
    <glyph glyph-name="uni03BC" unicode="&#x3bc;" horiz-adv-x="596" 
d="M391 0v47q-32 -59 -107 -59q-49 0 -78 25v-152l-131 -61v711h130v-280q0 -61 21.5 -89.5t67.5 -28.5q97 0 97 116v282h130v-511h-130z" />
    <glyph glyph-name="pi" unicode="&#x3c0;" horiz-adv-x="666" 
d="M515 -12q-124 0 -124 135v253h-116v-18q0 -150 -29 -242t-116 -140l-110 87q29 17 48.5 34t40 46t31 73.5t10.5 103.5v56h-87v135h569v-135h-111v-234q0 -40 36 -40q39 0 84 22l-15 -113q-44 -23 -111 -23z" />
    <glyph glyph-name="Wgrave" unicode="&#x1e80;" horiz-adv-x="852" 
d="M436 765l-178 156h162l142 -156h-126zM185 0l-150 700h139l78 -394q5 -21 9 -52q4 30 10 53l96 393h117l98 -393q6 -23 10 -53q4 31 9 52l78 394h138l-151 -700h-126l-106 412q-7 26 -10 53q-3 -28 -10 -52l-103 -413h-126z" />
    <glyph glyph-name="wgrave" unicode="&#x1e81;" horiz-adv-x="751" 
d="M386 576l-178 156h162l142 -156h-126zM178 0l-143 511h128l60 -249q3 -11 7.5 -36t5.5 -31l15 67l65 249h118l64 -249l15 -67q1 6 5.5 31t7.5 36l62 249h128l-144 -511h-115l-65 255q-16 67 -17 76q-1 -9 -17 -76l-65 -255h-115z" />
    <glyph glyph-name="Wacute" unicode="&#x1e82;" horiz-adv-x="852" 
d="M291 765l142 156h162l-178 -156h-126zM185 0l-150 700h139l78 -394q5 -21 9 -52q4 30 10 53l96 393h117l98 -393q6 -23 10 -53q4 31 9 52l78 394h138l-151 -700h-126l-106 412q-7 26 -10 53q-3 -28 -10 -52l-103 -413h-126z" />
    <glyph glyph-name="wacute" unicode="&#x1e83;" horiz-adv-x="751" 
d="M241 576l142 156h162l-178 -156h-126zM178 0l-143 511h128l60 -249q3 -11 7.5 -36t5.5 -31l15 67l65 249h118l64 -249l15 -67q1 6 5.5 31t7.5 36l62 249h128l-144 -511h-115l-65 255q-16 67 -17 76q-1 -9 -17 -76l-65 -255h-115z" />
    <glyph glyph-name="Wdieresis" unicode="&#x1e84;" horiz-adv-x="852" 
d="M331 770q-31 0 -52 21t-21 52t21 52t52 21t52 -21t21 -52t-21 -52t-52 -21zM521 770q-31 0 -52 21t-21 52t21 52t52 21t52 -21t21 -52t-21 -52t-52 -21zM185 0l-150 700h139l78 -394q5 -21 9 -52q4 30 10 53l96 393h117l98 -393q6 -23 10 -53q4 31 9 52l78 394h138
l-151 -700h-126l-106 412q-7 26 -10 53q-3 -28 -10 -52l-103 -413h-126z" />
    <glyph glyph-name="wdieresis" unicode="&#x1e85;" horiz-adv-x="751" 
d="M281 581q-31 0 -52 20.5t-21 52.5q0 31 21 52t52 21t52 -21t21 -52t-21 -52t-52 -21zM471 581q-31 0 -52 20.5t-21 52.5q0 31 21 52t52 21t52 -21t21 -52t-21 -52t-52 -21zM178 0l-143 511h128l60 -249q3 -11 7.5 -36t5.5 -31l15 67l65 249h118l64 -249l15 -67
q1 6 5.5 31t7.5 36l62 249h128l-144 -511h-115l-65 255q-16 67 -17 76q-1 -9 -17 -76l-65 -255h-115z" />
    <glyph glyph-name="Ygrave" unicode="&#x1ef2;" horiz-adv-x="692" 
d="M337 765l-178 156h162l142 -156h-126zM279 0v273l-259 427h153l173 -286l173 286h153l-259 -427v-273h-134z" />
    <glyph glyph-name="ygrave" unicode="&#x1ef3;" horiz-adv-x="570" 
d="M295 576l-178 156h162l142 -156h-126zM139 -194l78 201l-192 504h133l112 -295q9 -22 15 -47q2 8 15 47l112 295h133l-271 -705h-135z" />
    <glyph glyph-name="endash" unicode="&#x2013;" horiz-adv-x="495" 
d="M50 230v114h395v-114h-395z" />
    <glyph glyph-name="emdash" unicode="&#x2014;" horiz-adv-x="575" 
d="M-5 230v114h585v-114h-585z" />
    <glyph glyph-name="uni2015" unicode="&#x2015;" horiz-adv-x="575" 
d="M-5 230v114h585v-114h-585z" />
    <glyph glyph-name="quoteleft" unicode="&#x2018;" horiz-adv-x="247" 
d="M120 418q-36 0 -60.5 26t-24.5 70q0 57 35 110t87 88l55 -41q-15 -14 -36.5 -42.5t-28.5 -49.5q57 -20 57 -78q0 -36 -25 -59.5t-59 -23.5z" />
    <glyph glyph-name="quoteright" unicode="&#x2019;" horiz-adv-x="247" 
d="M35 459q16 14 36.5 42t28.5 50q-57 20 -57 78q0 36 25 59.5t59 23.5q37 0 61 -25.5t24 -70.5q0 -56 -36 -111t-86 -87z" />
    <glyph glyph-name="quotesinglbase" unicode="&#x201a;" horiz-adv-x="247" 
d="M35 -100q16 14 36.5 42t28.5 50q-57 20 -57 78q0 36 25 59.5t59 23.5q37 0 61 -25.5t24 -70.5q0 -56 -36 -111t-86 -87z" />
    <glyph glyph-name="quotereversed" unicode="&#x201b;" horiz-adv-x="247" 
d="M157 418q-51 32 -86.5 87t-35.5 111q0 45 24.5 70.5t60.5 25.5q34 0 59 -23.5t25 -59.5q0 -58 -57 -78q7 -21 28.5 -49.5t36.5 -42.5z" />
    <glyph glyph-name="quotedblleft" unicode="&#x201c;" horiz-adv-x="486" 
d="M120 418q-36 0 -60.5 26t-24.5 70q0 57 35 110t87 88l55 -41q-15 -14 -36.5 -42.5t-28.5 -49.5q57 -20 57 -78q0 -36 -25 -59.5t-59 -23.5zM359 418q-37 0 -61 26t-24 70q0 56 35.5 110t86.5 88l55 -41q-16 -14 -36.5 -42t-28.5 -50q57 -20 57 -78q0 -36 -25 -59.5
t-59 -23.5z" />
    <glyph glyph-name="quotedblright" unicode="&#x201d;" horiz-adv-x="486" 
d="M35 459q16 14 36.5 42t28.5 50q-57 20 -57 78q0 36 25 59.5t59 23.5q37 0 61 -25.5t24 -70.5q0 -56 -36 -111t-86 -87zM274 459q16 14 36.5 42t28.5 50q-57 20 -57 78q0 36 25 59.5t59 23.5q37 0 61 -25.5t24 -70.5q0 -56 -35.5 -112t-86.5 -86z" />
    <glyph glyph-name="quotedblbase" unicode="&#x201e;" horiz-adv-x="486" 
d="M35 -100q16 14 36.5 42t28.5 50q-57 20 -57 78q0 36 25 59.5t59 23.5q37 0 61 -25.5t24 -70.5q0 -56 -36 -111t-86 -87zM274 -100q16 14 36.5 42t28.5 50q-57 20 -57 78q0 36 25 59.5t59 23.5q37 0 61 -25.5t24 -70.5q0 -56 -35.5 -112t-86.5 -86z" />
    <glyph glyph-name="dagger" unicode="&#x2020;" horiz-adv-x="584" 
d="M349 424l8 -90l-31 -475h-68l-31 475l8 90l-100 -13h-70v125h70l100 -14l-8 65v125h130v-125l-8 -65l100 14h70v-125h-70z" />
    <glyph glyph-name="daggerdbl" unicode="&#x2021;" horiz-adv-x="584" 
d="M519 35h-70l-100 14l8 -65v-125h-130v125l8 65l-100 -14h-70v125h70l100 -13l-8 90v97l8 90l-100 -13h-70v125h70l100 -14l-8 65v125h130v-125l-8 -65l100 14h70v-125h-70l-100 13l8 -90v-97l-8 -90l100 13h70v-125z" />
    <glyph glyph-name="bullet" unicode="&#x2022;" horiz-adv-x="421" 
d="M209 205q-63 0 -106 42.5t-43 102.5t43 103t106 43t107.5 -43t44.5 -103t-44.5 -102.5t-107.5 -42.5z" />
    <glyph glyph-name="ellipsis" unicode="&#x2026;" horiz-adv-x="1047" 
d="M174 -12q-36 0 -60 23.5t-24 58.5t24 59t60 24t60.5 -24t24.5 -59t-24.5 -58.5t-60.5 -23.5zM523 -12q-36 0 -60 23.5t-24 58.5t24 59t60 24t60.5 -24t24.5 -59t-24.5 -58.5t-60.5 -23.5zM872 -12q-36 0 -60 23.5t-24 58.5t24 59t60 24t60.5 -24t24.5 -59t-24.5 -58.5
t-60.5 -23.5z" />
    <glyph glyph-name="perthousand" unicode="&#x2030;" horiz-adv-x="1240" 
d="M215 346q-86 0 -128 55t-42 128q0 32 9.5 62.5t28.5 58.5t53 45t79 17q86 0 128 -55t42 -128q0 -32 -9 -62.5t-28 -58.5t-53.5 -45t-79.5 -17zM248 -12h-129l477 724h129zM215 454q28 0 43 21.5t15 53.5q0 34 -15 54.5t-43 20.5t-43 -21.5t-15 -53.5q0 -34 15 -54.5
t43 -20.5zM629 -12q-86 0 -128 54.5t-42 128.5q0 32 9.5 62.5t28.5 58.5t53 45t79 17q86 0 128 -54.5t42 -128.5q0 -45 -15 -84t-55 -69t-100 -30zM1025 -12q-86 0 -128 54.5t-42 128.5q0 32 9.5 62.5t28.5 58.5t53 45t79 17q86 0 128 -54.5t42 -128.5q0 -45 -15 -84
t-55 -69t-100 -30zM629 96q28 0 43 21.5t15 53.5q0 34 -15 54.5t-43 20.5t-43 -21.5t-15 -53.5q0 -75 58 -75zM1025 96q28 0 43 21.5t15 53.5q0 34 -15 54.5t-43 20.5t-43 -21.5t-15 -53.5q0 -75 58 -75z" />
    <glyph glyph-name="minute" unicode="&#x2032;" horiz-adv-x="248" 
d="M35 397l20 333h158l-64 -333h-114z" />
    <glyph glyph-name="second" unicode="&#x2033;" horiz-adv-x="448" 
d="M35 397l20 333h158l-64 -333h-114zM235 397l20 333h158l-64 -333h-114z" />
    <glyph glyph-name="guilsinglleft" unicode="&#x2039;" horiz-adv-x="337" 
d="M182 0l-152 256l152 255h140l-152 -255l152 -256h-140z" />
    <glyph glyph-name="guilsinglright" unicode="&#x203a;" horiz-adv-x="337" 
d="M15 0l152 256l-152 255h140l152 -255l-152 -256h-140z" />
    <glyph glyph-name="fraction" unicode="&#x2044;" horiz-adv-x="363" 
d="M-120 -12l478 724h125l-478 -724h-125z" />
    <glyph glyph-name="uni207F" unicode="&#x207f;" horiz-adv-x="482" 
d="M320 283v247q0 40 -20 60t-53 20q-80 0 -80 -79v-248h-107v419h107v-39q38 49 112 49q62 0 105 -39.5t43 -125.5v-264h-107z" />
    <glyph glyph-name="afii08941" unicode="&#x20a4;" horiz-adv-x="612" 
d="M86 0v117q54 26 66 79h-77v100h86q-1 27 -18 66h-68v100h34q-5 22 -5 52q0 79 63.5 138.5t180.5 59.5q69 0 120 -17.5t105 -56.5l-51 -124q-26 21 -43.5 32.5t-54 25t-76.5 13.5q-56 0 -83 -23t-27 -57q0 -16 9 -43h197v-100h-159q12 -33 13 -66h146v-100h-155
q-8 -38 -38 -69h331v-127h-496z" />
    <glyph glyph-name="Euro" unicode="&#x20ac;" horiz-adv-x="639" 
d="M381 -12q-206 0 -248 229h-94l42 96h39q-1 13 -1 33q0 13 1 27h-81l42 97h52q21 108 85 175t173 67q98 0 191 -67l-48 -118q-69 60 -143 60q-90 0 -121 -116h242l-40 -98h-217q-1 -13 -1 -23q0 -26 1 -37h194l-40 -98h-137q24 -102 109 -102q65 0 114 71l104 -64
q-79 -132 -218 -132z" />
    <glyph glyph-name="uni2105" unicode="&#x2105;" horiz-adv-x="1073" 
d="M242 272q-89 0 -140.5 58.5t-51.5 161.5q0 102 52 161t140 59q134 0 175 -123l-102 -34q-21 55 -73 55q-39 0 -62 -32.5t-23 -85.5q0 -54 22.5 -86t60.5 -32q59 0 76 62l102 -31q-37 -133 -176 -133zM232 -12l478 724h115l-478 -724h-115zM830 -12q-89 0 -141 58.5
t-52 160.5t52 161t141 59t141 -59t52 -161t-51.5 -160.5t-141.5 -58.5zM830 90q40 0 63 31t23 86t-23 86.5t-63 31.5q-41 0 -63.5 -31.5t-22.5 -86.5t22.5 -86t63.5 -31z" />
    <glyph glyph-name="uni2113" unicode="&#x2113;" horiz-adv-x="498" 
d="M261 -12q-60 0 -95 31t-35 96v85q-17 -9 -35 -16l-41 104q20 9 76 38v177q0 113 41 161t120 48q72 0 116.5 -40t44.5 -113q0 -52 -17.5 -98t-49 -81.5t-60 -59t-65.5 -47.5v-124q0 -26 8 -36.5t25 -10.5q38 0 80 47l40 -93q-62 -68 -153 -68zM292 612q-17 0 -24 -20.5
t-7 -82.5v-103q62 53 62 140q0 66 -31 66z" />
    <glyph glyph-name="uni2116" unicode="&#x2116;" horiz-adv-x="1179" 
d="M912 273q-88 0 -140.5 58.5t-52.5 160.5t52.5 161t140.5 59t140 -59t52 -161t-52 -160.5t-140 -58.5zM638 0h-120l-278 408q-14 21 -29 53q3 -25 3 -53v-408h-134v700h127l271 -403q17 -28 29 -53q-3 24 -3 53v403h134v-700zM912 376q40 0 63 31t23 85q0 55 -23 86.5
t-63 31.5q-41 0 -63.5 -31.5t-22.5 -86.5t22.5 -85.5t63.5 -30.5zM719 104v106h385v-106h-385z" />
    <glyph glyph-name="trademark" unicode="&#x2122;" horiz-adv-x="844" 
d="M126 278v333h-106v89h308v-89h-105v-333h-97zM774 278h-97v217l-9 -19l-104 -202l-104 202l-10 19v-217h-97v422h93l106 -207l12 -26l11 26l106 207h93v-422z" />
    <glyph glyph-name="uni2126" unicode="&#x2126;" horiz-adv-x="748" 
d="M412 0v107q66 69 95 133t29 149q0 37 -8.5 69.5t-26 61.5t-50.5 45.5t-77 16.5q-85 0 -123.5 -56t-38.5 -138q0 -84 29.5 -148t94.5 -133v-107h-266v130h113q-111 106 -111 260q0 60 16 114.5t50 102.5t94.5 76.5t141.5 28.5q65 0 117.5 -19t86 -51t56.5 -74.5
t32.5 -86.5t9.5 -91q0 -152 -112 -260h114v-130h-266z" />
    <glyph glyph-name="estimated" unicode="&#x212e;" horiz-adv-x="810" 
d="M410 -12q-145 0 -245 100t-100 262q0 89 29 160t78 115t111 67t130 23q135 0 230 -96t102 -272h-510v-203q24 -34 71 -56t106 -22q142 0 227 131l64 -41q-55 -83 -123.5 -125.5t-169.5 -42.5zM235 425l345 1v145q-26 30 -71 48t-97 18q-106 0 -177 -61v-151z" />
    <glyph glyph-name="uni2153" unicode="&#x2153;" horiz-adv-x="754" 
d="M14 -12l478 724h125l-478 -724h-125zM61 283v310h-51v83q57 0 74 29h87v-422h-110zM569 -7q-59 0 -99.5 32t-58.5 91l101 26q13 -51 58 -51q20 0 31.5 11t11.5 29q0 40 -54 40h-38v92h37q41 0 41 34q0 15 -9 24.5t-26 9.5q-33 0 -47 -36l-92 34q19 47 58 73.5t90 26.5
q61 0 97.5 -35t36.5 -85q0 -29 -15 -53t-38 -37q67 -25 67 -96q0 -58 -40 -94t-112 -36z" />
    <glyph glyph-name="uni2154" unicode="&#x2154;" horiz-adv-x="916" 
d="M24 283q0 172 147 247q47 25 47 48q0 15 -10 24.5t-28 9.5q-42 0 -56 -49l-99 24q16 57 58 91t102 34q66 0 106.5 -36t40.5 -94q0 -37 -17 -64.5t-35.5 -40t-57.5 -33.5q-55 -32 -68 -59h177v-102h-307zM176 -12l478 724h125l-478 -724h-125zM731 -7q-59 0 -99.5 32
t-58.5 91l101 26q13 -51 58 -51q20 0 31.5 11t11.5 29q0 40 -54 40h-38v92h37q41 0 41 34q0 15 -9 24.5t-26 9.5q-33 0 -47 -36l-92 34q19 47 58 73.5t90 26.5q61 0 97.5 -35t36.5 -85q0 -29 -15 -53t-38 -37q67 -25 67 -96q0 -58 -40 -94t-112 -36z" />
    <glyph glyph-name="oneeighth" unicode="&#x215b;" horiz-adv-x="760" 
d="M14 -12l478 724h125l-478 -724h-125zM61 283v310h-51v83q57 0 74 29h87v-422h-110zM570 -8q-69 0 -113 37t-44 97q0 34 20 62.5t49 41.5q-52 29 -52 85q0 51 37.5 82.5t102.5 31.5t102.5 -31.5t37.5 -82.5q0 -56 -52 -85q29 -13 49 -41.5t20 -62.5q0 -60 -43.5 -97
t-113.5 -37zM570 270q20 0 31 11t11 27t-11 27.5t-31 11.5q-18 0 -30 -11.5t-12 -27.5t12 -27t30 -11zM570 74q28 0 45 15t17 40q0 26 -17 42.5t-45 16.5t-45 -16.5t-17 -42.5q0 -25 17 -40t45 -15z" />
    <glyph glyph-name="threeeighths" unicode="&#x215c;" horiz-adv-x="877" 
d="M170 276q-59 0 -99.5 32t-58.5 91l101 26q13 -51 58 -51q20 0 31.5 11t11.5 29q0 40 -54 40h-38v92h37q41 0 41 34q0 15 -9 24.5t-26 9.5q-33 0 -47 -36l-92 34q19 47 58 73.5t90 26.5q61 0 97.5 -35.5t36.5 -84.5q0 -30 -15 -54t-38 -36q67 -25 67 -96q0 -58 -40 -94
t-112 -36zM131 -12l478 724h125l-478 -724h-125zM687 -8q-69 0 -113 37t-44 97q0 34 20 62.5t49 41.5q-52 29 -52 85q0 51 37.5 82.5t102.5 31.5t102.5 -31.5t37.5 -82.5q0 -56 -52 -85q29 -13 49 -41.5t20 -62.5q0 -60 -43.5 -97t-113.5 -37zM687 270q20 0 31 11t11 27
t-11.5 27.5t-30.5 11.5q-18 0 -30 -11.5t-12 -27.5t12 -27t30 -11zM687 74q28 0 45 15t17 40q0 26 -17 42.5t-45 16.5t-45 -16.5t-17 -42.5q0 -25 17 -40t45 -15z" />
    <glyph glyph-name="fiveeighths" unicode="&#x215d;" horiz-adv-x="874" 
d="M167 276q-84 0 -146 46l56 80q42 -30 84 -30q28 0 45.5 13.5t17.5 37.5q0 23 -12.5 35.5t-33.5 12.5q-35 0 -55 -38l-91 48l12 231h264v-96h-172l-4 -63q26 14 61 14q66 0 102.5 -41.5t36.5 -99.5q0 -70 -46 -110t-119 -40zM128 -12l478 724h125l-478 -724h-125zM684 -8
q-69 0 -113 37t-44 97q0 34 20 62.5t49 41.5q-52 29 -52 85q0 51 37.5 82.5t102.5 31.5t102.5 -31.5t37.5 -82.5q0 -56 -52 -85q29 -13 49 -41.5t20 -62.5q0 -60 -43.5 -97t-113.5 -37zM684 270q20 0 31 11t11 27t-11 27.5t-31 11.5q-18 0 -30 -11.5t-12 -27.5t12 -27
t30 -11zM684 74q28 0 45 15t17 40q0 26 -17 42.5t-45 16.5t-45 -16.5t-17 -42.5q0 -25 17 -40t45 -15z" />
    <glyph glyph-name="seveneighths" unicode="&#x215e;" horiz-adv-x="785" 
d="M87 283q0 180 98 327h-180v102h302v-85q-57 -65 -82.5 -161.5t-27.5 -182.5h-110zM39 -12l478 724h125l-478 -724h-125zM595 -8q-69 0 -113 37t-44 97q0 34 20 62.5t49 41.5q-52 29 -52 85q0 51 37.5 82.5t102.5 31.5t102.5 -31.5t37.5 -82.5q0 -56 -52 -85
q29 -13 49 -41.5t20 -62.5q0 -60 -43.5 -97t-113.5 -37zM595 270q20 0 31 11t11 27t-11.5 27.5t-30.5 11.5q-18 0 -30 -11.5t-12 -27.5t12 -27t30 -11zM595 74q28 0 45 15t17 40q0 26 -17 42.5t-45 16.5t-45 -16.5t-17 -42.5q0 -25 17 -40t45 -15z" />
    <glyph glyph-name="arrowleft" unicode="&#x2190;" horiz-adv-x="760" 
d="M345 136q-4 0 -17 8l-292 199q-11 7 -11 17t11 17l292 200q13 8 17 8q12 0 12 -11q0 -5 -6 -21l-47 -135l421 11v-138l-421 11l47 -134q6 -16 6 -21q0 -11 -12 -11z" />
    <glyph glyph-name="arrowup" unicode="&#x2191;" horiz-adv-x="500" 
d="M181 0l11 421l-135 -47q-16 -6 -21 -6q-11 0 -11 12q0 4 8 17l200 292q7 11 17 11t17 -11l200 -292q8 -13 8 -17q0 -12 -11 -12q-5 0 -21 6l-135 47l11 -421h-138z" />
    <glyph glyph-name="arrowright" unicode="&#x2192;" horiz-adv-x="760" 
d="M415 136q-12 0 -12 11q0 5 6 21l47 134l-421 -11v138l421 -11l-47 135q-6 16 -6 21q0 11 12 11q4 0 17 -8l292 -200q11 -7 11 -17t-11 -17l-292 -199q-13 -8 -17 -8z" />
    <glyph glyph-name="arrowdown" unicode="&#x2193;" horiz-adv-x="500" 
d="M250 0q-10 0 -17 11l-200 292l-8 17q0 12 11 12q5 0 21 -6l135 -47l-11 421h138l-11 -421l135 47q16 6 21 6q11 0 11 -12q0 -4 -8 -17l-200 -292q-7 -11 -17 -11z" />
    <glyph glyph-name="arrowboth" unicode="&#x2194;" horiz-adv-x="1025" 
d="M680 136q-12 0 -12 11q0 5 6 21l46 132h-415l46 -132q6 -16 6 -21q0 -11 -12 -11q-4 0 -17 8l-292 199q-11 7 -11 17t11 17l292 200q13 8 17 8q12 0 12 -11q0 -5 -6 -21l-46 -133h415l-46 133q-6 16 -6 21q0 11 12 11q4 0 17 -8l292 -200q11 -7 11 -17t-11 -17l-292 -199
q-13 -8 -17 -8z" />
    <glyph glyph-name="arrowupdn" unicode="&#x2195;" horiz-adv-x="500" 
d="M249 -170q-10 0 -17 11l-199 292q-8 13 -8 17q0 12 11 12q5 0 21 -6l132 -46v376l-132 -46q-16 -6 -21 -6q-11 0 -11 12q0 4 8 17l199 292q7 11 17 11t17 -11l201 -292q8 -13 8 -17q0 -12 -11 -12q-5 0 -21 6l-134 46v-376l134 46q16 6 21 6q11 0 11 -12q0 -4 -8 -17
l-201 -292q-7 -11 -17 -11z" />
    <glyph glyph-name="uni2196" unicode="&#x2196;" horiz-adv-x="609" 
d="M492 53l-290 306l-62 -129q-10 -21 -18 -21q-11 0 -15 21l-63 331q-4 22 -4 25q0 16 16 16q5 0 20 -3l337 -63q22 -5 22 -15q0 -8 -21 -18l-130 -62l305 -290z" />
    <glyph glyph-name="uni2197" unicode="&#x2197;" horiz-adv-x="609" 
d="M117 53l-97 98l305 290l-130 62q-21 10 -21 18q0 10 22 15l337 63q15 3 20 3q16 0 16 -16q0 -3 -4 -25l-63 -331q-4 -21 -15 -21q-2 0 -3.5 0.5t-3 1.5t-2.5 2t-2.5 3.5t-2 4t-2 4.5l-2.5 5l-62 129z" />
    <glyph glyph-name="uni2198" unicode="&#x2198;" horiz-adv-x="609" 
d="M553 53q-5 0 -20 3l-337 63q-22 5 -22 15q0 8 21 18l130 62l-305 290l97 98l290 -306l62 129l2.5 5t2 4.5t2 4t2.5 3.5t2.5 2t3 1.5t3.5 0.5q11 0 15 -21l63 -331q4 -22 4 -25q0 -16 -16 -16z" />
    <glyph glyph-name="uni2199" unicode="&#x2199;" horiz-adv-x="609" 
d="M56 53q-16 0 -16 16q0 3 4 25l63 331q4 21 15 21q4 0 7.5 -3t5 -6t5.5 -12l62 -129l290 306l97 -98l-305 -290l130 -62q21 -10 21 -18q0 -10 -22 -15l-337 -63q-15 -3 -20 -3z" />
    <glyph glyph-name="uni21B3" unicode="&#x21b3;" horiz-adv-x="795" 
d="M749 231q11 -7 11 -17t-11 -17l-292 -199q-13 -8 -17 -8q-12 0 -12 11q0 5 6 21l46 132h-404v546h125v-426h279l-46 133q-6 16 -6 21q0 11 12 11q4 0 17 -8z" />
    <glyph glyph-name="uni21B4" unicode="&#x21b4;" horiz-adv-x="795" 
d="M749 322q11 0 11 -12q0 -4 -8 -17l-199 -292q-7 -11 -17 -11t-17 11l-200 292q-8 13 -8 17q0 12 11 12q5 0 21 -6l131 -45v309h-398v120h522v-429l130 45q16 6 21 6z" />
    <glyph glyph-name="uni21B5" unicode="&#x21b5;" horiz-adv-x="795" 
d="M594 700h125v-546h-404l46 -132q6 -16 6 -21q0 -11 -12 -11q-4 0 -17 8l-292 199q-11 7 -11 17t11 17l292 200q13 8 17 8q12 0 12 -11q0 -5 -6 -21l-46 -133h279v426z" />
    <glyph glyph-name="uni21B6" unicode="&#x21b6;" horiz-adv-x="837" 
d="M480 712q117 0 199.5 -76t82.5 -214v-422h-124v422q0 82 -44.5 126.5t-113.5 44.5q-70 0 -114 -44.5t-44 -126.5v-26l130 45q16 6 21 6q11 0 11 -12q0 -4 -8 -17l-199 -292q-7 -11 -17 -11t-17 11l-200 292q-8 13 -8 17q0 12 11 12q5 0 21 -6l131 -45v26q0 94 41.5 161.5
t104 98t136.5 30.5z" />
    <glyph glyph-name="uni21B7" unicode="&#x21b7;" horiz-adv-x="837" 
d="M791 447q11 0 11 -12q0 -4 -8 -17l-200 -292q-7 -11 -17 -11t-17 11l-199 292q-8 13 -8 17q0 12 11 12q5 0 21 -6l130 -45v26q0 82 -44 126.5t-114 44.5q-69 0 -113.5 -44.5t-44.5 -126.5v-422h-124v422q0 138 82.5 214t199.5 76q74 0 136.5 -30.5t104 -98t41.5 -161.5
v-26l131 45q16 6 21 6z" />
    <glyph glyph-name="uni21B8" unicode="&#x21b8;" horiz-adv-x="609" 
d="M40 580v120h549v-120h-549zM492 -47l-290 306l-62 -129q-10 -21 -18 -21q-11 0 -15 21l-63 331q-4 22 -4 25q0 16 16 16q5 0 20 -3l337 -63q22 -5 22 -15q0 -8 -21 -18l-130 -62l305 -290z" />
    <glyph glyph-name="uni21B9" unicode="&#x21b9;" horiz-adv-x="1032" 
d="M585 311q-4 0 -17 8l-292 199q-11 7 -11 17t11 17l292 200q13 8 17 8q12 0 12 -11q0 -5 -6 -21l-47 -135l412 11v-138l-412 11l47 -134q6 -16 6 -21q0 -11 -12 -11zM76 319v431h130v-431h-130zM447 -260q-12 0 -12 11q0 5 6 21l47 134l-412 -11v138l412 -11l-47 135
q-6 16 -6 21q0 11 12 11q4 0 17 -8l292 -200q11 -7 11 -17t-11 -17l-292 -199q-13 -8 -17 -8zM826 -250v429h130v-429h-130z" />
    <glyph glyph-name="uni21BA" unicode="&#x21ba;" horiz-adv-x="846" 
d="M794 659q22 -5 22 -15q0 -8 -21 -18l-130 -62q81 -92 81 -214q0 -134 -95 -228.5t-228 -94.5t-228 94.5t-95 228.5q0 135 95 228l81 -81q-61 -61 -61 -147t61.5 -147t146.5 -61t146.5 61t61.5 147q0 74 -48 132l-62 -129l-2.5 -5t-2 -4.5t-2 -4t-2.5 -3.5t-2.5 -2
t-3 -1.5t-3.5 -0.5q-11 0 -15 21l-63 331q-4 22 -4 25q0 16 16 16q5 0 20 -3z" />
    <glyph glyph-name="uni21DA" unicode="&#x21da;" horiz-adv-x="760" 
d="M725 425h-418l-13 -35h431v-60h-431l13 -35h418v-60h-397l23 -67q6 -16 6 -21q0 -11 -12 -11q-4 0 -17 8l-292 199q-11 7 -11 17t11 17l292 200q13 8 17 8q12 0 12 -11q0 -5 -6 -21l-24 -68h398v-60z" />
    <glyph glyph-name="uni21DB" unicode="&#x21db;" horiz-adv-x="760" 
d="M724 377q11 -7 11 -17t-11 -17l-292 -199q-13 -8 -17 -8q-12 0 -12 11q0 5 6 21l23 67h-397v60h418l13 35h-431v60h431l-13 35h-418v60h398l-24 68q-6 16 -6 21q0 11 12 11q4 0 17 -8z" />
    <glyph glyph-name="uni21DC" unicode="&#x21dc;" horiz-adv-x="760" 
d="M659 423h66v-124h-91l-23 72l-39 -120h-64l-39 121l-39 -121h-64l-15 48h-66l46 -131q6 -16 6 -21q0 -11 -11 -11q-6 0 -17 8l-273 200q-11 8 -11 17q0 8 11 16l273 200q11 8 17 8q11 0 11 -11q0 -5 -6 -21l-46 -130h90l23 -73l39 121h64l39 -121l39 121h64z" />
    <glyph glyph-name="uni21DD" unicode="&#x21dd;" horiz-adv-x="760" 
d="M724 377q11 -8 11 -16q0 -9 -11 -17l-273 -200q-11 -8 -17 -8q-11 0 -11 11q0 5 6 21l46 131h-66l-15 -48h-64l-39 121l-39 -121h-64l-39 120l-23 -72h-91v124h66l16 48h64l39 -121l39 121h64l39 -121l23 73h90l-46 130q-6 16 -6 21q0 11 11 11q6 0 17 -8z" />
    <glyph glyph-name="uni21DE" unicode="&#x21de;" horiz-adv-x="500" 
d="M467 397q8 -13 8 -17q0 -12 -11 -12q-5 0 -21 6l-132 46v-104h152v-84h-152v-64h152v-84h-152v-84h-122v84h-154v84h154v64h-154v84h154v104l-132 -46q-16 -6 -21 -6q-11 0 -11 12q0 4 8 17l200 292q7 11 17 11t17 -11z" />
    <glyph glyph-name="uni21DF" unicode="&#x21df;" horiz-adv-x="500" 
d="M464 332q11 0 11 -12q0 -4 -8 -17l-200 -292q-7 -11 -17 -11t-17 11l-200 292q-8 13 -8 17q0 12 11 12q5 0 21 -6l132 -46v104h-154v84h154v64h-154v84h154v84h122v-84h152v-84h-152v-64h152v-84h-152v-104l132 46q16 6 21 6z" />
    <glyph glyph-name="uni21E0" unicode="&#x21e0;" horiz-adv-x="760" 
d="M351 553l-46 -133h74v-120h-74l46 -133q6 -16 6 -21q0 -11 -12 -11q-4 0 -17 8l-292 200q-11 7 -11 17t11 17l292 200q13 8 17 8q12 0 12 -11q0 -5 -6 -21zM453 300v120h99v-120h-99zM626 420h99v-120h-99v120z" />
    <glyph glyph-name="uni21E1" unicode="&#x21e1;" horiz-adv-x="500" 
d="M467 397q8 -13 8 -17q0 -12 -11 -12q-5 0 -21 6l-131 45v-75h-124v75l-131 -45q-16 -6 -21 -6q-11 0 -11 12q0 4 8 17l200 292q7 11 17 11t17 -11zM188 172v98h124v-98h-124zM188 0v98h124v-98h-124z" />
    <glyph glyph-name="uni21E2" unicode="&#x21e2;" horiz-adv-x="760" 
d="M724 377q11 -7 11 -17t-11 -17l-292 -200q-13 -8 -17 -8q-12 0 -12 11q0 5 6 21l46 133h-74v120h74l-46 133q-6 16 -6 21q0 11 12 11q4 0 17 -8zM35 300v120h99v-120h-99zM208 300v120h99v-120h-99z" />
    <glyph glyph-name="uni21E3" unicode="&#x21e3;" horiz-adv-x="500" 
d="M312 700v-98h-124v98h124zM312 528v-98h-124v98h124zM464 332q11 0 11 -12q0 -4 -8 -17l-200 -292q-7 -11 -17 -11t-17 11l-200 292q-8 13 -8 17q0 12 11 12q5 0 21 -6l131 -45v75h124v-75l131 45q16 6 21 6z" />
    <glyph glyph-name="uni21E4" unicode="&#x21e4;" horiz-adv-x="950" 
d="M76 104v511h130v-511h-130zM585 136q-4 0 -17 8l-292 199q-11 7 -11 17t11 17l292 200q13 8 17 8q12 0 12 -11q0 -5 -6 -21l-47 -135l371 11v-138l-371 11l47 -134q6 -16 6 -21q0 -11 -12 -11z" />
    <glyph glyph-name="uni21E5" unicode="&#x21e5;" horiz-adv-x="950" 
d="M744 104v511h130v-511h-130zM365 136q-12 0 -12 11q0 5 6 21l47 134l-371 -11v138l371 -11l-47 135q-6 16 -6 21q0 11 12 11q4 0 17 -8l292 -200q11 -7 11 -17t-11 -17l-292 -199q-13 -8 -17 -8z" />
    <glyph glyph-name="partialdiff" unicode="&#x2202;" horiz-adv-x="596" 
d="M257 -12q-105 0 -166 58t-61 164q0 102 72.5 168t172.5 66q84 0 133 -46l-6 32q-21 78 -80.5 115.5t-140.5 41.5l32 125q173 -18 250.5 -112t77.5 -267q0 -70 -15.5 -129.5t-48 -109t-89 -78t-131.5 -28.5zM267 113q54 0 89 32.5t35 79.5q0 45 -28 69.5t-76 24.5
q-54 0 -89 -33t-35 -80q0 -44 28 -68.5t76 -24.5z" />
    <glyph glyph-name="uni2206" unicode="&#x2206;" horiz-adv-x="641" 
d="M10 0l249 700h124l248 -700h-621zM192 127h258l-108 323q-2 6 -6.5 18.5t-8 23.5t-5.5 21q-2 -10 -5.5 -21t-8 -23.5t-6.5 -18.5z" />
    <glyph glyph-name="product" unicode="&#x220f;" horiz-adv-x="737" 
d="M517 -140v715h-297v-715h-130v840h557v-840h-130z" />
    <glyph glyph-name="summation" unicode="&#x2211;" horiz-adv-x="621" 
d="M45 -139v122l226 308l-212 288v122h509v-125h-345l212 -286l-223 -304h374v-125h-541z" />
    <glyph glyph-name="minus" unicode="&#x2212;" horiz-adv-x="630" 
d="M80 280v126h470v-126h-470z" />
    <glyph glyph-name="uni2215" unicode="&#x2215;" horiz-adv-x="363" 
d="M-120 -12l478 724h125l-478 -724h-125z" />
    <glyph glyph-name="uni2219" unicode="&#x2219;" horiz-adv-x="241" 
d="M120 267q-36 0 -60 24t-24 58t24 58.5t60 24.5t60.5 -24.5t24.5 -58.5t-24.5 -58t-60.5 -24z" />
    <glyph glyph-name="radical" unicode="&#x221a;" horiz-adv-x="578" 
d="M548 700l-214 -700h-101l-188 353h141l82 -159l146 506h134z" />
    <glyph glyph-name="infinity" unicode="&#x221e;" horiz-adv-x="1012" 
d="M728 110q-137 0 -222 118q-85 -118 -223 -118q-107 0 -177.5 63t-70.5 171t70.5 171t177.5 63q138 0 223 -118q88 118 220 118q109 0 180 -62.5t71 -171.5t-70.5 -171.5t-178.5 -62.5zM286 235q90 0 160 109q-67 109 -160 109q-53 0 -87 -29t-34 -80t34 -80t87 -29z
M725 235q53 0 87.5 29t34.5 80t-34.5 80t-87.5 29q-93 0 -159 -109q69 -109 159 -109z" />
    <glyph glyph-name="integral" unicode="&#x222b;" horiz-adv-x="430" 
d="M154 -140q-60 0 -114 25v106q45 -17 73 -17q37 0 37 35v580q0 123 126 123q65 0 114 -25v-106q-43 17 -73 17q-37 0 -37 -35v-580q0 -123 -126 -123z" />
    <glyph glyph-name="approxequal" unicode="&#x2248;" horiz-adv-x="630" 
d="M409 367q-47 0 -104.5 27t-77.5 27q-39 0 -46 -54h-103q0 78 35.5 129.5t106.5 51.5q47 0 103 -27t79 -27q41 0 46 54h103q0 -79 -34.5 -130t-107.5 -51zM409 139q-47 0 -104.5 27t-77.5 27q-39 0 -46 -54h-103q0 78 35.5 129.5t106.5 51.5q47 0 103 -27t79 -27
q41 0 46 54h103q0 -79 -34.5 -130t-107.5 -51z" />
    <glyph glyph-name="notequal" unicode="&#x2260;" horiz-adv-x="630" 
d="M300 169l-32 -74h-141l32 74h-91v126h145l42 96h-187v126h242l37 86h141l-37 -86h90v-126h-145l-41 -96h186v-126h-241z" />
    <glyph glyph-name="lessequal" unicode="&#x2264;" horiz-adv-x="630" 
d="M551 156l-471 172v103l471 171v-126l-288 -97l288 -97v-126zM80 0v126h470v-126h-470z" />
    <glyph glyph-name="greaterequal" unicode="&#x2265;" horiz-adv-x="630" 
d="M80 156v126l288 97l-288 97v126l471 -171v-103zM80 0v126h470v-126h-470z" />
    <glyph glyph-name="lozenge" unicode="&#x25ca;" horiz-adv-x="608" 
d="M257 -12l-202 362l202 362h94l202 -362l-202 -362h-94zM304 540l-109 -190l109 -190l109 190z" />
    <glyph glyph-name="uni25CC" unicode="&#x25cc;" horiz-adv-x="644" 
d="M292 594q0 14 8.5 23t21.5 9t21.5 -9t8.5 -23q0 -13 -8.5 -21.5t-21.5 -8.5t-21.5 8.5t-8.5 21.5zM201 576q0 14 8.5 23t22.5 9q13 0 21.5 -9t8.5 -23q0 -13 -8.5 -21.5t-21.5 -8.5q-14 0 -22.5 8.5t-8.5 21.5zM381 576q0 14 9 22.5t21 8.5q14 0 23 -8.5t9 -22.5
q0 -13 -9 -21.5t-23 -8.5t-22 8.5t-8 21.5zM125 526q0 14 9 22t22 8t21.5 -8t8.5 -22t-8.5 -22.5t-21.5 -8.5t-22 8.5t-9 22.5zM458 526q0 14 8.5 22t21.5 8t22 -8t9 -22t-9 -22.5t-22 -8.5t-21.5 8.5t-8.5 22.5zM509 449q0 13 8.5 22.5t21.5 9.5q14 0 22.5 -9.5t8.5 -22.5
q0 -12 -8.5 -21t-22.5 -9q-13 0 -21.5 9t-8.5 21zM74 449q0 13 8.5 22t22.5 9t22.5 -9t8.5 -22q0 -12 -9.5 -21.5t-21.5 -9.5q-14 0 -22.5 9t-8.5 22zM55 359q0 14 9 22.5t23 8.5q30 0 30 -31q0 -30 -30 -30q-32 0 -32 30zM527 359q0 31 30 31q13 0 22.5 -8.5t9.5 -22.5
t-9.5 -22t-22.5 -8q-30 0 -30 30zM74 269q0 31 31 31q13 0 21.5 -8.5t8.5 -22.5t-8.5 -22.5t-21.5 -8.5q-14 0 -22.5 9t-8.5 22zM508 270q0 13 9 21.5t22 8.5q14 0 22.5 -8.5t8.5 -21.5q0 -31 -31 -31t-31 31zM125 193q0 14 9 22.5t22 8.5t21.5 -8.5t8.5 -22.5t-8.5 -22
t-21.5 -8t-22 8t-9 22zM458 193q0 14 8.5 22.5t21.5 8.5t22 -8.5t9 -22.5t-9 -22t-22 -8t-21.5 8t-8.5 22zM201 143q0 13 9 21.5t23 8.5q13 0 21.5 -8.5t8.5 -21.5q0 -14 -9 -23t-21 -9q-14 0 -23 9t-9 23zM382 142q0 14 8.5 22.5t21.5 8.5q31 0 31 -31t-31 -31
q-13 0 -21.5 8.5t-8.5 22.5zM292 124q0 14 8.5 22.5t21.5 8.5t21.5 -8.5t8.5 -22.5t-8.5 -22.5t-21.5 -8.5t-21.5 8.5t-8.5 22.5z" />
    <glyph glyph-name="uniF6C3" unicode="&#xf6c3;" horiz-adv-x="0" 
d="M-162 730v-8q0 -146 -110 -251l-42 32q13 27 22 91.5t9 135.5h121z" />
    <glyph glyph-name="u1F3A9" unicode="&#x1f3a9;" horiz-adv-x="935" 
d="M459 9q-169 0 -294 88t-125 201q0 30 13.5 54t40.5 42.5t55.5 31t70.5 27.5q20 75 68 190q24 55 61 55q31 0 65 -16.5t55 -16.5q18 0 54 16.5t65 16.5q38 0 53 -43q65 -177 72 -202q182 -52 182 -159q0 -109 -128 -197t-308 -88zM469 207q62 0 115 20.5t84 50t48.5 58.5
t17.5 49q0 11 -7 30l-14 37q-30 -56 -102 -91t-145 -35q-64 0 -136.5 31t-109.5 95l-19 -55q-2 -8 -2 -11q0 -11 8.5 -31t30 -46t51 -48.5t77 -38t103.5 -15.5z" />
    <glyph glyph-name="u1F427" unicode="&#x1f427;" horiz-adv-x="706" 
d="M232 -5q-4 0 -19 4.5t-35.5 11.5t-34.5 10q-12 3 -34 7.5t-29 6.5q-3 1 -8 2.5t-6 1.5q-16 4 -16 20q0 7 6 20t6 22q0 10 -4.5 23t-4.5 18q0 16 17 18q5 2 27 4q29 6 29 34q2 -12 2 -14q0 -13 -10.5 -22t-24.5 -9h-19q-12 0 -12 -9q0 -7 6 -22t6 -24q0 -7 -5.5 -19.5
t-5.5 -19.5t7 -10q3 -1 54 -12.5t83 -21.5q9 -3 19 -3q44 0 44 33q0 24 -20 57q-74 116 -100 116q-5 0 -8 -1.5t-4 -3t-2 -1.5q-4 0 -4 19q0 16 7 30q8 12 16.5 33t11.5 27q10 35 21 52q3 7 11 17l19.5 26l20.5 27q13 25 13 36q0 1 -0.5 4t-0.5 5q-4 51 -4 125q0 45 28 68.5
t66 23.5q37 0 63.5 -13.5t38.5 -34.5t17 -40t5 -38v-16q0 -87 57 -149q35 -37 59 -104q12 -35 13 -62q2 -10 2 -15q0 -25 -24 -41q-23 -33 -46 -33q-9 0 -17 4q-10 3 -19.5 21t-15.5 18q-15 0 -15 -30q0 -9 3.5 -29.5t3.5 -33.5q0 -10 -2.5 -29.5t-2.5 -30.5q0 -14 11.5 -25
t27.5 -11q17 0 31 14q36 30 76 43q1 0 10 3.5l14.5 5.5t11 7t5.5 10q0 7 -9 12.5t-19 9.5t-19 15.5t-9 28.5q0 16 5 23q2 -18 4 -26q7 -22 31 -36.5t24 -24.5q0 -16 -41 -37q-34 -17 -55 -31l-31 -26q-9 -9 -36 -9q-28 0 -42.5 17.5t-23.5 17.5q-7 0 -23 1t-24 1
q-9 0 -27.5 -1t-28.5 -1q-28 0 -55.5 -17.5t-36.5 -17.5zM286 33q9 5 9 16q0 7 -4 14.5t-8 12.5l-4 5q0 5 8 5q2 0 7 -4t17.5 -8t33.5 -4q25 0 50.5 9.5t34.5 28.5q5 10 12 10q4 0 4 -14q0 -23 -8 -43q-3 -15 -3 -16q0 -6 10 -6q3 23 6 39.5t4 23t1 14.5q0 7 -2 18.5
t-4 20.5l-1 9q0 44 28 44q3 0 3 3q1 11 12 17.5t24 6.5q7 0 16 -4t14 -5q-3 5 -11.5 10.5t-10.5 6.5q6 18 6 36q0 28 -14 65.5t-38 48.5q45 -58 45 -118q0 -8 -2 -20q-4 -19 -27 -19q-11 0 -11 22q0 87 -37 127q-8 39 -31 73q-8 8 -8 24v6q6 15 6 22t-5.5 11t-16.5 6.5
t-14 4.5q-3 3 -8.5 4.5t-8.5 5t-3 11.5q0 28 21 28q9 0 14.5 -7t5.5 -17q0 -8 -2 -13t-2 -6q0 -4 13 -4q6 2 7 6q0 34 -7 47q-11 17 -26 17q-14 0 -26 -9.5t-12 -23.5q0 -17 2 -25q-5 4 -18 4h-8q-6 0 -6 5q0 45 -25 45q-9 0 -16.5 -12t-7.5 -25q0 -8 4 -19.5t10 -11.5l7 6
q-12 0 -12 22q0 20 15 20t15 -27q0 -6 -5 -9q-7 -9 -23 -21q-5 -4 -7 -11q-3 -2 -3 -3q0 -4 6 -6q4 -6 8 -10t7 -6t4 -3q4 -4 16 -4h7q11 0 39 7q15 3 24.5 8.5t13.5 9.5l4 4l1 -1h2q3 0 3 -4t-6 -8l-42 -16q-26 -11 -44 -11q-1 0 -4.5 1t-5.5 1h-9q13 -17 29 -17
q23 0 61 25q1 0 3 0.5t4.5 1.5t5.5 2q1 0 4 -3q0 -5 -11 -11q-16 -7 -44 -27q-14 -14 -26 -14q-15 0 -22 12l-21 29q-3 -3 -3 -4t0.5 -3t0.5 -3q0 -3 -7 -17q-20 -40 -20 -52q0 -4 2 -10t2 -8q-7 -4 -13 -18q-30 -52 -30 -91q0 -10 1 -16q0 -1 -1.5 -7t-1.5 -11q-1 -5 -6 -5
q-3 0 -5 2t-5.5 8t-5.5 9q-5 11 -5 26q0 5 2 19v4q-8 -4 -8 -25q0 -17 8 -33q1 -10 12 -19q18 -15 33 -31l53 -42q9 -8 9 -19q0 -8 -6 -15t-10 -7q-8 0 -8 -3q0 -1 2.5 -4l6 -7.5t5.5 -7.5q11 -17 12 -46zM387 557h4q1 1 1 6q0 3 -6 9q-2 2 -4 2t-3 -2q8 -5 8 -15zM295 553
q2 2 2 4q0 4 -2 9t-4 5q-3 0 -3 -5q4 0 4 -9q0 -4 3 -4zM302 534q-2 0 -3 4q8 4 9 6q-2 -6 -3 -7zM342 536q-3 3 -4 8q2 -2 7 -2v-4q0 -2 -3 -2z" />
    <glyph glyph-name="i.TRK" horiz-adv-x="282" 
d="M141 571q-31 0 -53.5 22.5t-22.5 53.5t22 53t54 22t54 -21.5t22 -53.5t-22 -54t-54 -22zM76 0v511h130v-511h-130z" />
    <glyph glyph-name="Jacute" horiz-adv-x="565" 
d="M288 765l142 156h162l-178 -156h-126zM250 -12q-76 0 -139 40.5t-96 113.5l118 55q42 -79 117 -79q105 0 105 137v445h135v-457q0 -71 -21.5 -123.5t-58.5 -79.5t-76.5 -39.5t-83.5 -12.5z" />
    <glyph glyph-name="jacute" horiz-adv-x="282" 
d="M28 576l142 156h162l-178 -156h-126zM-1 -214l-66 103q81 18 112 41t31 66v515h130v-483q0 -110 -50 -162q-53 -57 -157 -80z" />
    <glyph glyph-name="zero.dnom" horiz-adv-x="402" 
d="M201 -7q-59 0 -97 33.5t-52 80t-14 104.5q0 40 8 76.5t26 69.5t51 52.5t78 19.5q86 0 124.5 -63.5t38.5 -154.5q0 -40 -8 -76t-25.5 -69.5t-50.5 -53t-79 -19.5zM201 95q26 0 39.5 33t13.5 83q0 49 -13.5 82.5t-39.5 33.5t-39.5 -33.5t-13.5 -82.5q0 -50 13.5 -83
t39.5 -33z" />
    <glyph glyph-name="one.dnom" horiz-adv-x="224" 
d="M61 0v310h-51v83q57 0 74 29h87v-422h-110z" />
    <glyph glyph-name="two.dnom" horiz-adv-x="370" 
d="M24 0q0 172 147 247q47 25 47 48q0 15 -10 24.5t-28 9.5q-42 0 -56 -49l-99 24q16 57 58 91t102 34q66 0 106.5 -36.5t40.5 -93.5q0 -28 -8 -49.5t-25.5 -38t-33 -26t-43.5 -24.5q-55 -32 -68 -59h177v-102h-307z" />
    <glyph glyph-name="three.dnom" horiz-adv-x="355" 
d="M170 -7q-59 0 -99.5 32t-58.5 91l101 26q13 -51 58 -51q20 0 31.5 11t11.5 29q0 40 -54 40h-38v92h37q41 0 41 34q0 15 -9 24.5t-26 9.5q-33 0 -47 -36l-92 34q19 47 58 73.5t90 26.5q61 0 97.5 -35t36.5 -85q0 -29 -15 -53t-38 -37q67 -25 67 -96q0 -58 -40 -94
t-112 -36z" />
    <glyph glyph-name="four.dnom" horiz-adv-x="393" 
d="M212 0v80h-205v72l207 270h100v-250h56v-92h-56v-80h-102zM212 172v116l-88 -116h88z" />
    <glyph glyph-name="five.dnom" horiz-adv-x="360" 
d="M167 -7q-84 0 -146 46l56 80q42 -30 84 -30q28 0 45.5 14t17.5 37t-12.5 35.5t-33.5 12.5q-34 0 -55 -38l-91 48l12 231h264v-96h-172l-4 -63q30 14 61 14q66 0 102.5 -41.5t36.5 -99.5q0 -70 -46 -110t-119 -40z" />
    <glyph glyph-name="six.dnom" horiz-adv-x="372" 
d="M194 -7q-77 0 -118 48.5t-41 126.5q0 109 66.5 180.5t196.5 88.5v-90q-116 -20 -145 -92q23 12 62 12q60 0 98.5 -35.5t38.5 -100.5q0 -63 -43.5 -100.5t-114.5 -37.5zM191 83q27 0 44 12.5t17 35.5q0 22 -17 34t-44 12q-24 0 -40 -12t-16 -34t16.5 -35t39.5 -13z" />
    <glyph glyph-name="seven.dnom" horiz-adv-x="317" 
d="M87 0q0 180 98 327h-180v102h302v-85q-56 -64 -82 -161.5t-28 -182.5h-110z" />
    <glyph glyph-name="eight.dnom" horiz-adv-x="379" 
d="M189 -8q-69 0 -113 37t-44 97q0 34 20 62.5t49 41.5q-52 29 -52 85q0 51 37.5 82.5t102.5 31.5t102.5 -31.5t37.5 -82.5q0 -56 -52 -85q29 -13 49 -41.5t20 -62.5q0 -60 -43.5 -97t-113.5 -37zM189 270q20 0 31 11t11 27t-11.5 27.5t-30.5 11.5q-18 0 -30 -11.5
t-12 -27.5t12 -27t30 -11zM189 74q28 0 45 15t17 40q0 26 -17 42.5t-45 16.5t-45 -16.5t-17 -42.5q0 -25 17 -40t45 -15z" />
    <glyph glyph-name="nine.dnom" horiz-adv-x="368" 
d="M91 -7v90q104 2 128 84q-23 -12 -59 -12q-63 0 -101.5 35.5t-38.5 100.5q0 62 43.5 100t113.5 38q77 0 118.5 -47.5t41.5 -120.5q0 -117 -60.5 -190.5t-185.5 -77.5zM179 245q25 0 41.5 12t16.5 34q0 21 -16.5 34.5t-41.5 13.5t-42 -13t-17 -35q0 -23 16.5 -34.5
t42.5 -11.5z" />
    <glyph glyph-name="zero.numr" horiz-adv-x="402" 
d="M201 276q-59 0 -97 33.5t-52 80t-14 104.5q0 40 8 76.5t26 69.5t51 52.5t78 19.5q86 0 124.5 -63.5t38.5 -154.5q0 -40 -8 -76t-25.5 -69.5t-50.5 -53t-79 -19.5zM201 378q26 0 39.5 33.5t13.5 82.5q0 50 -13.5 83t-39.5 33t-39.5 -33t-13.5 -83q0 -49 13.5 -82.5
t39.5 -33.5z" />
    <glyph glyph-name="one.numr" horiz-adv-x="224" 
d="M61 283v310h-51v83q57 0 74 29h87v-422h-110z" />
    <glyph glyph-name="two.numr" horiz-adv-x="370" 
d="M24 283q0 172 147 247q47 25 47 48q0 15 -10 24.5t-28 9.5q-42 0 -56 -49l-99 24q16 57 58 91t102 34q66 0 106.5 -36t40.5 -94q0 -37 -17 -64.5t-35.5 -40t-57.5 -33.5q-55 -32 -68 -59h177v-102h-307z" />
    <glyph glyph-name="three.numr" horiz-adv-x="355" 
d="M170 276q-59 0 -99.5 32t-58.5 91l101 26q13 -51 58 -51q20 0 31.5 11t11.5 29q0 40 -54 40h-38v92h37q41 0 41 34q0 15 -9 24.5t-26 9.5q-33 0 -47 -36l-92 34q19 47 58 73.5t90 26.5q61 0 97.5 -35.5t36.5 -84.5q0 -30 -15 -54t-38 -36q67 -25 67 -96q0 -58 -40 -94
t-112 -36z" />
    <glyph glyph-name="four.numr" horiz-adv-x="393" 
d="M212 283v80h-205v72l207 270h100v-250h56v-92h-56v-80h-102zM212 455v116l-88 -116h88z" />
    <glyph glyph-name="five.numr" horiz-adv-x="360" 
d="M167 276q-84 0 -146 46l56 80q42 -30 84 -30q28 0 45.5 13.5t17.5 37.5q0 23 -12.5 35.5t-33.5 12.5q-35 0 -55 -38l-91 48l12 231h264v-96h-172l-4 -63q26 14 61 14q66 0 102.5 -41.5t36.5 -99.5q0 -70 -46 -110t-119 -40z" />
    <glyph glyph-name="six.numr" horiz-adv-x="372" 
d="M194 276q-78 0 -118.5 48t-40.5 127q0 108 66.5 180t196.5 89v-90q-116 -20 -145 -92q23 12 62 12q60 0 98.5 -36t38.5 -100q0 -63 -43.5 -100.5t-114.5 -37.5zM191 366q27 0 44 12.5t17 35.5q0 22 -17 34t-44 12q-24 0 -40 -12t-16 -34q0 -21 16.5 -34.5t39.5 -13.5z
" />
    <glyph glyph-name="seven.numr" horiz-adv-x="317" 
d="M87 283q0 180 98 327h-180v102h302v-85q-57 -65 -82.5 -161.5t-27.5 -182.5h-110z" />
    <glyph glyph-name="eight.numr" horiz-adv-x="379" 
d="M189 275q-69 0 -113 37t-44 97q0 34 20 62.5t49 41.5q-52 29 -52 85q0 51 37.5 82.5t102.5 31.5t102.5 -31.5t37.5 -82.5q0 -56 -52 -85q29 -13 49 -41.5t20 -62.5q0 -60 -43.5 -97t-113.5 -37zM189 553q20 0 31 11t11 27q0 17 -11.5 28t-30.5 11q-18 0 -30 -11.5
t-12 -27.5t12 -27t30 -11zM189 357q28 0 45 15t17 40q0 26 -17 42.5t-45 16.5t-45 -16.5t-17 -42.5q0 -25 17 -40t45 -15z" />
    <glyph glyph-name="nine.numr" horiz-adv-x="368" 
d="M91 276v90q104 2 128 84q-22 -12 -59 -12q-63 0 -101.5 35.5t-38.5 100.5q0 61 43.5 99.5t113.5 38.5q77 0 118.5 -47t41.5 -121q0 -118 -60.5 -192t-185.5 -76zM179 528q25 0 41.5 12t16.5 34t-16.5 35t-41.5 13t-42 -13t-17 -35t17 -34t42 -12z" />
    </font>
</defs>
</svg>
